<?xml version="1.0" encoding="UTF-8"?>
<svg xmlns="http://www.w3.org/2000/svg" xmlns:xlink="http://www.w3.org/1999/xlink" version="1.2" >
<font id="ATT Aleck Sans Bold Italic">
<font-face  font-family="ATT Aleck Sans" units-per-em="1000" ascent="750" descent="-250" font-style="italic" font-weight="700" font-stretch="normal" slope="-12.05" cap-height="700" x-height="528" underline-position="-111" underline-thickness="58" />
<missing-glyph  horiz-adv-x="500" d="M470 0 L70 0 L70 750 L470 750 L470 0 Z M420 50 L420 700 L120 700 L120 50 L420 50 Z " />
<glyph glyph-name="&amp;#x0;" d="" />
<glyph glyph-name="&amp;#x8;" unicode="&#x8;" d="" />
<glyph glyph-name="&amp;#x1d;" unicode="&#x1d;" d="" />
<glyph glyph-name="&amp;#x9;" unicode="&#x9;" horiz-adv-x="230" d="" />
<glyph glyph-name="&amp;#xd;" unicode="&#xd;" horiz-adv-x="230" d="" />
<glyph glyph-name="space" unicode="&#x20;" horiz-adv-x="230" d="" />
<glyph glyph-name="period" unicode="&#x2e;" horiz-adv-x="247" d="M-5 59 Q-5 97 23.5 124 Q52 151 93 151 Q125 151 145 131.5 Q165 112 165 80 Q165 42 136.5 15 Q108 -12 67 -12 Q35 -12 15 7.5 Q-5 27 -5 59 Z " />
<glyph glyph-name="colon" unicode="&#x3a;" horiz-adv-x="247" d="M-5 59 Q-5 97 23.5 124 Q52 151 93 151 Q125 151 145 131.5 Q165 112 165 80 Q165 42 136.5 15 Q108 -12 67 -12 Q35 -12 15 7.5 Q-5 27 -5 59 Z M76 436 Q76 474 104.5 501 Q133 528 174 528 Q206 528 226 508.5 Q246 489 246 457 Q246 419 217.5 392 Q189 365 148 365 Q116 365 96 384.5 Q76 404 76 436 Z " />
<glyph glyph-name="comma" unicode="&#x2c;" horiz-adv-x="247" d="M-72 -119 Q12 -66 45 -4 Q22 1 9.5 18 Q-3 35 -3 60 Q-3 98 25 124.5 Q53 151 94 151 Q128 151 148 130 Q168 109 168 72 Q168 9 112 -58 Q56 -125 -38 -175 L-72 -119 Z " />
<glyph glyph-name="semicolon" unicode="&#x3b;" horiz-adv-x="247" d="M-72 -119 Q12 -66 45 -4 Q22 1 9.5 18 Q-3 35 -3 60 Q-3 98 25 124.5 Q53 151 94 151 Q128 151 148 130 Q168 109 168 72 Q168 9 112 -58 Q56 -125 -38 -175 L-72 -119 Z M83 436 Q83 474 111.5 501 Q140 528 181 528 Q213 528 233 508.5 Q253 489 253 457 Q253 419 224.5 392 Q196 365 155 365 Q123 365 103 384.5 Q83 404 83 436 Z " />
<glyph glyph-name="question" unicode="&#x3f;" horiz-adv-x="488" d="M135 230 L140 254 Q155 326 180 362.5 Q205 399 261 434 L277 444 Q359 495 359 543 Q359 570 338.5 585.5 Q318 601 280 601 Q245 601 206 587 Q167 573 116 541 L72 643 Q194 724 320 724 Q410 724 461 683.5 Q512 643 512 572 Q512 510 478.5 461.5 Q445 413 371 367 L355 357 Q313 331 293.5 308 Q274 285 268 254 L263 230 L135 230 Z M87 59 Q87 97 115.5 124 Q144 151 185 151 Q217 151 237 131.5 Q257 112 257 80 Q257 42 228.5 15 Q200 -12 159 -12 Q127 -12 107 7.5 Q87 27 87 59 Z " />
<glyph glyph-name="exclam" unicode="&#x21;" horiz-adv-x="309" d="M170 700 L325 700 L208 230 L88 230 L170 700 Z M34 59 Q34 97 62.5 124 Q91 151 132 151 Q164 151 184 131.5 Q204 112 204 80 Q204 42 175.5 15 Q147 -12 106 -12 Q74 -12 54 7.5 Q34 27 34 59 Z " />
<glyph glyph-name="questiondown" unicode="&#xbf;" horiz-adv-x="488" d="M353 298 L348 274 Q333 202 308 165.5 Q283 129 227 94 L211 84 Q129 33 129 -15 Q129 -42 149.5 -57.5 Q170 -73 208 -73 Q243 -73 282 -59 Q321 -45 372 -13 L416 -115 Q295 -196 168 -196 Q78 -196 27 -155.5 Q-24 -115 -24 -44 Q-24 18 9.5 66.5 Q43 115 117 161 L133 171 Q175 197 194.5 220 Q214 243 220 274 L225 298 L353 298 Z M401 469 Q401 431 372.5 404 Q344 377 303 377 Q271 377 251 396.5 Q231 416 231 448 Q231 486 259.5 513 Q288 540 329 540 Q361 540 381 520.5 Q401 501 401 469 Z " />
<glyph glyph-name="exclamdown" unicode="&#xa1;" horiz-adv-x="309" d="M139 -172 L-16 -172 L101 298 L221 298 L139 -172 Z M275 469 Q275 431 246.5 404 Q218 377 177 377 Q145 377 125 396.5 Q105 416 105 448 Q105 486 133.5 513 Q162 540 203 540 Q235 540 255 520.5 Q275 501 275 469 Z " />
<glyph glyph-name="quotesingle" unicode="&#x27;" horiz-adv-x="213" d="M125 700 L268 700 L191 404 L77 404 L125 700 Z " />
<glyph glyph-name="quotedbl" unicode="&#x22;" horiz-adv-x="425" d="M337 700 L480 700 L403 404 L289 404 L337 700 Z M125 700 L268 700 L191 404 L77 404 L125 700 Z " />
<glyph glyph-name="ellipsis" unicode="&#x2026;" horiz-adv-x="1000" d="M40 59 Q40 97 68.5 124 Q97 151 138 151 Q170 151 190 131.5 Q210 112 210 80 Q210 42 181.5 15 Q153 -12 112 -12 Q80 -12 60 7.5 Q40 27 40 59 Z M373 59 Q373 97 401.5 124 Q430 151 471 151 Q503 151 523 131.5 Q543 112 543 80 Q543 42 514.5 15 Q486 -12 445 -12 Q413 -12 393 7.5 Q373 27 373 59 Z M706 59 Q706 97 734.5 124 Q763 151 804 151 Q836 151 856 131.5 Q876 112 876 80 Q876 42 847.5 15 Q819 -12 778 -12 Q746 -12 726 7.5 Q706 27 706 59 Z " />
<glyph glyph-name="uni00A0" unicode="&#xa0;" horiz-adv-x="230" d="" />
<glyph glyph-name="uni2000" unicode="&#x2000;" horiz-adv-x="500" d="" />
<glyph glyph-name="uni2001" unicode="&#x2001;" horiz-adv-x="1000" d="" />
<glyph glyph-name="uni2002" unicode="&#x2002;" horiz-adv-x="500" d="" />
<glyph glyph-name="uni2003" unicode="&#x2003;" horiz-adv-x="1000" d="" />
<glyph glyph-name="uni2004" unicode="&#x2004;" horiz-adv-x="333" d="" />
<glyph glyph-name="uni2005" unicode="&#x2005;" horiz-adv-x="250" d="" />
<glyph glyph-name="uni2006" unicode="&#x2006;" horiz-adv-x="166" d="" />
<glyph glyph-name="uni2007" unicode="&#x2007;" horiz-adv-x="600" d="" />
<glyph glyph-name="uni2008" unicode="&#x2008;" horiz-adv-x="247" d="" />
<glyph glyph-name="uni2009" unicode="&#x2009;" horiz-adv-x="200" d="" />
<glyph glyph-name="uni200A" unicode="&#x200a;" horiz-adv-x="55" d="" />
<glyph glyph-name="uni200B" unicode="&#x200b;" d="" />
<glyph glyph-name="zero" unicode="0" horiz-adv-x="578" d="M261 112 Q309 112 342.5 161.5 Q376 211 401 318 Q422 408 422 476 Q422 576 346 576 Q298 576 264.5 526.5 Q231 477 206 370 Q185 280 185 212 Q185 112 261 112 Z M248 -12 Q149 -12 95 48.5 Q41 109 41 218 Q41 288 62 380 Q133 700 359 700 Q458 700 512 639.5 Q566 579 566 470 Q566 400 545 308 Q474 -12 248 -12 Z " />
<glyph glyph-name="one" unicode="1" horiz-adv-x="474" d="M78 528 L324 690 L460 690 L313 0 L169 0 L281 529 L126 431 L78 528 Z " />
<glyph glyph-name="two" unicode="2" horiz-adv-x="524" d="M-16 0 L6 100 Q27 194 80 257 Q133 320 238 373 L258 383 Q330 419 357.5 447 Q385 475 385 512 Q385 544 361 562 Q337 580 296 580 Q261 580 222 566.5 Q183 553 132 523 L87 621 Q143 659 205 679.5 Q267 700 325 700 Q417 700 473 652.5 Q529 605 529 525 Q529 452 478.5 393.5 Q428 335 318 280 L298 270 Q227 235 199 204.5 Q171 174 159 122 L447 122 L420 0 L-16 0 Z " />
<glyph glyph-name="three" unicode="3" horiz-adv-x="496" d="M174 -12 Q122 -12 70.5 2.5 Q19 17 -21 43 L24 149 Q95 108 171 108 Q232 108 270 139 Q308 170 308 220 Q308 256 284 277 Q260 298 218 298 L111 298 L132 408 L232 408 Q281 408 314 436.5 Q347 465 347 508 Q347 543 323 561.5 Q299 580 255 580 Q187 580 118 546 L82 647 Q175 700 286 700 Q376 700 433 654 Q490 608 490 533 Q490 477 456 430.5 Q422 384 362 357 Q451 314 451 221 Q451 154 413 100.5 Q375 47 312.5 17.5 Q250 -12 174 -12 Z " />
<glyph glyph-name="four" unicode="4" horiz-adv-x="589" d="M289 0 L319 144 L6 144 L32 261 L447 690 L572 690 L479 257 L563 257 L538 144 L455 144 L425 0 L289 0 Z M343 257 L394 493 L166 257 L343 257 Z " />
<glyph glyph-name="five" unicode="5" horiz-adv-x="518" d="M199 -12 Q85 -12 -8 48 L36 156 Q73 135 117.5 123 Q162 111 205 111 Q267 111 305.5 144 Q344 177 344 231 Q344 275 315.5 296.5 Q287 318 229 318 Q160 318 71 316 L170 690 L542 690 L515 568 L261 568 L223 422 Q253 425 287 425 Q381 425 434 378.5 Q487 332 487 251 Q487 172 450 112 Q413 52 348 20 Q283 -12 199 -12 Z " />
<glyph glyph-name="six" unicode="6" horiz-adv-x="569" d="M397 700 Q493 700 562 656 L517 550 Q460 581 401 581 Q340 581 293 541.5 Q246 502 218 427 Q278 436 325 436 Q421 436 475.5 384 Q530 332 530 241 Q530 168 494.5 109.5 Q459 51 399.5 19.5 Q340 -12 267 -12 Q161 -12 104.5 52.5 Q48 117 48 236 Q48 363 95 473 Q142 583 220 641.5 Q298 700 397 700 Z M280 330 Q245 330 193 325 Q187 282 187 238 Q187 107 280 107 Q334 107 364.5 141.5 Q395 176 395 234 Q395 283 367 306.5 Q339 330 280 330 Z " />
<glyph glyph-name="seven" unicode="7" horiz-adv-x="488" d="M72 0 L83 56 Q94 114 113 163 Q132 212 168.5 271.5 Q205 331 277 428 L380 568 L74 568 L101 690 L560 690 L535 575 L381 361 Q313 266 282.5 202 Q252 138 236 56 L225 0 L72 0 Z " />
<glyph glyph-name="eight" unicode="8" horiz-adv-x="570" d="M21 166 Q21 232 61.5 283.5 Q102 335 173 359 Q106 409 106 495 Q106 553 140.5 600.5 Q175 648 232 674 Q289 700 356 700 Q419 700 466.5 678.5 Q514 657 539.5 619.5 Q565 582 565 533 Q565 476 532.5 429.5 Q500 383 442 357 Q523 300 523 207 Q523 144 485 93.5 Q447 43 385 15.5 Q323 -12 250 -12 Q146 -12 83.5 36 Q21 84 21 166 Z M161 185 Q161 145 188 121 Q215 97 259 97 Q312 97 347.5 128.5 Q383 160 383 207 Q383 276 306 301 L273 312 Q225 302 193 266.5 Q161 231 161 185 Z M241 498 Q241 468 259 446.5 Q277 425 311 414 L346 403 Q385 416 408.5 447 Q432 478 432 515 Q432 550 408.5 570.5 Q385 591 347 591 Q301 591 271 565 Q241 539 241 498 Z " />
<glyph glyph-name="nine" unicode="9" horiz-adv-x="569" d="M206 -12 Q105 -12 29 38 L75 143 Q106 124 137.5 115.5 Q169 107 210 107 Q270 107 314.5 146.5 Q359 186 384 262 Q329 254 274 254 Q178 254 123.5 305 Q69 356 69 445 Q69 519 105.5 577.5 Q142 636 202 668 Q262 700 334 700 Q439 700 495 636.5 Q551 573 551 453 Q551 319 507 210 Q463 101 386 44.5 Q309 -12 206 -12 Z M320 360 Q355 360 407 365 Q412 412 412 451 Q412 520 390.5 550.5 Q369 581 320 581 Q268 581 236 545 Q204 509 204 453 Q204 404 232 382 Q260 360 320 360 Z " />
<glyph glyph-name="uni2080" unicode="&#x2080;" horiz-adv-x="438" d="M157 -39 Q212 -39 235 62 Q244 98 244 130 Q244 189 200 189 Q145 189 122 88 Q113 52 113 20 Q113 -39 157 -39 Z M143 -130 Q79 -130 39.5 -88.5 Q0 -47 0 22 Q0 58 9 96 Q28 179 84 229.5 Q140 280 214 280 Q278 280 317.5 238.5 Q357 197 357 128 Q357 92 348 54 Q329 -29 273 -79.5 Q217 -130 143 -130 Z " />
<glyph glyph-name="uni2081" unicode="&#x2081;" horiz-adv-x="438" d="M44 162 L221 270 L323 270 L240 -120 L130 -120 L188 152 L80 89 L44 162 Z " />
<glyph glyph-name="uni2082" unicode="&#x2082;" horiz-adv-x="438" d="M-17 -120 L-8 -78 Q1 -36 18.5 -6 Q36 24 66.5 48.5 Q97 73 148 97 Q184 114 203.5 125 Q223 136 231 144.5 Q239 153 239 166 Q239 178 227.5 185 Q216 192 196 192 Q172 192 140.5 182.5 Q109 173 76 156 L52 233 Q132 280 215 280 Q278 280 315 251.5 Q352 223 352 172 Q352 128 318.5 96 Q285 64 202 28 Q164 11 149 -0.5 Q134 -12 127 -30 L306 -30 L287 -120 L-17 -120 Z " />
<glyph glyph-name="uni2083" unicode="&#x2083;" horiz-adv-x="438" d="M118 -130 Q53 -130 -5 -107 L21 -27 Q67 -44 121 -44 Q159 -44 180.5 -31.5 Q202 -19 202 4 Q202 39 137 39 L74 39 L92 118 L155 118 Q187 118 206.5 130 Q226 142 226 163 Q226 177 211 185.5 Q196 194 168 194 Q124 194 74 176 L58 249 Q83 262 123.5 271 Q164 280 200 280 Q262 280 300.5 254.5 Q339 229 339 186 Q339 153 318.5 126.5 Q298 100 260 84 Q312 57 312 2 Q312 -58 259 -94 Q206 -130 118 -130 Z " />
<glyph glyph-name="uni2084" unicode="&#x2084;" horiz-adv-x="438" d="M170 -120 L185 -51 L-18 -51 L-1 28 L259 270 L355 270 L303 28 L344 28 L327 -51 L286 -51 L272 -120 L170 -120 Z M202 28 L227 147 L100 28 L202 28 Z " />
<glyph glyph-name="uni2085" unicode="&#x2085;" horiz-adv-x="438" d="M136 -130 Q54 -130 -3 -103 L27 -24 Q80 -44 136 -44 Q174 -44 194 -30 Q214 -16 214 9 Q214 46 149 46 L36 46 L96 270 L358 270 L339 181 L164 181 L147 119 Q158 120 175 120 Q250 120 288 93.5 Q326 67 326 15 Q326 -55 276.5 -92.5 Q227 -130 136 -130 Z " />
<glyph glyph-name="uni2086" unicode="&#x2086;" horiz-adv-x="438" d="M155 -130 Q81 -130 41.5 -91 Q2 -52 2 23 Q2 96 33.5 156 Q65 216 118 248 Q171 280 238 280 Q302 280 355 257 L327 179 Q279 196 234 196 Q163 196 129 125 Q169 130 202 130 Q264 130 298.5 100.5 Q333 71 333 18 Q333 -45 283.5 -87.5 Q234 -130 155 -130 Z M167 58 Q136 58 111 54 Q109 42 109 18 Q109 -12 123 -27.5 Q137 -43 163 -43 Q192 -43 211 -27 Q230 -11 230 12 Q230 58 167 58 Z " />
<glyph glyph-name="uni2087" unicode="&#x2087;" horiz-adv-x="438" d="M35 -120 L37 -108 Q43 -73 59.5 -39.5 Q76 -6 110 38 Q144 82 205 147 L234 178 L47 178 L67 270 L375 270 L356 184 L300 119 Q223 30 192 -18 Q161 -66 152 -108 L150 -120 L35 -120 Z " />
<glyph glyph-name="uni2088" unicode="&#x2088;" horiz-adv-x="438" d="M142 -130 Q68 -130 26 -103 Q-16 -76 -16 -29 Q-16 7 8 35 Q32 63 73 76 Q52 89 42.5 106.5 Q33 124 33 149 Q33 207 83.5 243.5 Q134 280 213 280 Q281 280 322 253.5 Q363 227 363 184 Q363 153 342.5 128 Q322 103 285 88 Q314 74 327 54.5 Q340 35 340 7 Q340 -54 285.5 -92 Q231 -130 142 -130 Z M155 -56 Q188 -56 208 -40.5 Q228 -25 228 0 Q228 33 184 42 L157 48 Q128 40 112 23.5 Q96 7 96 -14 Q96 -33 111.5 -44.5 Q127 -56 155 -56 Z M142 157 Q142 127 179 119 L207 113 Q230 120 243.5 135 Q257 150 257 168 Q257 185 243 195.5 Q229 206 205 206 Q177 206 159.5 192.5 Q142 179 142 157 Z " />
<glyph glyph-name="uni2089" unicode="&#x2089;" horiz-adv-x="438" d="M109 -130 Q47 -130 -3 -107 L25 -29 Q76 -46 112 -46 Q150 -46 179.5 -27.5 Q209 -9 226 25 Q188 20 160 20 Q93 20 57.5 49 Q22 78 22 132 Q22 175 46.5 209 Q71 243 112 261.5 Q153 280 203 280 Q272 280 312.5 241.5 Q353 203 353 135 Q353 14 287 -58 Q221 -130 109 -130 Z M188 92 Q218 92 245 96 Q245 102 245.5 108 Q246 114 246 120 Q246 158 233 175.5 Q220 193 192 193 Q163 193 144 177.5 Q125 162 125 138 Q125 92 188 92 Z " />
<glyph glyph-name="uni2070" unicode="&#x2070;" horiz-adv-x="438" d="M272 501 Q327 501 350 602 Q359 638 359 670 Q359 729 315 729 Q260 729 237 628 Q228 592 228 560 Q228 501 272 501 Z M258 410 Q194 410 154.5 451.5 Q115 493 115 562 Q115 598 124 636 Q143 719 199 769.5 Q255 820 329 820 Q393 820 432.5 778.5 Q472 737 472 668 Q472 632 463 594 Q444 511 388 460.5 Q332 410 258 410 Z " />
<glyph glyph-name="uni00B9" unicode="&#xb9;" horiz-adv-x="438" d="M159 702 L336 810 L438 810 L355 420 L245 420 L303 692 L195 629 L159 702 Z " />
<glyph glyph-name="uni00B2" unicode="&#xb2;" horiz-adv-x="438" d="M98 420 L107 462 Q116 504 133.5 534 Q151 564 181.5 588.5 Q212 613 263 637 Q299 654 318.5 665 Q338 676 346 684.5 Q354 693 354 706 Q354 718 342.5 725 Q331 732 311 732 Q287 732 255.5 722.5 Q224 713 191 696 L167 773 Q247 820 330 820 Q393 820 430 791.5 Q467 763 467 712 Q467 668 433.5 636 Q400 604 317 568 Q279 551 264 539.5 Q249 528 242 510 L421 510 L402 420 L98 420 Z " />
<glyph glyph-name="uni00B3" unicode="&#xb3;" horiz-adv-x="438" d="M233 410 Q168 410 110 433 L136 513 Q182 496 236 496 Q274 496 295.5 508.5 Q317 521 317 544 Q317 579 252 579 L189 579 L207 658 L270 658 Q302 658 321.5 670 Q341 682 341 703 Q341 717 326 725.5 Q311 734 283 734 Q239 734 189 716 L173 789 Q198 802 238.5 811 Q279 820 315 820 Q377 820 415.5 794.5 Q454 769 454 726 Q454 693 433.5 666.5 Q413 640 375 624 Q427 597 427 542 Q427 482 374 446 Q321 410 233 410 Z " />
<glyph glyph-name="uni2074" unicode="&#x2074;" horiz-adv-x="438" d="M285 420 L300 489 L97 489 L114 568 L374 810 L470 810 L418 568 L459 568 L442 489 L401 489 L387 420 L285 420 Z M317 568 L342 687 L215 568 L317 568 Z " />
<glyph glyph-name="uni2075" unicode="&#x2075;" horiz-adv-x="438" d="M251 410 Q169 410 112 437 L142 516 Q195 496 251 496 Q289 496 309 510 Q329 524 329 549 Q329 586 264 586 L151 586 L211 810 L473 810 L454 721 L279 721 L262 659 Q273 660 290 660 Q365 660 403 633.5 Q441 607 441 555 Q441 485 391.5 447.5 Q342 410 251 410 Z " />
<glyph glyph-name="uni2076" unicode="&#x2076;" horiz-adv-x="438" d="M270 410 Q196 410 156.5 449 Q117 488 117 563 Q117 636 148.5 696 Q180 756 233 788 Q286 820 353 820 Q417 820 470 797 L442 719 Q394 736 349 736 Q278 736 244 665 Q284 670 317 670 Q379 670 413.5 640.5 Q448 611 448 558 Q448 495 398.5 452.5 Q349 410 270 410 Z M282 598 Q251 598 226 594 Q224 582 224 558 Q224 528 238 512.5 Q252 497 278 497 Q307 497 326 513 Q345 529 345 552 Q345 598 282 598 Z " />
<glyph glyph-name="uni2077" unicode="&#x2077;" horiz-adv-x="438" d="M150 420 L152 432 Q158 467 174.5 500.5 Q191 534 225 578 Q259 622 320 687 L349 718 L162 718 L182 810 L490 810 L471 724 L415 659 Q338 570 307 522 Q276 474 267 432 L265 420 L150 420 Z " />
<glyph glyph-name="uni2078" unicode="&#x2078;" horiz-adv-x="438" d="M257 410 Q183 410 141 437 Q99 464 99 511 Q99 547 123 575 Q147 603 188 616 Q167 629 157.5 646.5 Q148 664 148 689 Q148 747 198.5 783.5 Q249 820 328 820 Q396 820 437 793.5 Q478 767 478 724 Q478 693 457.5 668 Q437 643 400 628 Q429 614 442 594.5 Q455 575 455 547 Q455 486 400.5 448 Q346 410 257 410 Z M270 484 Q303 484 323 499.5 Q343 515 343 540 Q343 573 299 582 L272 588 Q243 580 227 563.5 Q211 547 211 526 Q211 507 226.5 495.5 Q242 484 270 484 Z M257 697 Q257 667 294 659 L322 653 Q345 660 358.5 675 Q372 690 372 708 Q372 725 358 735.5 Q344 746 320 746 Q292 746 274.5 732.5 Q257 719 257 697 Z " />
<glyph glyph-name="uni2079" unicode="&#x2079;" horiz-adv-x="438" d="M224 410 Q162 410 112 433 L140 511 Q191 494 227 494 Q265 494 294.5 512.5 Q324 531 341 565 Q303 560 275 560 Q208 560 172.5 589 Q137 618 137 672 Q137 715 161.5 749 Q186 783 227 801.5 Q268 820 318 820 Q387 820 427.5 781.5 Q468 743 468 675 Q468 554 402 482 Q336 410 224 410 Z M303 632 Q333 632 360 636 Q360 642 360.5 648 Q361 654 361 660 Q361 698 348 715.5 Q335 733 307 733 Q278 733 259 717.5 Q240 702 240 678 Q240 632 303 632 Z " />
<glyph glyph-name="fraction" unicode="&#x2044;" horiz-adv-x="102" d="M-252 0 L282 690 L407 690 L-127 0 L-252 0 Z " />
<glyph glyph-name="percent" unicode="&#x25;" horiz-adv-x="942" d="M159 0 L693 690 L818 690 L284 0 L159 0 Z M687 81 Q742 81 765 182 Q774 218 774 250 Q774 309 730 309 Q675 309 652 208 Q643 172 643 140 Q643 81 687 81 Z M673 -10 Q609 -10 569.5 31.5 Q530 73 530 142 Q530 178 539 216 Q558 299 614 349.5 Q670 400 744 400 Q808 400 847.5 358.5 Q887 317 887 248 Q887 212 878 174 Q859 91 803 40.5 Q747 -10 673 -10 Z M247 381 Q302 381 325 482 Q334 518 334 550 Q334 609 290 609 Q235 609 212 508 Q203 472 203 440 Q203 381 247 381 Z M233 290 Q169 290 129.5 331.5 Q90 373 90 442 Q90 478 99 516 Q118 599 174 649.5 Q230 700 304 700 Q368 700 407.5 658.5 Q447 617 447 548 Q447 512 438 474 Q419 391 363 340.5 Q307 290 233 290 Z " />
<glyph glyph-name="onehalf" unicode="&#xbd;" horiz-adv-x="942" d="M154 0 L688 690 L813 690 L279 0 L154 0 Z M513 0 L522 42 Q531 84 548.5 114 Q566 144 596.5 168.5 Q627 193 678 217 Q714 234 733.5 245 Q753 256 761 264.5 Q769 273 769 286 Q769 298 757.5 305 Q746 312 726 312 Q702 312 670.5 302.5 Q639 293 606 276 L582 353 Q662 400 745 400 Q808 400 845 371.5 Q882 343 882 292 Q882 248 848.5 216 Q815 184 732 148 Q694 131 679 119.5 Q664 108 657 90 L836 90 L817 0 L513 0 Z M134 582 L311 690 L413 690 L330 300 L220 300 L278 572 L170 509 L134 582 Z " />
<glyph glyph-name="onequarter" unicode="&#xbc;" horiz-adv-x="942" d="M201 0 L735 690 L860 690 L326 0 L201 0 Z M700 0 L715 69 L512 69 L529 148 L789 390 L885 390 L833 148 L874 148 L857 69 L816 69 L802 0 L700 0 Z M732 148 L757 267 L630 148 L732 148 Z M134 582 L311 690 L413 690 L330 300 L220 300 L278 572 L170 509 L134 582 Z " />
<glyph glyph-name="threequarters" unicode="&#xbe;" horiz-adv-x="942" d="M201 0 L735 690 L860 690 L326 0 L201 0 Z M700 0 L715 69 L512 69 L529 148 L789 390 L885 390 L833 148 L874 148 L857 69 L816 69 L802 0 L700 0 Z M732 148 L757 267 L630 148 L732 148 Z M208 290 Q143 290 85 313 L111 393 Q157 376 211 376 Q249 376 270.5 388.5 Q292 401 292 424 Q292 459 227 459 L164 459 L182 538 L245 538 Q277 538 296.5 550 Q316 562 316 583 Q316 597 301 605.5 Q286 614 258 614 Q214 614 164 596 L148 669 Q173 682 213.5 691 Q254 700 290 700 Q352 700 390.5 674.5 Q429 649 429 606 Q429 573 408.5 546.5 Q388 520 350 504 Q402 477 402 422 Q402 362 349 326 Q296 290 208 290 Z " />
<glyph glyph-name="dollar" unicode="&#x24;" horiz-adv-x="600" d="M177 -111 L199 -7 Q147 0 98.5 19 Q50 38 15 65 L59 172 Q138 123 224 111 L264 297 Q176 333 139.5 375.5 Q103 418 103 483 Q103 546 134.5 594 Q166 642 222.5 669 Q279 696 352 699 L373 796 L463 796 L441 693 Q517 679 585 637 L540 528 Q480 563 416 575 L378 397 Q463 360 500 315.5 Q537 271 537 205 Q537 115 470 56.5 Q403 -2 288 -10 L267 -111 L177 -111 Z M238 501 Q238 477 250.5 461.5 Q263 446 296 430 L327 580 Q285 576 261.5 555 Q238 534 238 501 Z M402 191 Q402 215 389.5 231 Q377 247 346 263 L314 112 Q355 120 378.5 141 Q402 162 402 191 Z " />
<glyph glyph-name="cent" unicode="&#xa2;" horiz-adv-x="600" d="M222 -111 L244 -6 Q168 10 126.5 66.5 Q85 123 85 210 Q85 293 121 361 Q157 429 219 471.5 Q281 514 358 524 L380 627 L470 627 L448 525 Q505 517 550 491 L508 388 Q462 409 424 413 L359 105 Q404 109 459 144 L483 47 Q454 24 415 9 Q376 -6 334 -10 L313 -111 L222 -111 Z M219 224 Q219 146 271 118 L331 401 Q279 381 249 334 Q219 287 219 224 Z " />
<glyph glyph-name="sterling" unicode="&#xa3;" horiz-adv-x="600" d="M451 290 L317 290 Q294 177 220 120 L541 120 L514 0 L22 0 L45 105 Q152 163 176 290 L97 290 L121 398 L181 398 L178 422 Q175 446 175 472 Q175 576 241.5 638 Q308 700 419 700 Q522 700 608 643 L562 530 Q491 573 420 573 Q370 573 343 545 Q316 517 316 466 Q316 447 319 426 L322 398 L475 398 L451 290 Z " />
<glyph glyph-name="yen" unicode="&#xa5;" horiz-adv-x="600" d="M172 0 L193 101 L35 101 L57 201 L215 201 L228 262 L69 262 L91 362 L202 362 L96 690 L246 690 L324 390 L526 690 L688 690 L442 362 L552 362 L530 262 L372 262 L359 201 L518 201 L496 101 L337 101 L316 0 L172 0 Z " />
<glyph glyph-name="Euro" unicode="&#x20ac;" horiz-adv-x="600" d="M266 224 Q276 168 307 141.5 Q338 115 392 115 Q465 115 535 157 L566 50 Q529 21 475.5 4.5 Q422 -12 364 -12 Q255 -12 189.5 50 Q124 112 113 224 L30 224 L65 312 L112 312 Q115 343 121 373 L53 373 L88 461 L147 461 Q194 573 285.5 636.5 Q377 700 492 700 Q588 700 653 654 L609 544 Q546 574 486 574 Q423 574 375 545 Q327 516 297 461 L541 461 L505 373 L268 373 Q263 348 261 312 L484 312 L448 224 L266 224 Z " />
<glyph glyph-name="uni20BA" unicode="&#x20ba;" horiz-adv-x="600" d="M257 278 L223 119 L249 119 Q329 119 370.5 160.5 Q412 202 430 296 L574 296 Q550 146 470 73 Q390 0 247 0 L52 0 L96 209 L18 175 L39 271 L117 304 L130 366 L51 332 L72 428 L150 461 L199 690 L345 690 L311 530 L460 595 L439 499 L290 435 L277 373 L427 438 L406 342 L257 278 Z " />
<glyph glyph-name="uni20BD" unicode="&#x20bd;" horiz-adv-x="600" d="M224 98 L203 0 L64 0 L85 98 L-6 98 L15 198 L106 198 L120 263 L29 263 L53 379 L144 379 L210 690 L388 690 Q501 690 558.5 642 Q616 594 616 502 Q616 429 580 375 Q544 321 480.5 292 Q417 263 334 263 L259 263 L245 198 L419 198 L397 98 L224 98 Z M283 379 L346 379 Q407 379 441.5 409.5 Q476 440 476 492 Q476 535 453 554.5 Q430 574 382 574 L324 574 L283 379 Z " />
<glyph glyph-name="asciicircum" unicode="&#x5e;" horiz-adv-x="600" d="M403 291 L359 545 L208 291 L58 291 L318 690 L455 690 L544 291 L403 291 Z " />
<glyph glyph-name="plus" unicode="&#x2b;" horiz-adv-x="600" d="M204 103 L244 288 L78 288 L102 402 L269 402 L308 587 L429 587 L389 402 L555 402 L531 288 L364 288 L325 103 L204 103 Z " />
<glyph glyph-name="minus" unicode="&#x2212;" horiz-adv-x="600" d="M78 288 L102 402 L555 402 L531 288 L78 288 Z " />
<glyph glyph-name="equal" unicode="&#x3d;" horiz-adv-x="600" d="M102 407 L126 521 L579 521 L555 407 L102 407 Z M52 168 L76 282 L529 282 L505 168 L52 168 Z " />
<glyph glyph-name="divide" unicode="&#xf7;" horiz-adv-x="600" d="M266 97 Q239 97 222.5 113.5 Q206 130 206 156 Q206 188 230 210 Q254 232 289 232 Q316 232 332.5 215.5 Q349 199 349 173 Q349 141 325 119 Q301 97 266 97 Z M531 288 L78 288 L102 402 L555 402 L531 288 Z M344 458 Q317 458 300.5 474.5 Q284 491 284 517 Q284 549 308 571 Q332 593 367 593 Q394 593 410.5 576.5 Q427 560 427 534 Q427 502 403 480 Q379 458 344 458 Z " />
<glyph glyph-name="less" unicode="&#x3c;" horiz-adv-x="600" d="M555 445 L238 340 L511 236 L481 97 L82 286 L109 410 L588 599 L555 445 Z " />
<glyph glyph-name="greater" unicode="&#x3e;" horiz-adv-x="600" d="M87 251 L404 356 L131 460 L161 599 L560 410 L533 286 L54 97 L87 251 Z " />
<glyph glyph-name="asciitilde" unicode="&#x7e;" horiz-adv-x="600" d="M409 210 Q373 210 341.5 230 Q310 250 277 294 Q250 330 239 340 Q228 350 214 350 Q195 350 181.5 330.5 Q168 311 160 269 L151 224 L35 224 L46 279 Q67 383 110 431.5 Q153 480 226 480 Q262 480 293.5 460 Q325 440 358 396 Q385 360 396 350 Q407 340 421 340 Q459 340 475 421 L484 466 L600 466 L589 411 Q568 307 525 258.5 Q482 210 409 210 Z " />
<glyph glyph-name="multiply" unicode="&#xd7;" horiz-adv-x="600" d="M396 337 L512 181 L417 107 L304 259 L136 114 L64 203 L236 351 L120 507 L215 581 L328 429 L496 574 L568 485 L396 337 Z " />
<glyph glyph-name="underscore" unicode="&#x5f;" horiz-adv-x="500" d="M-63 -61 L437 -61 L416 -160 L-84 -160 L-63 -61 Z " />
<glyph glyph-name="section" unicode="&#xa7;" horiz-adv-x="540" d="M435 58 Q435 5 402.5 -37.5 Q370 -80 315.5 -103 Q261 -126 193 -126 Q132 -126 81.5 -112 Q31 -98 -16 -68 L32 37 Q114 -10 191 -10 Q238 -10 263.5 5 Q289 20 289 48 Q289 65 273.5 76.5 Q258 88 223 96 L187 104 Q109 121 71.5 157.5 Q34 194 34 253 Q34 311 68.5 356.5 Q103 402 164 424 Q119 463 119 532 Q119 586 150.5 627 Q182 668 235 690 Q288 712 354 712 Q408 712 452 700.5 Q496 689 540 663 L492 559 Q432 595 358 595 Q314 595 289.5 581 Q265 567 265 542 Q265 525 280.5 513.5 Q296 502 331 494 L367 486 Q445 469 482.5 432.5 Q520 396 520 337 Q520 279 485.5 234 Q451 189 390 166 Q435 127 435 58 Z M265 378 Q223 368 198 343.5 Q173 319 173 288 Q173 238 250 221 L289 212 Q331 222 356 246.5 Q381 271 381 302 Q381 352 304 369 L265 378 Z " />
<glyph glyph-name="degree" unicode="&#xb0;" horiz-adv-x="347" d="M220 473 Q253 473 275.5 498.5 Q298 524 298 561 Q298 589 283 605 Q268 621 242 621 Q209 621 186.5 595.5 Q164 570 164 533 Q164 505 179 489 Q194 473 220 473 Z M214 394 Q153 394 114.5 431.5 Q76 469 76 528 Q76 566 90 598 Q104 630 128 653 Q152 676 183 688 Q214 700 248 700 Q309 700 347.5 662.5 Q386 625 386 566 Q386 528 372 496 Q358 464 334 441 Q310 418 279 406 Q248 394 214 394 Z " />
<glyph glyph-name="paragraph" unicode="&#xb6;" horiz-adv-x="584" d="M197 -110 L276 264 Q180 272 131 319.5 Q82 367 82 453 Q82 529 117.5 585.5 Q153 642 217.5 671 Q282 700 369 700 L601 700 L429 -110 L349 -110 L503 617 L433 617 L279 -110 L197 -110 Z " />
<glyph glyph-name="numbersign" unicode="&#x23;" horiz-adv-x="600" d="M104 526 L211 526 L267 690 L376 690 L320 526 L439 526 L495 690 L604 690 L548 526 L631 526 L608 418 L511 418 L460 272 L553 272 L530 164 L423 164 L367 0 L258 0 L314 164 L195 164 L139 0 L30 0 L86 164 L3 164 L26 272 L123 272 L174 418 L81 418 L104 526 Z M232 272 L351 272 L402 418 L283 418 L232 272 Z " />
<glyph glyph-name="bar" unicode="&#x7c;" horiz-adv-x="284" d="M173 730 L310 730 L109 -216 L-28 -216 L173 730 Z " />
<glyph glyph-name="dagger" unicode="&#x2020;" horiz-adv-x="544" d="M96 525 L256 525 L300 730 L437 730 L393 525 L554 525 L529 407 L369 407 L258 -116 L121 -116 L232 407 L71 407 L96 525 Z " />
<glyph glyph-name="daggerdbl" unicode="&#x2021;" horiz-adv-x="544" d="M463 89 L303 89 L259 -116 L122 -116 L166 89 L5 89 L30 207 L190 207 L233 407 L72 407 L97 525 L257 525 L301 730 L438 730 L394 525 L555 525 L530 407 L370 407 L327 207 L488 207 L463 89 Z " />
<glyph glyph-name="logicalnot" unicode="&#xac;" horiz-adv-x="600" d="M362 103 L402 288 L70 288 L94 402 L547 402 L483 103 L362 103 Z " />
<glyph glyph-name="ampersand" unicode="&#x26;" horiz-adv-x="704" d="M437 74 Q386 29 333 8.5 Q280 -12 213 -12 Q128 -12 76.5 34.5 Q25 81 25 159 Q25 226 73.5 283 Q122 340 214 382 Q166 456 166 516 Q166 573 196.5 618 Q227 663 277.5 687.5 Q328 712 390 712 Q472 712 523 670 Q574 628 574 562 Q574 449 387 363 L463 253 Q491 289 504 309 L548 375 L689 375 L608 263 Q560 197 531 164 L649 0 L492 0 L437 74 Z M251 102 Q316 102 371 158 L269 304 Q216 272 193 242.5 Q170 213 170 175 Q170 142 192 122 Q214 102 251 102 Z M299 528 Q299 509 307.5 488 Q316 467 335 438 Q392 469 416.5 495.5 Q441 522 441 552 Q441 577 424.5 591.5 Q408 606 379 606 Q344 606 321.5 584 Q299 562 299 528 Z " />
<glyph glyph-name="asterisk" unicode="&#x2a;" horiz-adv-x="422" d="M82 405 L184 501 L68 535 L121 629 L221 579 L233 703 L341 703 L305 579 L426 628 L442 529 L319 500 L394 396 L302 341 L249 456 L158 343 L82 405 Z " />
<glyph glyph-name="hyphen" unicode="&#x2d;" horiz-adv-x="398" d="M58 338 L370 338 L345 221 L33 221 L58 338 Z " />
<glyph glyph-name="endash" unicode="&#x2013;" horiz-adv-x="500" d="M15 334 L515 334 L492 225 L-8 225 L15 334 Z " />
<glyph glyph-name="emdash" unicode="&#x2014;" horiz-adv-x="1000" d="M15 334 L1015 334 L992 225 L-8 225 L15 334 Z " />
<glyph glyph-name="parenleft" unicode="&#x28;" horiz-adv-x="384" d="M133 -163 Q101 -105 81.5 -20 Q62 65 62 148 Q62 312 129.5 470.5 Q197 629 309 730 L469 730 Q346 606 280 457 Q214 308 214 155 Q214 66 231.5 -20 Q249 -106 280 -163 L133 -163 Z " />
<glyph glyph-name="parenright" unicode="&#x29;" horiz-adv-x="384" d="M259 730 Q291 672 310.5 587 Q330 502 330 419 Q330 255 262.5 96.5 Q195 -62 83 -163 L-77 -163 Q46 -39 112 110 Q178 259 178 412 Q178 501 160.5 587 Q143 673 112 730 L259 730 Z " />
<glyph glyph-name="slash" unicode="&#x2f;" horiz-adv-x="514" d="M464 730 L607 730 L50 -163 L-93 -163 L464 730 Z " />
<glyph glyph-name="backslash" unicode="&#x5c;" horiz-adv-x="514" d="M421 -163 L286 -163 L93 730 L228 730 L421 -163 Z " />
<glyph glyph-name="bracketleft" unicode="&#x5b;" horiz-adv-x="380" d="M-13 -163 L177 730 L451 730 L426 614 L292 614 L152 -47 L300 -47 L275 -163 L-13 -163 Z " />
<glyph glyph-name="bracketright" unicode="&#x5d;" horiz-adv-x="380" d="M407 730 L217 -163 L-57 -163 L-32 -47 L102 -47 L242 614 L94 614 L119 730 L407 730 Z " />
<glyph glyph-name="braceleft" unicode="&#x7b;" horiz-adv-x="412" d="M199 -168 Q129 -168 89.5 -133 Q50 -98 50 -36 Q50 -16 55.5 5.5 Q61 27 83 89 Q99 136 103 151.5 Q107 167 107 180 Q107 205 92.5 216 Q78 227 46 227 L25 227 L49 341 L70 341 Q111 341 129.5 355.5 Q148 370 156 408 Q164 444 170 501 Q176 547 183 585 Q198 656 248.5 695.5 Q299 735 374 735 Q426 735 488 719 L465 613 Q436 620 405 620 Q367 620 345.5 602 Q324 584 316 545 Q313 529 310.5 509 Q308 489 304 461 Q301 435 299 416 Q297 397 293 381 Q276 302 200 281 Q226 271 239.5 250.5 Q253 230 253 202 Q253 186 248.5 169.5 Q244 153 220 86 Q203 39 199.5 24.5 Q196 10 196 -1 Q196 -28 211 -40.5 Q226 -53 257 -53 Q283 -53 327 -46 L304 -158 Q252 -168 199 -168 Z " />
<glyph glyph-name="braceright" unicode="&#x7d;" horiz-adv-x="412" d="M229 735 Q299 735 338.5 700 Q378 665 378 603 Q378 583 372.5 561.5 Q367 540 345 478 Q329 431 325 415.5 Q321 400 321 387 Q321 362 335.5 351 Q350 340 382 340 L403 340 L379 226 L358 226 Q317 226 298.5 211.5 Q280 197 272 159 Q264 123 258 66 Q252 20 245 -18 Q230 -89 179.5 -128.5 Q129 -168 54 -168 Q2 -168 -60 -152 L-37 -46 Q-8 -53 23 -53 Q61 -53 82.5 -35 Q104 -17 112 22 Q115 38 117.5 58 Q120 78 124 106 Q127 132 129 151 Q131 170 135 186 Q152 265 228 286 Q202 296 188.5 316.5 Q175 337 175 365 Q175 381 179.5 397.5 Q184 414 208 481 Q225 528 228.5 542.5 Q232 557 232 568 Q232 595 217 607.5 Q202 620 171 620 Q145 620 101 613 L124 725 Q176 735 229 735 Z " />
<glyph glyph-name="bullet" unicode="&#x2022;" horiz-adv-x="309" d="M147 161 Q98 161 67 192 Q36 223 36 271 Q36 312 57.5 345 Q79 378 114.5 396.5 Q150 415 190 415 Q239 415 270 384 Q301 353 301 305 Q301 264 279.5 231 Q258 198 222.5 179.5 Q187 161 147 161 Z " />
<glyph glyph-name="guilsinglleft" unicode="&#x2039;" horiz-adv-x="324" d="M153 273 L254 90 L128 90 L25 280 L197 470 L334 470 L153 273 Z " />
<glyph glyph-name="guilsinglright" unicode="&#x203a;" horiz-adv-x="324" d="M177 287 L76 470 L202 470 L305 280 L133 90 L-4 90 L177 287 Z " />
<glyph glyph-name="guillemotleft" unicode="&#xab;" horiz-adv-x="536" d="M153 273 L254 90 L128 90 L25 280 L197 470 L334 470 L153 273 Z M365 273 L466 90 L340 90 L237 280 L409 470 L546 470 L365 273 Z " />
<glyph glyph-name="guillemotright" unicode="&#xbb;" horiz-adv-x="536" d="M177 287 L76 470 L202 470 L305 280 L133 90 L-4 90 L177 287 Z M389 287 L288 470 L414 470 L517 280 L345 90 L208 90 L389 287 Z " />
<glyph glyph-name="at" unicode="&#x40;" horiz-adv-x="1043" d="M715 -18 Q657 -18 620 7.5 Q583 33 575 77 Q543 48 503.5 31.5 Q464 15 424 15 Q360 15 322 60.5 Q284 106 284 182 Q284 258 320.5 323 Q357 388 414.5 424.5 Q472 461 537 461 Q572 461 602.5 449.5 Q633 438 654 416 L674 451 L773 451 L698 185 Q691 159 691 137 Q691 86 735 86 Q777 86 811 117 Q845 148 864 197.5 Q883 247 883 304 Q883 394 845.5 458 Q808 522 739 555.5 Q670 589 576 589 Q451 589 356.5 536 Q262 483 211 391.5 Q160 300 160 185 Q160 41 249.5 -40.5 Q339 -122 497 -122 Q621 -122 723 -81 L747 -176 Q636 -226 490 -226 Q352 -226 251.5 -174.5 Q151 -123 98 -31 Q45 61 45 183 Q45 331 118 448 Q191 565 312 629 Q433 693 578 693 Q676 693 754.5 664 Q833 635 887.5 583 Q942 531 970 460.5 Q998 390 998 306 Q998 212 959.5 137.5 Q921 63 857 22.5 Q793 -18 715 -18 Z M480 119 Q520 119 565 160 L615 337 Q586 357 550 357 Q497 357 461.5 310.5 Q426 264 426 195 Q426 158 440 138.5 Q454 119 480 119 Z " />
<glyph glyph-name="periodcentered" unicode="&#xb7;" horiz-adv-x="247" d="M41 278 Q41 316 69.5 343 Q98 370 139 370 Q171 370 191 350.5 Q211 331 211 299 Q211 261 182.5 234 Q154 207 113 207 Q81 207 61 226.5 Q41 246 41 278 Z " />
<glyph glyph-name="A" unicode="A" horiz-adv-x="670" d="M453 0 L438 140 L190 140 L117 0 L-46 0 L352 700 L507 700 L608 0 L453 0 Z M258 270 L425 270 L398 537 L258 270 Z " />
<glyph glyph-name="B" unicode="B" horiz-adv-x="647" d="M632 531 Q632 469 591 422 Q550 375 482 356 Q534 340 562.5 302.5 Q591 265 591 213 Q591 114 512.5 57 Q434 0 297 0 L18 0 L166 700 L398 700 Q514 700 573 657 Q632 614 632 531 Z M230 292 L194 122 L313 122 Q370 122 403.5 149.5 Q437 177 437 223 Q437 292 340 292 L230 292 Z M290 578 L255 414 L351 414 Q411 414 445.5 441 Q480 468 480 512 Q480 547 457.5 562.5 Q435 578 387 578 L290 578 Z " />
<glyph glyph-name="C" unicode="C" horiz-adv-x="644" d="M371 -12 Q224 -12 142 69 Q60 150 60 297 Q60 417 115 512.5 Q170 608 261 660 Q352 712 461 712 Q514 712 565.5 698 Q617 684 660 658 L610 535 Q569 554 534 562 Q499 570 458 570 Q387 570 332 535.5 Q277 501 247.5 442 Q218 383 218 309 Q218 221 263 175.5 Q308 130 393 130 Q433 130 472.5 142 Q512 154 543 175 L580 52 Q549 25 490 6.5 Q431 -12 371 -12 Z " />
<glyph glyph-name="D" unicode="D" horiz-adv-x="726" d="M166 700 L369 700 Q529 700 613 625.5 Q697 551 697 409 Q697 284 640.5 190.5 Q584 97 483 48.5 Q382 0 245 0 L18 0 L166 700 Z M293 567 L201 133 L269 133 Q395 133 467 206 Q539 279 539 405 Q539 488 495.5 527.5 Q452 567 361 567 L293 567 Z " />
<glyph glyph-name="E" unicode="E" horiz-adv-x="567" d="M18 0 L166 700 L608 700 L580 570 L293 570 L261 417 L495 417 L467 287 L234 287 L201 130 L500 130 L472 0 L18 0 Z " />
<glyph glyph-name="F" unicode="F" horiz-adv-x="542" d="M18 0 L166 700 L601 700 L573 570 L293 570 L258 402 L485 402 L457 272 L231 272 L173 0 L18 0 Z " />
<glyph glyph-name="G" unicode="G" horiz-adv-x="713" d="M371 -12 Q223 -12 141.5 69 Q60 150 60 297 Q60 417 116 512.5 Q172 608 265.5 660 Q359 712 474 712 Q584 712 682 662 L632 539 Q553 571 475 571 Q397 571 338.5 537 Q280 503 249 443.5 Q218 384 218 309 Q218 220 264 174.5 Q310 129 399 129 Q448 129 484 142 L512 275 L389 275 L416 402 L686 402 L611 49 Q568 20 505 4 Q442 -12 371 -12 Z " />
<glyph glyph-name="H" unicode="H" horiz-adv-x="703" d="M419 0 L479 285 L233 285 L173 0 L18 0 L166 700 L321 700 L262 422 L508 422 L567 700 L722 700 L574 0 L419 0 Z " />
<glyph glyph-name="I" unicode="I" horiz-adv-x="302" d="M18 0 L166 700 L321 700 L173 0 L18 0 Z " />
<glyph glyph-name="J" unicode="J" horiz-adv-x="474" d="M133 -12 Q90 -12 46 0.5 Q2 13 -23 31 L20 158 Q39 145 66 137 Q93 129 119 129 Q178 129 207 160.5 Q236 192 252 269 L343 700 L498 700 L401 241 Q372 104 310 46 Q248 -12 133 -12 Z " />
<glyph glyph-name="K" unicode="K" horiz-adv-x="677" d="M18 0 L166 700 L321 700 L259 408 L553 700 L747 700 L449 404 L614 0 L442 0 L324 306 L214 197 L173 0 L18 0 Z " />
<glyph glyph-name="L" unicode="L" horiz-adv-x="538" d="M18 0 L166 700 L321 700 L202 137 L489 137 L460 0 L18 0 Z " />
<glyph glyph-name="M" unicode="M" horiz-adv-x="838" d="M558 0 L646 416 L442 123 L340 123 L257 419 L167 0 L18 0 L166 700 L313 700 L426 290 L708 700 L857 700 L709 0 L558 0 Z " />
<glyph glyph-name="N" unicode="N" horiz-adv-x="701" d="M18 0 L166 700 L306 700 L476 250 L571 700 L720 700 L572 0 L432 0 L262 450 L167 0 L18 0 Z " />
<glyph glyph-name="O" unicode="O" horiz-adv-x="761" d="M370 129 Q428 129 475 165 Q522 201 548 260 Q574 319 574 388 Q574 475 534 523 Q494 571 422 571 Q364 571 317 535 Q270 499 244 440 Q218 381 218 312 Q218 225 258 177 Q298 129 370 129 Z M360 -12 Q268 -12 200 27 Q132 66 96 135.5 Q60 205 60 297 Q60 417 111.5 512.5 Q163 608 247.5 660 Q332 712 432 712 Q524 712 592 673 Q660 634 696 564.5 Q732 495 732 403 Q732 283 680.5 187.5 Q629 92 544.5 40 Q460 -12 360 -12 Z " />
<glyph glyph-name="P" unicode="P" horiz-adv-x="638" d="M221 225 L173 0 L18 0 L166 700 L381 700 Q508 700 570.5 649 Q633 598 633 493 Q633 410 594.5 349 Q556 288 486.5 256.5 Q417 225 322 225 L221 225 Z M248 355 L331 355 Q399 355 438 389.5 Q477 424 477 482 Q477 528 452 549 Q427 570 371 570 L294 570 L248 355 Z " />
<glyph glyph-name="Q" unicode="Q" horiz-adv-x="761" d="M732 403 Q732 291 685.5 197 Q639 103 556 47 L599 -46 L481 -97 L438 -3 Q401 -12 360 -12 Q268 -12 200 27 Q132 66 96 135.5 Q60 205 60 297 Q60 417 111.5 512.5 Q163 608 247.5 660 Q332 712 432 712 Q524 712 592 673 Q660 634 696 564.5 Q732 495 732 403 Z M574 388 Q574 475 534 523 Q494 571 422 571 Q364 571 317 535 Q270 499 244 440 Q218 381 218 312 Q218 222 257.5 173 Q297 124 370 124 L382 124 L338 224 L454 273 L496 178 Q533 216 553.5 270.5 Q574 325 574 388 Z " />
<glyph glyph-name="R" unicode="R" horiz-adv-x="653" d="M411 0 L328 240 L224 240 L173 0 L18 0 L166 700 L386 700 Q508 700 570.5 650 Q633 600 633 502 Q633 416 591.5 354 Q550 292 473 263 L578 0 L411 0 Z M477 487 Q477 530 452.5 550 Q428 570 376 570 L293 570 L251 370 L339 370 Q404 370 440.5 401.5 Q477 433 477 487 Z " />
<glyph glyph-name="S" unicode="S" horiz-adv-x="598" d="M255 -12 Q182 -12 117.5 7 Q53 26 7 60 L56 183 Q96 158 148 142.5 Q200 127 245 127 Q306 127 341 148.5 Q376 170 376 207 Q376 225 368 237.5 Q360 250 338.5 263 Q317 276 269 296 L245 306 Q175 335 141 380.5 Q107 426 107 490 Q107 559 140.5 609 Q174 659 234.5 685.5 Q295 712 374 712 Q435 712 493.5 695.5 Q552 679 593 651 L544 527 Q459 573 373 573 Q322 573 293.5 554 Q265 535 265 502 Q265 478 280.5 462.5 Q296 447 338 429 L362 419 Q459 379 496.5 335 Q534 291 534 223 Q534 152 498.5 98.5 Q463 45 400.5 16.5 Q338 -12 255 -12 Z " />
<glyph glyph-name="T" unicode="T" horiz-adv-x="609" d="M170 0 L289 563 L87 563 L116 700 L675 700 L646 563 L444 563 L325 0 L170 0 Z " />
<glyph glyph-name="U" unicode="U" horiz-adv-x="680" d="M612 274 Q581 123 509 55.5 Q437 -12 303 -12 Q190 -12 125.5 44.5 Q61 101 61 199 Q61 257 77 332 L155 700 L310 700 L232 332 Q217 261 217 224 Q217 175 242 152 Q267 129 318 129 Q427 129 460 280 L549 700 L702 700 L612 274 Z " />
<glyph glyph-name="V" unicode="V" horiz-adv-x="645" d="M256 700 L297 165 L564 700 L726 700 L343 0 L187 0 L101 700 L256 700 Z " />
<glyph glyph-name="W" unicode="W" horiz-adv-x="884" d="M122 0 L111 700 L261 700 L252 209 L454 640 L583 640 L597 216 L793 700 L951 700 L642 0 L488 0 L474 422 L276 0 L122 0 Z " />
<glyph glyph-name="X" unicode="X" horiz-adv-x="645" d="M320 239 L144 0 L-33 0 L259 365 L124 700 L289 700 L370 471 L538 700 L715 700 L431 345 L569 0 L404 0 L320 239 Z " />
<glyph glyph-name="Y" unicode="Y" horiz-adv-x="621" d="M231 260 L97 700 L251 700 L329 379 L543 700 L706 700 L386 263 L331 0 L176 0 L231 260 Z " />
<glyph glyph-name="Z" unicode="Z" horiz-adv-x="600" d="M-11 0 L16 125 L411 563 L114 563 L143 700 L631 700 L604 575 L209 137 L529 137 L501 0 L-11 0 Z " />
<glyph glyph-name="a" unicode="a" horiz-adv-x="602" d="M370 0 L366 57 Q327 21 288 4.5 Q249 -12 203 -12 Q151 -12 112.5 15 Q74 42 53.5 89.5 Q33 137 33 198 Q33 297 72.5 375.5 Q112 454 177 497 Q242 540 320 540 Q360 540 395.5 525 Q431 510 455 482 L479 528 L589 528 L477 0 L370 0 Z M260 111 Q285 111 312.5 123.5 Q340 136 365 159 L413 388 Q371 417 328 417 Q285 417 251 390.5 Q217 364 199 319.5 Q181 275 181 221 Q181 168 201.5 139.5 Q222 111 260 111 Z " />
<glyph glyph-name="b" unicode="b" horiz-adv-x="602" d="M318 750 L263 491 Q326 540 399 540 Q451 540 489.5 513 Q528 486 548.5 438.5 Q569 391 569 330 Q569 231 529.5 152.5 Q490 74 425 31 Q360 -12 282 -12 Q240 -12 204.5 3.5 Q169 19 145 48 L118 0 L13 0 L172 750 L318 750 Z M342 417 Q317 417 289 404 Q261 391 237 369 L189 140 Q231 111 274 111 Q317 111 351 137.5 Q385 164 403 208.5 Q421 253 421 307 Q421 360 400.5 388.5 Q380 417 342 417 Z " />
<glyph glyph-name="c" unicode="c" horiz-adv-x="501" d="M252 -12 Q148 -12 90.5 48 Q33 108 33 217 Q33 309 77 383.5 Q121 458 194 499 Q267 540 353 540 Q436 540 502 500 L452 390 Q401 415 352 415 Q302 415 263 390.5 Q224 366 202.5 324.5 Q181 283 181 232 Q181 172 207.5 142.5 Q234 113 288 113 Q343 113 405 154 L430 47 Q397 21 347.5 4.5 Q298 -12 252 -12 Z " />
<glyph glyph-name="d" unicode="d" horiz-adv-x="602" d="M370 0 L366 57 Q327 21 287.5 4.5 Q248 -12 203 -12 Q151 -12 112.5 15 Q74 42 53.5 89.5 Q33 137 33 198 Q33 297 72.5 375.5 Q112 454 177 497 Q242 540 320 540 Q389 540 436 496 L490 750 L636 750 L477 0 L370 0 Z M260 111 Q285 111 312.5 123.5 Q340 136 365 159 L413 388 Q371 417 328 417 Q285 417 251 390.5 Q217 364 199 319.5 Q181 275 181 221 Q181 168 201.5 139.5 Q222 111 260 111 Z " />
<glyph glyph-name="e" unicode="e" horiz-adv-x="545" d="M253 -12 Q148 -12 90.5 47.5 Q33 107 33 217 Q33 310 78 384 Q123 458 197 499 Q271 540 359 540 Q433 540 477.5 501.5 Q522 463 522 400 Q522 339 483.5 293.5 Q445 248 378 223.5 Q311 199 227 199 Q213 199 199.5 200 Q186 201 172 202 Q178 154 205 130.5 Q232 107 284 107 Q360 107 432 156 L457 51 Q417 20 364.5 4 Q312 -12 253 -12 Z M336 427 Q288 427 245.5 392 Q203 357 183 299 Q200 297 215 297 Q291 297 339.5 320 Q388 343 388 379 Q388 401 374 414 Q360 427 336 427 Z " />
<glyph glyph-name="f" unicode="f" horiz-adv-x="415" d="M71 528 L162 528 L168 554 Q191 654 250.5 707 Q310 760 399 760 Q464 760 513 736 L472 624 Q438 637 408 637 Q368 637 345.5 615 Q323 593 312 545 L308 528 L447 528 L422 412 L284 412 L170 -125 L24 -125 L138 412 L46 412 L71 528 Z " />
<glyph glyph-name="g" unicode="g" horiz-adv-x="605" d="M182 -226 Q78 -226 -1 -185 L45 -70 Q109 -103 186 -103 Q253 -103 289.5 -73.5 Q326 -44 339 21 L344 45 Q283 -2 207 -2 Q156 -2 117.5 24.5 Q79 51 58 97.5 Q37 144 37 203 Q37 300 76.5 377.5 Q116 455 181 497.5 Q246 540 324 540 Q364 540 399.5 525 Q435 510 459 482 L483 528 L593 528 L487 30 Q434 -226 182 -226 Z M264 121 Q290 121 318.5 134.5 Q347 148 371 171 L417 388 Q375 417 332 417 Q269 417 227 362.5 Q185 308 185 226 Q185 176 205.5 148.5 Q226 121 264 121 Z " />
<glyph glyph-name="h" unicode="h" horiz-adv-x="596" d="M259 475 Q330 540 416 540 Q478 540 515.5 502.5 Q553 465 553 403 Q553 367 538 297 L475 0 L329 0 L391 294 Q400 338 400 360 Q400 413 342 413 Q292 413 237 368 L159 0 L13 0 L172 750 L318 750 L259 475 Z " />
<glyph glyph-name="i" unicode="i" horiz-adv-x="284" d="M125 528 L271 528 L159 0 L13 0 L125 528 Z M142 664 Q142 701 169.5 727 Q197 753 236 753 Q270 753 290 734.5 Q310 716 310 683 Q310 646 282.5 620 Q255 594 216 594 Q182 594 162 612.5 Q142 631 142 664 Z " />
<glyph glyph-name="j" unicode="j" horiz-adv-x="284" d="M271 528 L158 -4 Q134 -116 83.5 -171 Q33 -226 -47 -226 Q-105 -226 -157 -200 L-116 -92 Q-94 -103 -67 -103 Q-38 -103 -19 -80.5 Q0 -58 11 -9 L125 528 L271 528 Z M142 664 Q142 701 169.5 727 Q197 753 236 753 Q270 753 290 734.5 Q310 716 310 683 Q310 646 282.5 620 Q255 594 216 594 Q182 594 162 612.5 Q142 631 142 664 Z " />
<glyph glyph-name="k" unicode="k" horiz-adv-x="585" d="M172 750 L318 750 L235 359 L441 528 L620 528 L376 323 L519 0 L363 0 L261 237 L198 183 L159 0 L13 0 L172 750 Z " />
<glyph glyph-name="l" unicode="l" horiz-adv-x="284" d="M172 750 L318 750 L159 0 L13 0 L172 750 Z " />
<glyph glyph-name="m" unicode="m" horiz-adv-x="894" d="M247 465 Q283 501 326.5 520.5 Q370 540 414 540 Q457 540 490 516.5 Q523 493 536 453 Q575 493 624.5 516.5 Q674 540 721 540 Q779 540 815 501.5 Q851 463 851 403 Q851 367 836 297 L773 0 L627 0 L689 294 Q698 338 698 360 Q698 385 685 399 Q672 413 647 413 Q598 413 541 366 Q537 334 529 297 L466 0 L320 0 L382 294 Q391 338 391 360 Q391 385 378 399 Q365 413 340 413 Q292 413 237 368 L159 0 L13 0 L125 528 L247 528 L247 465 Z " />
<glyph glyph-name="n" unicode="n" horiz-adv-x="596" d="M247 465 Q284 502 327.5 521 Q371 540 416 540 Q478 540 515.5 502.5 Q553 465 553 403 Q553 367 538 297 L475 0 L329 0 L391 294 Q400 338 400 360 Q400 413 342 413 Q292 413 237 368 L159 0 L13 0 L125 528 L247 528 L247 465 Z " />
<glyph glyph-name="o" unicode="o" horiz-adv-x="591" d="M558 311 Q558 218 517.5 143.5 Q477 69 409 28.5 Q341 -12 257 -12 Q155 -12 94 50.5 Q33 113 33 217 Q33 310 73.5 384.5 Q114 459 182 499.5 Q250 540 334 540 Q436 540 497 477.5 Q558 415 558 311 Z M271 111 Q310 111 342 137.5 Q374 164 392 206.5 Q410 249 410 296 Q410 353 386 385 Q362 417 320 417 Q281 417 249 390.5 Q217 364 199 321.5 Q181 279 181 232 Q181 175 205 143 Q229 111 271 111 Z " />
<glyph glyph-name="p" unicode="p" horiz-adv-x="602" d="M238 528 L238 473 Q275 507 314 523.5 Q353 540 399 540 Q451 540 489.5 513 Q528 486 548.5 438.5 Q569 391 569 330 Q569 231 529.5 152.5 Q490 74 425 31 Q360 -12 282 -12 Q214 -12 165 31 L113 -216 L-33 -216 L125 528 L238 528 Z M342 417 Q317 417 289 404 Q261 391 237 369 L189 140 Q231 111 274 111 Q317 111 351 137.5 Q385 164 403 208.5 Q421 253 421 307 Q421 360 400.5 388.5 Q380 417 342 417 Z " />
<glyph glyph-name="q" unicode="q" horiz-adv-x="602" d="M285 -216 L337 33 Q276 -12 203 -12 Q151 -12 112.5 15 Q74 42 53.5 89.5 Q33 137 33 198 Q33 297 72.5 375.5 Q112 454 177 497 Q242 540 320 540 Q360 540 395.5 525 Q431 510 455 482 L479 528 L589 528 L431 -216 L285 -216 Z M260 111 Q285 111 312.5 123.5 Q340 136 365 159 L413 388 Q371 417 328 417 Q285 417 251 390.5 Q217 364 199 319.5 Q181 275 181 221 Q181 168 201.5 139.5 Q222 111 260 111 Z " />
<glyph glyph-name="r" unicode="r" horiz-adv-x="419" d="M247 465 Q284 502 326 521 Q368 540 412 540 Q433 540 451 535 L416 403 Q382 409 363 409 Q294 409 237 367 L159 0 L13 0 L125 528 L247 528 L247 465 Z " />
<glyph glyph-name="s" unicode="s" horiz-adv-x="497" d="M209 -12 Q148 -12 97.5 2.5 Q47 17 2 47 L50 153 Q131 107 209 107 Q247 107 268.5 120 Q290 133 290 155 Q290 171 275.5 182.5 Q261 194 221 210 L201 218 Q130 247 103 278 Q76 309 76 360 Q76 439 141 489.5 Q206 540 309 540 Q405 540 482 492 L435 385 Q375 421 304 421 Q266 421 243.5 408.5 Q221 396 221 376 Q221 362 233.5 352.5 Q246 343 280 329 L300 321 Q374 291 404.5 258 Q435 225 435 175 Q435 120 404.5 77 Q374 34 323 11 Q272 -12 209 -12 Z " />
<glyph glyph-name="t" unicode="t" horiz-adv-x="433" d="M211 -12 Q144 -12 105 24.5 Q66 61 66 122 Q66 162 75 202 L120 412 L36 412 L61 528 L149 528 L205 667 L320 667 L290 528 L438 528 L413 412 L266 412 L225 218 Q218 183 218 162 Q218 138 230 125 Q242 112 264 112 Q305 112 347 142 L373 39 Q341 15 298.5 1.5 Q256 -12 211 -12 Z " />
<glyph glyph-name="u" unicode="u" horiz-adv-x="589" d="M344 64 Q308 28 264 8 Q220 -12 175 -12 Q115 -12 78 25.5 Q41 63 41 125 Q41 161 56 231 L119 528 L265 528 L203 234 Q194 191 194 168 Q194 115 249 115 Q297 115 351 159 L430 528 L576 528 L464 0 L347 0 L344 64 Z " />
<glyph glyph-name="v" unicode="v" horiz-adv-x="566" d="M153 0 L62 528 L224 528 L255 159 L439 528 L609 528 L296 0 L153 0 Z " />
<glyph glyph-name="w" unicode="w" horiz-adv-x="805" d="M66 528 L222 528 L228 183 L384 509 L514 509 L533 190 L681 528 L843 528 L568 0 L439 0 L415 344 L248 0 L119 0 L66 528 Z " />
<glyph glyph-name="x" unicode="x" horiz-adv-x="553" d="M201 281 L87 528 L245 528 L306 378 L428 528 L593 528 L366 263 L488 0 L330 0 L261 167 L125 0 L-40 0 L201 281 Z " />
<glyph glyph-name="y" unicode="y" horiz-adv-x="562" d="M24 -226 Q-37 -226 -84 -200 L-39 -87 Q-10 -103 24 -103 Q59 -103 85.5 -83 Q112 -63 142 -13 L157 12 L57 528 L216 528 L258 173 L438 528 L605 528 L279 -10 Q229 -92 190.5 -138.5 Q152 -185 113.5 -205.5 Q75 -226 24 -226 Z " />
<glyph glyph-name="z" unicode="z" horiz-adv-x="518" d="M13 104 L320 415 L88 415 L112 528 L519 528 L497 424 L190 113 L439 113 L415 0 L-9 0 L13 104 Z " />
<glyph glyph-name="trademark" unicode="&#x2122;" horiz-adv-x="850" d="M441 316 L441 700 L548 700 L651 486 L750 700 L861 700 L861 316 L760 316 L760 542 L681 365 L620 365 L540 538 L540 316 L441 316 Z M167 602 L53 602 L53 700 L386 700 L386 602 L272 602 L272 316 L167 316 L167 602 Z " />
<glyph glyph-name="ordfeminine" unicode="&#xaa;" horiz-adv-x="421" d="M310 342 L308 379 Q257 334 196 334 Q142 334 109.5 371.5 Q77 409 77 471 Q77 538 104 590.5 Q131 643 175.5 671.5 Q220 700 274 700 Q301 700 326 690 Q351 680 367 662 L383 692 L462 692 L388 342 L310 342 Z M54 208 L71 288 L374 288 L357 208 L54 208 Z M238 424 Q254 424 273 432 Q292 440 307 454 L336 591 Q309 610 280 610 Q239 610 212 574.5 Q185 539 185 486 Q185 424 238 424 Z " />
<glyph glyph-name="ordmasculine" unicode="&#xba;" horiz-adv-x="424" d="M45 208 L62 288 L369 288 L352 208 L45 208 Z M244 424 Q280 424 307 458 Q334 492 334 538 Q334 572 319 591 Q304 610 276 610 Q240 610 213 576 Q186 542 186 496 Q186 462 201 443 Q216 424 244 424 Z M233 334 Q165 334 121.5 375 Q78 416 78 483 Q78 546 106.5 596 Q135 646 182 673 Q229 700 287 700 Q355 700 398.5 659 Q442 618 442 551 Q442 488 413.5 438 Q385 388 338 361 Q291 334 233 334 Z " />
<glyph glyph-name="copyright" unicode="&#xa9;" horiz-adv-x="601" d="M351 345 Q286 345 245.5 386.5 Q205 428 205 494 Q205 558 246 600.5 Q287 643 351 643 Q399 643 438 621 L419 559 Q392 572 362 572 Q327 572 306 551.5 Q285 531 285 494 Q285 458 305.5 437 Q326 416 362 416 Q394 416 421 431 L442 371 Q426 359 402 352 Q378 345 351 345 Z M341 224 Q261 224 199.5 260 Q138 296 105 357 Q72 418 72 494 Q72 574 107.5 635.5 Q143 697 204 730.5 Q265 764 341 764 Q421 764 482.5 728 Q544 692 577 631 Q610 570 610 494 Q610 414 574.5 352.5 Q539 291 478 257.5 Q417 224 341 224 Z M341 284 Q433 284 489 341.5 Q545 399 545 494 Q545 589 489 646.5 Q433 704 341 704 Q249 704 193 646.5 Q137 589 137 494 Q137 399 193 341.5 Q249 284 341 284 Z " />
<glyph glyph-name="registered" unicode="&#xae;" horiz-adv-x="601" d="M341 224 Q261 224 199.5 260 Q138 296 105 357 Q72 418 72 494 Q72 574 107.5 635.5 Q143 697 204 730.5 Q265 764 341 764 Q421 764 482.5 728 Q544 692 577 631 Q610 570 610 494 Q610 414 574.5 352.5 Q539 291 478 257.5 Q417 224 341 224 Z M341 284 Q433 284 489 341.5 Q545 399 545 494 Q545 589 489 646.5 Q433 704 341 704 Q249 704 193 646.5 Q137 589 137 494 Q137 399 193 341.5 Q249 284 341 284 Z M237 637 L353 637 Q403 637 431 612 Q459 587 459 544 Q459 518 446 497 Q433 476 410 464 L473 361 L394 361 L344 451 L307 451 L307 361 L237 361 L237 637 Z M307 508 L354 508 Q371 508 380.5 517.5 Q390 527 390 544 Q390 559 380.5 568 Q371 577 354 577 L307 577 L307 508 Z " />
<glyph glyph-name="quoteleft" unicode="&#x2018;" horiz-adv-x="224" d="M287 677 Q220 633 190 578 Q210 573 222 557 Q234 541 234 519 Q234 485 209.5 462.5 Q185 440 148 440 Q119 440 101 458.5 Q83 477 83 508 Q83 562 129 621.5 Q175 681 252 725 L287 677 Z " />
<glyph glyph-name="quoteright" unicode="&#x2019;" horiz-adv-x="224" d="M55 475 Q122 519 152 574 Q132 579 120 595 Q108 611 108 633 Q108 667 132.5 689.5 Q157 712 194 712 Q223 712 241 693.5 Q259 675 259 644 Q259 590 213 530.5 Q167 471 90 427 L55 475 Z " />
<glyph glyph-name="quotesinglbase" unicode="&#x201a;" horiz-adv-x="224" d="M-67 -99 Q0 -55 30 0 Q10 5 -2 21 Q-14 37 -14 59 Q-14 93 10.5 115.5 Q35 138 72 138 Q101 138 119 119.5 Q137 101 137 70 Q137 16 91 -43.5 Q45 -103 -32 -147 L-67 -99 Z " />
<glyph glyph-name="quotedblleft" unicode="&#x201c;" horiz-adv-x="416" d="M287 677 Q220 633 190 578 Q210 573 222 557 Q234 541 234 519 Q234 485 209.5 462.5 Q185 440 148 440 Q119 440 101 458.5 Q83 477 83 508 Q83 562 129 621.5 Q175 681 252 725 L287 677 Z M479 677 Q412 633 382 578 Q402 573 414 557 Q426 541 426 519 Q426 485 401.5 462.5 Q377 440 340 440 Q311 440 293 458.5 Q275 477 275 508 Q275 562 321 621.5 Q367 681 444 725 L479 677 Z " />
<glyph glyph-name="quotedblright" unicode="&#x201d;" horiz-adv-x="416" d="M55 475 Q122 519 152 574 Q132 579 120 595 Q108 611 108 633 Q108 667 132.5 689.5 Q157 712 194 712 Q223 712 241 693.5 Q259 675 259 644 Q259 590 213 530.5 Q167 471 90 427 L55 475 Z M247 475 Q314 519 344 574 Q324 579 312 595 Q300 611 300 633 Q300 667 324.5 689.5 Q349 712 386 712 Q415 712 433 693.5 Q451 675 451 644 Q451 590 405 530.5 Q359 471 282 427 L247 475 Z " />
<glyph glyph-name="quotedblbase" unicode="&#x201e;" horiz-adv-x="416" d="M-67 -99 Q0 -55 30 0 Q10 5 -2 21 Q-14 37 -14 59 Q-14 93 10.5 115.5 Q35 138 72 138 Q101 138 119 119.5 Q137 101 137 70 Q137 16 91 -43.5 Q45 -103 -32 -147 L-67 -99 Z M125 -99 Q192 -55 222 0 Q202 5 190 21 Q178 37 178 59 Q178 93 202.5 115.5 Q227 138 264 138 Q293 138 311 119.5 Q329 101 329 70 Q329 16 283 -43.5 Q237 -103 160 -147 L125 -99 Z " />
<glyph glyph-name="minute" unicode="&#x2032;" horiz-adv-x="240" d="M167 700 L319 700 L188 436 L68 436 L167 700 Z " />
<glyph glyph-name="second" unicode="&#x2033;" horiz-adv-x="453" d="M380 700 L532 700 L401 436 L281 436 L380 700 Z M167 700 L319 700 L188 436 L68 436 L167 700 Z " />
<glyph glyph-name="dotlessi" unicode="&#x131;" horiz-adv-x="284" d="M125 528 L271 528 L159 0 L13 0 L125 528 Z " />
<glyph glyph-name="uni0237" unicode="&#x237;" horiz-adv-x="284" d="M271 528 L158 -4 Q134 -116 83.5 -171 Q33 -226 -47 -226 Q-105 -226 -157 -200 L-116 -92 Q-94 -103 -67 -103 Q-38 -103 -19 -80.5 Q0 -58 11 -9 L125 528 L271 528 Z " />
<glyph glyph-name="IJ" unicode="&#x132;" horiz-adv-x="778" d="M18 0 L166 700 L321 700 L173 0 L18 0 Z M437 -12 Q394 -12 350 0.5 Q306 13 281 31 L324 158 Q343 145 370 137 Q397 129 423 129 Q482 129 511 160.5 Q540 192 556 269 L647 700 L802 700 L705 241 Q676 104 614 46 Q552 -12 437 -12 Z " />
<glyph glyph-name="ij" unicode="&#x133;" horiz-adv-x="571" d="M125 528 L271 528 L159 0 L13 0 L125 528 Z M142 664 Q142 701 169.5 727 Q197 753 236 753 Q270 753 290 734.5 Q310 716 310 683 Q310 646 282.5 620 Q255 594 216 594 Q182 594 162 612.5 Q142 631 142 664 Z M558 528 L445 -4 Q421 -116 370.5 -171 Q320 -226 240 -226 Q182 -226 130 -200 L171 -92 Q193 -103 220 -103 Q249 -103 268 -80.5 Q287 -58 298 -9 L412 528 L558 528 Z M429 664 Q429 701 456.5 727 Q484 753 523 753 Q557 753 577 734.5 Q597 716 597 683 Q597 646 569.5 620 Q542 594 503 594 Q469 594 449 612.5 Q429 631 429 664 Z " />
<glyph glyph-name="f_b" unicode="&#xf600;" horiz-adv-x="980" d="M406 637 Q368 637 345.5 615 Q323 593 312 545 L308 528 L433 528 L408 412 L284 412 L170 -125 L24 -125 L138 412 L46 412 L71 528 L162 528 L168 554 Q191 654 250.5 707 Q310 760 399 760 Q453 760 490 740 L444 631 Q425 637 406 637 Z M696 750 L641 491 Q704 540 777 540 Q829 540 867.5 513 Q906 486 926.5 438.5 Q947 391 947 330 Q947 231 907.5 152.5 Q868 74 803 31 Q738 -12 660 -12 Q618 -12 582.5 3.5 Q547 19 523 48 L496 0 L391 0 L550 750 L696 750 Z M720 417 Q695 417 667 404 Q639 391 615 369 L567 140 Q609 111 652 111 Q695 111 729 137.5 Q763 164 781 208.5 Q799 253 799 307 Q799 360 778.5 388.5 Q758 417 720 417 Z " />
<glyph glyph-name="ff" unicode="&#xfb00;" horiz-adv-x="755" d="M406 637 Q368 637 345.5 615 Q323 593 312 545 L308 528 L577 528 L552 412 L284 412 L170 -125 L24 -125 L138 412 L46 412 L71 528 L162 528 L168 554 Q191 654 250.5 707 Q310 760 399 760 Q453 760 490 740 L444 631 Q425 637 406 637 Z M411 528 L502 528 L508 554 Q531 654 590.5 707 Q650 760 739 760 Q804 760 853 736 L812 624 Q778 637 748 637 Q708 637 685.5 615 Q663 593 652 545 L648 528 L787 528 L762 412 L624 412 L510 -125 L364 -125 L478 412 L386 412 L411 528 Z " />
<glyph glyph-name="f_h" unicode="&#xf604;" horiz-adv-x="971" d="M406 637 Q368 637 345.5 615 Q323 593 312 545 L308 528 L433 528 L408 412 L284 412 L170 -125 L24 -125 L138 412 L46 412 L71 528 L162 528 L168 554 Q191 654 250.5 707 Q310 760 399 760 Q453 760 490 740 L444 631 Q425 637 406 637 Z M637 475 Q708 540 794 540 Q856 540 893.5 502.5 Q931 465 931 403 Q931 367 916 297 L853 0 L707 0 L769 294 Q778 338 778 360 Q778 413 720 413 Q670 413 615 368 L537 0 L391 0 L550 750 L696 750 L637 475 Z " />
<glyph glyph-name="fi" unicode="&#xfb01;" horiz-adv-x="662" d="M406 637 Q368 637 345.5 615 Q323 593 312 545 L308 528 L577 528 L552 412 L284 412 L170 -125 L24 -125 L138 412 L46 412 L71 528 L162 528 L168 554 Q191 654 250.5 707 Q310 760 399 760 Q453 760 490 740 L444 631 Q425 637 406 637 Z M503 528 L649 528 L537 0 L391 0 L503 528 Z M520 664 Q520 701 547.5 727 Q575 753 614 753 Q648 753 668 734.5 Q688 716 688 683 Q688 646 660.5 620 Q633 594 594 594 Q560 594 540 612.5 Q520 631 520 664 Z " />
<glyph glyph-name="f_j" unicode="&#xf601;" horiz-adv-x="662" d="M406 637 Q368 637 345.5 615 Q323 593 312 545 L308 528 L577 528 L552 412 L284 412 L170 -125 L24 -125 L138 412 L46 412 L71 528 L162 528 L168 554 Q191 654 250.5 707 Q310 760 399 760 Q453 760 490 740 L444 631 Q425 637 406 637 Z M649 528 L536 -4 Q512 -116 461.5 -171 Q411 -226 331 -226 Q273 -226 221 -200 L262 -92 Q284 -103 311 -103 Q340 -103 359 -80.5 Q378 -58 389 -9 L503 528 L649 528 Z M520 664 Q520 701 547.5 727 Q575 753 614 753 Q648 753 668 734.5 Q688 716 688 683 Q688 646 660.5 620 Q633 594 594 594 Q560 594 540 612.5 Q520 631 520 664 Z " />
<glyph glyph-name="f_k" unicode="&#xf602;" horiz-adv-x="963" d="M406 637 Q368 637 345.5 615 Q323 593 312 545 L308 528 L433 528 L408 412 L284 412 L170 -125 L24 -125 L138 412 L46 412 L71 528 L162 528 L168 554 Q191 654 250.5 707 Q310 760 399 760 Q453 760 490 740 L444 631 Q425 637 406 637 Z M550 750 L696 750 L613 359 L819 528 L998 528 L754 323 L897 0 L741 0 L639 237 L576 183 L537 0 L391 0 L550 750 Z " />
<glyph glyph-name="fl" unicode="&#xfb02;" horiz-adv-x="662" d="M406 637 Q368 637 345.5 615 Q323 593 312 545 L308 528 L433 528 L408 412 L284 412 L170 -125 L24 -125 L138 412 L46 412 L71 528 L162 528 L168 554 Q191 654 250.5 707 Q310 760 399 760 Q453 760 490 740 L444 631 Q425 637 406 637 Z M550 750 L696 750 L537 0 L391 0 L550 750 Z " />
<glyph glyph-name="f_t" unicode="&#xf603;" horiz-adv-x="787" d="M406 637 Q368 637 345.5 615 Q323 593 312 545 L308 528 L577 528 L552 412 L284 412 L170 -125 L24 -125 L138 412 L46 412 L71 528 L162 528 L168 554 Q191 654 250.5 707 Q310 760 399 760 Q453 760 490 740 L444 631 Q425 637 406 637 Z M565 -12 Q498 -12 459 24.5 Q420 61 420 122 Q420 162 429 202 L474 412 L390 412 L415 528 L503 528 L559 667 L674 667 L644 528 L792 528 L767 412 L620 412 L579 218 Q572 183 572 162 Q572 138 584 125 Q596 112 618 112 Q659 112 701 142 L727 39 Q695 15 652.5 1.5 Q610 -12 565 -12 Z " />
<glyph glyph-name="ffi" unicode="&#xfb03;" horiz-adv-x="1002" d="M406 637 Q368 637 345.5 615 Q323 593 312 545 L308 528 L577 528 L552 412 L284 412 L170 -125 L24 -125 L138 412 L46 412 L71 528 L162 528 L168 554 Q191 654 250.5 707 Q310 760 399 760 Q453 760 490 740 L444 631 Q425 637 406 637 Z M746 637 Q708 637 685.5 615 Q663 593 652 545 L648 528 L917 528 L892 412 L624 412 L510 -125 L364 -125 L478 412 L386 412 L411 528 L502 528 L508 554 Q531 654 590.5 707 Q650 760 739 760 Q793 760 830 740 L784 631 Q765 637 746 637 Z M843 528 L989 528 L877 0 L731 0 L843 528 Z M860 664 Q860 701 887.5 727 Q915 753 954 753 Q988 753 1008 734.5 Q1028 716 1028 683 Q1028 646 1000.5 620 Q973 594 934 594 Q900 594 880 612.5 Q860 631 860 664 Z " />
<glyph glyph-name="ffl" unicode="&#xfb04;" horiz-adv-x="1002" d="M406 637 Q368 637 345.5 615 Q323 593 312 545 L308 528 L577 528 L552 412 L284 412 L170 -125 L24 -125 L138 412 L46 412 L71 528 L162 528 L168 554 Q191 654 250.5 707 Q310 760 399 760 Q453 760 490 740 L444 631 Q425 637 406 637 Z M746 637 Q708 637 685.5 615 Q663 593 652 545 L648 528 L773 528 L748 412 L624 412 L510 -125 L364 -125 L478 412 L386 412 L411 528 L502 528 L508 554 Q531 654 590.5 707 Q650 760 739 760 Q793 760 830 740 L784 631 Q765 637 746 637 Z M890 750 L1036 750 L877 0 L731 0 L890 750 Z " />
<glyph glyph-name="Thorn" unicode="&#xde;" horiz-adv-x="638" d="M18 0 L166 700 L321 700 L299 595 L359 595 Q486 595 548.5 544 Q611 493 611 388 Q611 305 572.5 244 Q534 183 464.5 151.5 Q395 120 300 120 L199 120 L173 0 L18 0 Z M272 465 L226 250 L309 250 Q377 250 416 284.5 Q455 319 455 377 Q455 423 430 444 Q405 465 349 465 L272 465 Z " />
<glyph glyph-name="AE" unicode="&#xc6;" horiz-adv-x="948" d="M404 0 L442 181 L237 181 L112 0 L-61 0 L447 700 L989 700 L961 570 L679 570 L647 417 L876 417 L848 287 L620 287 L587 130 L881 130 L853 0 L404 0 Z M470 311 L525 572 L506 572 L326 311 L470 311 Z " />
<glyph glyph-name="OE" unicode="&#x152;" horiz-adv-x="1031" d="M350 -12 Q262 -12 196 27.5 Q130 67 95 136.5 Q60 206 60 297 Q60 416 110.5 511.5 Q161 607 243.5 659.5 Q326 712 422 712 Q482 712 532.5 690 Q583 668 619 627 L635 700 L1072 700 L1044 570 L762 570 L730 417 L959 417 L931 287 L703 287 L670 130 L964 130 L936 0 L492 0 L499 32 Q428 -12 350 -12 Z M370 129 Q428 129 475 165 Q522 201 548 260 Q574 319 574 388 Q574 474 534 522.5 Q494 571 422 571 Q364 571 317 535 Q270 499 244 440 Q218 381 218 312 Q218 226 258 177.5 Q298 129 370 129 Z " />
<glyph glyph-name="uni1E9E" unicode="&#x1e9e;" horiz-adv-x="718" d="M415 -12 Q371 -12 332 -1.5 Q293 9 264 28 L301 145 Q355 119 403 119 Q452 119 482 146 Q512 173 512 216 Q512 256 483 277 Q454 298 398 298 Q391 298 383 298 Q375 298 367 297 L390 406 L547 559 Q502 576 452 576 Q367 576 321 532 Q275 488 255 389 L173 0 L18 0 L104 406 Q136 558 226 635 Q316 712 461 712 Q529 712 595.5 691 Q662 670 710 634 L690 535 L541 390 Q602 375 636 331.5 Q670 288 670 225 Q670 153 636.5 99.5 Q603 46 545 17 Q487 -12 415 -12 Z " />
<glyph glyph-name="thorn" unicode="&#xfe;" horiz-adv-x="602" d="M318 750 L263 491 Q326 540 399 540 Q451 540 489.5 513 Q528 486 548.5 438.5 Q569 391 569 330 Q569 231 529.5 152.5 Q490 74 425 31 Q360 -12 282 -12 Q214 -12 165 31 L113 -216 L-33 -216 L172 750 L318 750 Z M342 417 Q317 417 289 404 Q261 391 237 369 L189 140 Q231 111 274 111 Q317 111 351 137.5 Q385 164 403 208.5 Q421 253 421 307 Q421 360 400.5 388.5 Q380 417 342 417 Z " />
<glyph glyph-name="ae" unicode="&#xe6;" horiz-adv-x="903" d="M370 0 L366 57 Q327 21 288 4.5 Q249 -12 203 -12 Q151 -12 112.5 15 Q74 42 53.5 89.5 Q33 137 33 198 Q33 297 72.5 375.5 Q112 454 177 497 Q242 540 320 540 Q360 540 395.5 525 Q431 510 455 482 L479 528 L579 528 L571 493 Q642 540 727 540 Q796 540 838 501.5 Q880 463 880 400 Q880 339 841.5 293.5 Q803 248 736 223.5 Q669 199 585 199 Q571 199 557.5 200 Q544 201 530 202 Q536 154 563 130.5 Q590 107 642 107 Q718 107 790 156 L815 51 Q777 20 727 4 Q677 -12 621 -12 Q528 -12 478 51 L467 0 L370 0 Z M260 111 Q285 111 312.5 123.5 Q340 136 365 159 L413 388 Q371 417 328 417 Q285 417 251 390.5 Q217 364 199 319.5 Q181 275 181 221 Q181 168 201.5 139.5 Q222 111 260 111 Z M694 427 Q646 427 603.5 392 Q561 357 541 299 Q558 297 573 297 Q649 297 697.5 320 Q746 343 746 379 Q746 401 732 414 Q718 427 694 427 Z " />
<glyph glyph-name="oe" unicode="&#x153;" horiz-adv-x="919" d="M637 -12 Q574 -12 528 12 Q482 36 457 82 Q416 36 362.5 12 Q309 -12 247 -12 Q150 -12 91.5 50 Q33 112 33 217 Q33 310 72 384.5 Q111 459 177 499.5 Q243 540 324 540 Q386 540 434 513 Q482 486 509 437 Q553 486 614 513 Q675 540 743 540 Q812 540 854 501.5 Q896 463 896 400 Q896 339 857.5 293.5 Q819 248 752 223.5 Q685 199 601 199 Q587 199 573.5 200 Q560 201 546 202 Q552 154 579 130.5 Q606 107 658 107 Q734 107 806 156 L831 51 Q793 20 743 4 Q693 -12 637 -12 Z M271 111 Q310 111 342 137.5 Q374 164 392 206.5 Q410 249 410 296 Q410 353 386 385 Q362 417 320 417 Q281 417 249 390.5 Q217 364 199 321.5 Q181 279 181 232 Q181 175 205 143 Q229 111 271 111 Z M710 427 Q662 427 619.5 392 Q577 357 557 299 Q574 297 589 297 Q665 297 713.5 320 Q762 343 762 379 Q762 401 748 414 Q734 427 710 427 Z " />
<glyph glyph-name="germandbls" unicode="&#xdf;" horiz-adv-x="636" d="M632 584 Q632 517 592.5 466 Q553 415 484 392 Q534 375 562.5 333 Q591 291 591 232 Q591 155 557 100.5 Q523 46 462.5 17 Q402 -12 326 -12 Q255 -12 208 13 L248 127 Q281 111 322 111 Q374 111 408.5 145.5 Q443 180 443 230 Q443 325 325 325 L292 325 L317 443 L346 443 Q405 443 445.5 476.5 Q486 510 486 559 Q486 596 463.5 616.5 Q441 637 401 637 Q295 637 261 481 L159 0 L13 0 L115 481 Q144 618 221.5 689 Q299 760 420 760 Q515 760 573.5 711.5 Q632 663 632 584 Z " />
<glyph glyph-name="Eth" unicode="&#xd0;" horiz-adv-x="745" d="M100 298 L27 298 L51 413 L124 413 L185 700 L388 700 Q548 700 632 625.5 Q716 551 716 409 Q716 284 659.5 190.5 Q603 97 502 48.5 Q401 0 264 0 L37 0 L100 298 Z M312 567 L279 413 L375 413 L351 298 L255 298 L220 133 L288 133 Q414 133 486 206 Q558 279 558 405 Q558 488 514.5 527.5 Q471 567 380 567 L312 567 Z " />
<glyph glyph-name="Oslash" unicode="&#xd8;" horiz-adv-x="761" d="M360 -12 Q237 -12 159 55 L81 -20 L14 50 L98 131 Q60 204 60 297 Q60 417 111.5 512.5 Q163 608 247.5 660 Q332 712 432 712 Q555 712 633 645 L711 720 L778 650 L694 569 Q732 496 732 403 Q732 283 680.5 187.5 Q629 92 544.5 40 Q460 -12 360 -12 Z M214 312 Q214 277 220 248 L524 540 Q486 575 422 575 Q362 575 314 539 Q266 503 240 443.5 Q214 384 214 312 Z M370 125 Q430 125 478 161 Q526 197 552 256.5 Q578 316 578 388 Q578 424 572 452 L268 160 Q306 125 370 125 Z " />
<glyph glyph-name="eth" unicode="&#xf0;" horiz-adv-x="592" d="M209 581 L297 642 Q272 659 226 680 L285 779 Q351 754 406 717 L515 792 L558 729 L466 666 Q571 557 571 386 Q571 265 530 174.5 Q489 84 417.5 36 Q346 -12 253 -12 Q149 -12 87.5 47.5 Q26 107 26 206 Q26 289 64 356 Q102 423 163.5 460.5 Q225 498 294 498 Q334 498 368.5 484.5 Q403 471 427 446 Q414 529 358 591 L252 518 L209 581 Z M267 111 Q304 111 335.5 135 Q367 159 384.5 196.5 Q402 234 402 277 Q402 322 376.5 348.5 Q351 375 307 375 Q270 375 239 351.5 Q208 328 191 291 Q174 254 174 211 Q174 166 199 138.5 Q224 111 267 111 Z " />
<glyph glyph-name="oslash" unicode="&#xf8;" horiz-adv-x="591" d="M594 493 L530 432 Q558 381 558 311 Q558 218 517.5 143.5 Q477 69 409 28.5 Q341 -12 257 -12 Q170 -12 113 33 L53 -24 L-3 35 L61 96 Q33 147 33 217 Q33 310 73.5 384.5 Q114 459 182 499.5 Q250 540 334 540 Q421 540 478 495 L538 552 L594 493 Z M170 232 Q170 215 172 202 L383 404 Q358 426 320 426 Q278 426 243 398 Q208 370 189 325.5 Q170 281 170 232 Z M271 102 Q313 102 348 130 Q383 158 402 202.5 Q421 247 421 296 Q421 313 419 326 L208 124 Q233 102 271 102 Z " />
<glyph glyph-name="uni0327" unicode="&#x327;" d="M-137 -153 Q-106 -171 -68 -171 Q-41 -171 -26 -159.5 Q-11 -148 -11 -130 Q-11 -115 -25.5 -107 Q-40 -99 -68 -99 L-108 -99 L-51 2 L29 2 L3 -45 Q75 -58 75 -127 Q75 -162 56 -189.5 Q37 -217 5 -232 Q-27 -247 -67 -247 Q-124 -247 -171 -219 L-137 -153 Z " />
<glyph glyph-name="cedilla" unicode="&#xb8;" horiz-adv-x="596" d="M105 -153 Q136 -171 174 -171 Q201 -171 216 -159.5 Q231 -148 231 -130 Q231 -115 216.5 -107 Q202 -99 174 -99 L134 -99 L191 2 L271 2 L245 -45 Q317 -58 317 -127 Q317 -162 298 -189.5 Q279 -217 247 -232 Q215 -247 175 -247 Q118 -247 71 -219 L105 -153 Z " />
<glyph glyph-name="uni0326" unicode="&#x326;" d="M-121 -253 Q-70 -218 -49 -174 Q-67 -170 -77.5 -157.5 Q-88 -145 -88 -126 Q-88 -95 -66.5 -75 Q-45 -55 -11 -55 Q15 -55 31.5 -71.5 Q48 -88 48 -114 Q48 -160 11.5 -209 Q-25 -258 -89 -297 L-121 -253 Z " />
<glyph glyph-name="Ccedilla" unicode="&#xc7;" horiz-adv-x="644" d="M371 -12 Q224 -12 142 69 Q60 150 60 297 Q60 417 115 512.5 Q170 608 261 660 Q352 712 461 712 Q514 712 565.5 698 Q617 684 660 658 L610 535 Q569 554 534 562 Q499 570 458 570 Q387 570 332 535.5 Q277 501 247.5 442 Q218 383 218 309 Q218 221 263 175.5 Q308 130 393 130 Q433 130 472.5 142 Q512 154 543 175 L580 52 Q549 25 490 6.5 Q431 -12 371 -12 Z M208 -151 Q221 -159 240 -164 Q259 -169 276 -169 Q301 -169 316 -158.5 Q331 -148 331 -130 Q331 -100 276 -100 L236 -100 L293 2 L375 2 L349 -44 Q383 -50 401 -71.5 Q419 -93 419 -127 Q419 -179 378.5 -212.5 Q338 -246 277 -246 Q222 -246 174 -218 L208 -151 Z " />
<glyph glyph-name="Scedilla" unicode="&#x15e;" horiz-adv-x="598" d="M255 -12 Q182 -12 117.5 7 Q53 26 7 60 L56 183 Q96 158 148 142.5 Q200 127 245 127 Q306 127 341 148.5 Q376 170 376 207 Q376 225 368 237.5 Q360 250 338.5 263 Q317 276 269 296 L245 306 Q175 335 141 380.5 Q107 426 107 490 Q107 559 140.5 609 Q174 659 234.5 685.5 Q295 712 374 712 Q435 712 493.5 695.5 Q552 679 593 651 L544 527 Q459 573 373 573 Q322 573 293.5 554 Q265 535 265 502 Q265 478 280.5 462.5 Q296 447 338 429 L362 419 Q459 379 496.5 335 Q534 291 534 223 Q534 152 498.5 98.5 Q463 45 400.5 16.5 Q338 -12 255 -12 Z M108 -151 Q121 -159 140 -164 Q159 -169 176 -169 Q201 -169 216 -158.5 Q231 -148 231 -130 Q231 -100 176 -100 L136 -100 L193 2 L275 2 L249 -44 Q283 -50 301 -71.5 Q319 -93 319 -127 Q319 -179 278.5 -212.5 Q238 -246 177 -246 Q122 -246 74 -218 L108 -151 Z " />
<glyph glyph-name="uni0162" unicode="&#x162;" horiz-adv-x="609" d="M170 0 L289 563 L87 563 L116 700 L675 700 L646 563 L444 563 L325 0 L170 0 Z M124 -151 Q137 -159 156 -164 Q175 -169 192 -169 Q217 -169 232 -158.5 Q247 -148 247 -130 Q247 -100 192 -100 L152 -100 L209 2 L291 2 L265 -44 Q299 -50 317 -71.5 Q335 -93 335 -127 Q335 -179 294.5 -212.5 Q254 -246 193 -246 Q138 -246 90 -218 L124 -151 Z " />
<glyph glyph-name="uni0218" unicode="&#x218;" horiz-adv-x="598" d="M255 -12 Q182 -12 117.5 7 Q53 26 7 60 L56 183 Q96 158 148 142.5 Q200 127 245 127 Q306 127 341 148.5 Q376 170 376 207 Q376 225 368 237.5 Q360 250 338.5 263 Q317 276 269 296 L245 306 Q175 335 141 380.5 Q107 426 107 490 Q107 559 140.5 609 Q174 659 234.5 685.5 Q295 712 374 712 Q435 712 493.5 695.5 Q552 679 593 651 L544 527 Q459 573 373 573 Q322 573 293.5 554 Q265 535 265 502 Q265 478 280.5 462.5 Q296 447 338 429 L362 419 Q459 379 496.5 335 Q534 291 534 223 Q534 152 498.5 98.5 Q463 45 400.5 16.5 Q338 -12 255 -12 Z M99 -253 Q153 -211 173 -174 Q154 -169 143.5 -156.5 Q133 -144 133 -126 Q133 -95 155.5 -75 Q178 -55 212 -55 Q239 -55 255.5 -71.5 Q272 -88 272 -114 Q272 -162 236 -210.5 Q200 -259 133 -299 L99 -253 Z " />
<glyph glyph-name="uni021A" unicode="&#x21a;" horiz-adv-x="609" d="M170 0 L289 563 L87 563 L116 700 L675 700 L646 563 L444 563 L325 0 L170 0 Z M115 -253 Q169 -211 189 -174 Q170 -169 159.5 -156.5 Q149 -144 149 -126 Q149 -95 171.5 -75 Q194 -55 228 -55 Q255 -55 271.5 -71.5 Q288 -88 288 -114 Q288 -162 252 -210.5 Q216 -259 149 -299 L115 -253 Z " />
<glyph glyph-name="ccedilla" unicode="&#xe7;" horiz-adv-x="501" d="M252 -12 Q148 -12 90.5 48 Q33 108 33 217 Q33 309 77 383.5 Q121 458 194 499 Q267 540 353 540 Q436 540 502 500 L452 390 Q401 415 352 415 Q302 415 263 390.5 Q224 366 202.5 324.5 Q181 283 181 232 Q181 172 207.5 142.5 Q234 113 288 113 Q343 113 405 154 L430 47 Q397 21 347.5 4.5 Q298 -12 252 -12 Z M99 -153 Q130 -171 168 -171 Q195 -171 210 -159.5 Q225 -148 225 -130 Q225 -115 210.5 -107 Q196 -99 168 -99 L128 -99 L185 2 L265 2 L239 -45 Q311 -58 311 -127 Q311 -162 292 -189.5 Q273 -217 241 -232 Q209 -247 169 -247 Q112 -247 65 -219 L99 -153 Z " />
<glyph glyph-name="scedilla" unicode="&#x15f;" horiz-adv-x="497" d="M209 -12 Q148 -12 97.5 2.5 Q47 17 2 47 L50 153 Q131 107 209 107 Q247 107 268.5 120 Q290 133 290 155 Q290 171 275.5 182.5 Q261 194 221 210 L201 218 Q130 247 103 278 Q76 309 76 360 Q76 439 141 489.5 Q206 540 309 540 Q405 540 482 492 L435 385 Q375 421 304 421 Q266 421 243.5 408.5 Q221 396 221 376 Q221 362 233.5 352.5 Q246 343 280 329 L300 321 Q374 291 404.5 258 Q435 225 435 175 Q435 120 404.5 77 Q374 34 323 11 Q272 -12 209 -12 Z M62 -153 Q93 -171 131 -171 Q158 -171 173 -159.5 Q188 -148 188 -130 Q188 -115 173.5 -107 Q159 -99 131 -99 L91 -99 L148 2 L228 2 L202 -45 Q274 -58 274 -127 Q274 -162 255 -189.5 Q236 -217 204 -232 Q172 -247 132 -247 Q75 -247 28 -219 L62 -153 Z " />
<glyph glyph-name="uni0163" unicode="&#x163;" horiz-adv-x="433" d="M211 -12 Q144 -12 105 24.5 Q66 61 66 122 Q66 162 75 202 L120 412 L36 412 L61 528 L149 528 L205 667 L320 667 L290 528 L438 528 L413 412 L266 412 L225 218 Q218 183 218 162 Q218 138 230 125 Q242 112 264 112 Q305 112 347 142 L373 39 Q341 15 298.5 1.5 Q256 -12 211 -12 Z M70 -153 Q101 -171 139 -171 Q166 -171 181 -159.5 Q196 -148 196 -130 Q196 -115 181.5 -107 Q167 -99 139 -99 L99 -99 L156 2 L236 2 L210 -45 Q282 -58 282 -127 Q282 -162 263 -189.5 Q244 -217 212 -232 Q180 -247 140 -247 Q83 -247 36 -219 L70 -153 Z " />
<glyph glyph-name="uni0219" unicode="&#x219;" horiz-adv-x="497" d="M209 -12 Q148 -12 97.5 2.5 Q47 17 2 47 L50 153 Q131 107 209 107 Q247 107 268.5 120 Q290 133 290 155 Q290 171 275.5 182.5 Q261 194 221 210 L201 218 Q130 247 103 278 Q76 309 76 360 Q76 439 141 489.5 Q206 540 309 540 Q405 540 482 492 L435 385 Q375 421 304 421 Q266 421 243.5 408.5 Q221 396 221 376 Q221 362 233.5 352.5 Q246 343 280 329 L300 321 Q374 291 404.5 258 Q435 225 435 175 Q435 120 404.5 77 Q374 34 323 11 Q272 -12 209 -12 Z M69 -253 Q120 -218 141 -174 Q123 -170 112.5 -157.5 Q102 -145 102 -126 Q102 -95 123.5 -75 Q145 -55 179 -55 Q205 -55 221.5 -71.5 Q238 -88 238 -114 Q238 -160 201.5 -209 Q165 -258 101 -297 L69 -253 Z " />
<glyph glyph-name="uni021B" unicode="&#x21b;" horiz-adv-x="433" d="M211 -12 Q144 -12 105 24.5 Q66 61 66 122 Q66 162 75 202 L120 412 L36 412 L61 528 L149 528 L205 667 L320 667 L290 528 L438 528 L413 412 L266 412 L225 218 Q218 183 218 162 Q218 138 230 125 Q242 112 264 112 Q305 112 347 142 L373 39 Q341 15 298.5 1.5 Q256 -12 211 -12 Z M76 -253 Q127 -218 148 -174 Q130 -170 119.5 -157.5 Q109 -145 109 -126 Q109 -95 130.5 -75 Q152 -55 186 -55 Q212 -55 228.5 -71.5 Q245 -88 245 -114 Q245 -160 208.5 -209 Q172 -258 108 -297 L76 -253 Z " />
<glyph glyph-name="acutecomb" unicode="&#x301;" d="M-67 603 L68 759 L239 759 L74 603 L-67 603 Z " />
<glyph glyph-name="acute" unicode="&#xb4;" horiz-adv-x="596" d="M243 603 L378 759 L549 759 L384 603 L243 603 Z " />
<glyph glyph-name="Aacute" unicode="&#xc1;" horiz-adv-x="670" d="M453 0 L438 140 L190 140 L117 0 L-46 0 L352 700 L507 700 L608 0 L453 0 Z M258 270 L425 270 L398 537 L258 270 Z M352 762 L493 896 L685 896 L503 762 L352 762 Z " />
<glyph glyph-name="Eacute" unicode="&#xc9;" horiz-adv-x="567" d="M18 0 L166 700 L608 700 L580 570 L293 570 L261 417 L495 417 L467 287 L234 287 L201 130 L500 130 L472 0 L18 0 Z M316 762 L457 896 L649 896 L467 762 L316 762 Z " />
<glyph glyph-name="Iacute" unicode="&#xcd;" horiz-adv-x="302" d="M18 0 L166 700 L321 700 L173 0 L18 0 Z M167 762 L308 896 L500 896 L318 762 L167 762 Z " />
<glyph glyph-name="Oacute" unicode="&#xd3;" horiz-adv-x="761" d="M370 129 Q428 129 475 165 Q522 201 548 260 Q574 319 574 388 Q574 475 534 523 Q494 571 422 571 Q364 571 317 535 Q270 499 244 440 Q218 381 218 312 Q218 225 258 177 Q298 129 370 129 Z M360 -12 Q268 -12 200 27 Q132 66 96 135.5 Q60 205 60 297 Q60 417 111.5 512.5 Q163 608 247.5 660 Q332 712 432 712 Q524 712 592 673 Q660 634 696 564.5 Q732 495 732 403 Q732 283 680.5 187.5 Q629 92 544.5 40 Q460 -12 360 -12 Z M374 762 L515 896 L707 896 L525 762 L374 762 Z " />
<glyph glyph-name="Uacute" unicode="&#xda;" horiz-adv-x="680" d="M612 274 Q581 123 509 55.5 Q437 -12 303 -12 Q190 -12 125.5 44.5 Q61 101 61 199 Q61 257 77 332 L155 700 L310 700 L232 332 Q217 261 217 224 Q217 175 242 152 Q267 129 318 129 Q427 129 460 280 L549 700 L702 700 L612 274 Z M350 762 L491 896 L683 896 L501 762 L350 762 Z " />
<glyph glyph-name="Wacute" unicode="&#x1e82;" horiz-adv-x="884" d="M122 0 L111 700 L261 700 L252 209 L454 640 L583 640 L597 216 L793 700 L951 700 L642 0 L488 0 L474 422 L276 0 L122 0 Z M454 762 L595 896 L787 896 L605 762 L454 762 Z " />
<glyph glyph-name="Yacute" unicode="&#xdd;" horiz-adv-x="621" d="M231 260 L97 700 L251 700 L329 379 L543 700 L706 700 L386 263 L331 0 L176 0 L231 260 Z M321 762 L462 896 L654 896 L472 762 L321 762 Z " />
<glyph glyph-name="aacute" unicode="&#xe1;" horiz-adv-x="602" d="M370 0 L366 57 Q327 21 288 4.5 Q249 -12 203 -12 Q151 -12 112.5 15 Q74 42 53.5 89.5 Q33 137 33 198 Q33 297 72.5 375.5 Q112 454 177 497 Q242 540 320 540 Q360 540 395.5 525 Q431 510 455 482 L479 528 L589 528 L477 0 L370 0 Z M260 111 Q285 111 312.5 123.5 Q340 136 365 159 L413 388 Q371 417 328 417 Q285 417 251 390.5 Q217 364 199 319.5 Q181 275 181 221 Q181 168 201.5 139.5 Q222 111 260 111 Z M274 603 L409 759 L580 759 L415 603 L274 603 Z " />
<glyph glyph-name="eacute" unicode="&#xe9;" horiz-adv-x="545" d="M253 -12 Q148 -12 90.5 47.5 Q33 107 33 217 Q33 310 78 384 Q123 458 197 499 Q271 540 359 540 Q433 540 477.5 501.5 Q522 463 522 400 Q522 339 483.5 293.5 Q445 248 378 223.5 Q311 199 227 199 Q213 199 199.5 200 Q186 201 172 202 Q178 154 205 130.5 Q232 107 284 107 Q360 107 432 156 L457 51 Q417 20 364.5 4 Q312 -12 253 -12 Z M336 427 Q288 427 245.5 392 Q203 357 183 299 Q200 297 215 297 Q291 297 339.5 320 Q388 343 388 379 Q388 401 374 414 Q360 427 336 427 Z M270 603 L405 759 L576 759 L411 603 L270 603 Z " />
<glyph glyph-name="iacute" unicode="&#xed;" horiz-adv-x="284" d="M125 528 L271 528 L159 0 L13 0 L125 528 Z M128 603 L263 759 L434 759 L269 603 L128 603 Z " />
<glyph glyph-name="oacute" unicode="&#xf3;" horiz-adv-x="591" d="M558 311 Q558 218 517.5 143.5 Q477 69 409 28.5 Q341 -12 257 -12 Q155 -12 94 50.5 Q33 113 33 217 Q33 310 73.5 384.5 Q114 459 182 499.5 Q250 540 334 540 Q436 540 497 477.5 Q558 415 558 311 Z M271 111 Q310 111 342 137.5 Q374 164 392 206.5 Q410 249 410 296 Q410 353 386 385 Q362 417 320 417 Q281 417 249 390.5 Q217 364 199 321.5 Q181 279 181 232 Q181 175 205 143 Q229 111 271 111 Z M269 603 L404 759 L575 759 L410 603 L269 603 Z " />
<glyph glyph-name="uacute" unicode="&#xfa;" horiz-adv-x="589" d="M344 64 Q308 28 264 8 Q220 -12 175 -12 Q115 -12 78 25.5 Q41 63 41 125 Q41 161 56 231 L119 528 L265 528 L203 234 Q194 191 194 168 Q194 115 249 115 Q297 115 351 159 L430 528 L576 528 L464 0 L347 0 L344 64 Z M279 603 L414 759 L585 759 L420 603 L279 603 Z " />
<glyph glyph-name="wacute" unicode="&#x1e83;" horiz-adv-x="805" d="M66 528 L222 528 L228 183 L384 509 L514 509 L533 190 L681 528 L843 528 L568 0 L439 0 L415 344 L248 0 L119 0 L66 528 Z M383 603 L518 759 L689 759 L524 603 L383 603 Z " />
<glyph glyph-name="yacute" unicode="&#xfd;" horiz-adv-x="562" d="M24 -226 Q-37 -226 -84 -200 L-39 -87 Q-10 -103 24 -103 Q59 -103 85.5 -83 Q112 -63 142 -13 L157 12 L57 528 L216 528 L258 173 L438 528 L605 528 L279 -10 Q229 -92 190.5 -138.5 Q152 -185 113.5 -205.5 Q75 -226 24 -226 Z M256 603 L391 759 L562 759 L397 603 L256 603 Z " />
<glyph glyph-name="gravecomb" unicode="&#x300;" d="M-51 603 L-151 759 L6 759 L73 603 L-51 603 Z " />
<glyph glyph-name="grave" unicode="&#x60;" horiz-adv-x="596" d="M343 603 L243 759 L400 759 L467 603 L343 603 Z " />
<glyph glyph-name="uni02CB" unicode="&#x2cb;" horiz-adv-x="596" d="M343 603 L243 759 L400 759 L467 603 L343 603 Z " />
<glyph glyph-name="Agrave" unicode="&#xc0;" horiz-adv-x="670" d="M453 0 L438 140 L190 140 L117 0 L-46 0 L352 700 L507 700 L608 0 L453 0 Z M258 270 L425 270 L398 537 L258 270 Z M367 762 L244 895 L419 895 L502 762 L367 762 Z " />
<glyph glyph-name="Egrave" unicode="&#xc8;" horiz-adv-x="567" d="M18 0 L166 700 L608 700 L580 570 L293 570 L261 417 L495 417 L467 287 L234 287 L201 130 L500 130 L472 0 L18 0 Z M331 762 L208 895 L383 895 L466 762 L331 762 Z " />
<glyph glyph-name="Igrave" unicode="&#xcc;" horiz-adv-x="302" d="M18 0 L166 700 L321 700 L173 0 L18 0 Z M182 762 L59 895 L234 895 L317 762 L182 762 Z " />
<glyph glyph-name="Ograve" unicode="&#xd2;" horiz-adv-x="761" d="M370 129 Q428 129 475 165 Q522 201 548 260 Q574 319 574 388 Q574 475 534 523 Q494 571 422 571 Q364 571 317 535 Q270 499 244 440 Q218 381 218 312 Q218 225 258 177 Q298 129 370 129 Z M360 -12 Q268 -12 200 27 Q132 66 96 135.5 Q60 205 60 297 Q60 417 111.5 512.5 Q163 608 247.5 660 Q332 712 432 712 Q524 712 592 673 Q660 634 696 564.5 Q732 495 732 403 Q732 283 680.5 187.5 Q629 92 544.5 40 Q460 -12 360 -12 Z M389 762 L266 895 L441 895 L524 762 L389 762 Z " />
<glyph glyph-name="Ugrave" unicode="&#xd9;" horiz-adv-x="680" d="M612 274 Q581 123 509 55.5 Q437 -12 303 -12 Q190 -12 125.5 44.5 Q61 101 61 199 Q61 257 77 332 L155 700 L310 700 L232 332 Q217 261 217 224 Q217 175 242 152 Q267 129 318 129 Q427 129 460 280 L549 700 L702 700 L612 274 Z M365 762 L242 895 L417 895 L500 762 L365 762 Z " />
<glyph glyph-name="Wgrave" unicode="&#x1e80;" horiz-adv-x="884" d="M122 0 L111 700 L261 700 L252 209 L454 640 L583 640 L597 216 L793 700 L951 700 L642 0 L488 0 L474 422 L276 0 L122 0 Z M469 762 L346 895 L521 895 L604 762 L469 762 Z " />
<glyph glyph-name="Ygrave" unicode="&#x1ef2;" horiz-adv-x="621" d="M231 260 L97 700 L251 700 L329 379 L543 700 L706 700 L386 263 L331 0 L176 0 L231 260 Z M336 762 L213 895 L388 895 L471 762 L336 762 Z " />
<glyph glyph-name="agrave" unicode="&#xe0;" horiz-adv-x="602" d="M370 0 L366 57 Q327 21 288 4.5 Q249 -12 203 -12 Q151 -12 112.5 15 Q74 42 53.5 89.5 Q33 137 33 198 Q33 297 72.5 375.5 Q112 454 177 497 Q242 540 320 540 Q360 540 395.5 525 Q431 510 455 482 L479 528 L589 528 L477 0 L370 0 Z M260 111 Q285 111 312.5 123.5 Q340 136 365 159 L413 388 Q371 417 328 417 Q285 417 251 390.5 Q217 364 199 319.5 Q181 275 181 221 Q181 168 201.5 139.5 Q222 111 260 111 Z M290 603 L190 759 L347 759 L414 603 L290 603 Z " />
<glyph glyph-name="egrave" unicode="&#xe8;" horiz-adv-x="545" d="M253 -12 Q148 -12 90.5 47.5 Q33 107 33 217 Q33 310 78 384 Q123 458 197 499 Q271 540 359 540 Q433 540 477.5 501.5 Q522 463 522 400 Q522 339 483.5 293.5 Q445 248 378 223.5 Q311 199 227 199 Q213 199 199.5 200 Q186 201 172 202 Q178 154 205 130.5 Q232 107 284 107 Q360 107 432 156 L457 51 Q417 20 364.5 4 Q312 -12 253 -12 Z M336 427 Q288 427 245.5 392 Q203 357 183 299 Q200 297 215 297 Q291 297 339.5 320 Q388 343 388 379 Q388 401 374 414 Q360 427 336 427 Z M286 603 L186 759 L343 759 L410 603 L286 603 Z " />
<glyph glyph-name="igrave" unicode="&#xec;" horiz-adv-x="284" d="M125 528 L271 528 L159 0 L13 0 L125 528 Z M144 603 L44 759 L201 759 L268 603 L144 603 Z " />
<glyph glyph-name="ograve" unicode="&#xf2;" horiz-adv-x="591" d="M558 311 Q558 218 517.5 143.5 Q477 69 409 28.5 Q341 -12 257 -12 Q155 -12 94 50.5 Q33 113 33 217 Q33 310 73.5 384.5 Q114 459 182 499.5 Q250 540 334 540 Q436 540 497 477.5 Q558 415 558 311 Z M271 111 Q310 111 342 137.5 Q374 164 392 206.5 Q410 249 410 296 Q410 353 386 385 Q362 417 320 417 Q281 417 249 390.5 Q217 364 199 321.5 Q181 279 181 232 Q181 175 205 143 Q229 111 271 111 Z M285 603 L185 759 L342 759 L409 603 L285 603 Z " />
<glyph glyph-name="ugrave" unicode="&#xf9;" horiz-adv-x="589" d="M344 64 Q308 28 264 8 Q220 -12 175 -12 Q115 -12 78 25.5 Q41 63 41 125 Q41 161 56 231 L119 528 L265 528 L203 234 Q194 191 194 168 Q194 115 249 115 Q297 115 351 159 L430 528 L576 528 L464 0 L347 0 L344 64 Z M295 603 L195 759 L352 759 L419 603 L295 603 Z " />
<glyph glyph-name="wgrave" unicode="&#x1e81;" horiz-adv-x="805" d="M66 528 L222 528 L228 183 L384 509 L514 509 L533 190 L681 528 L843 528 L568 0 L439 0 L415 344 L248 0 L119 0 L66 528 Z M399 603 L299 759 L456 759 L523 603 L399 603 Z " />
<glyph glyph-name="ygrave" unicode="&#x1ef3;" horiz-adv-x="562" d="M24 -226 Q-37 -226 -84 -200 L-39 -87 Q-10 -103 24 -103 Q59 -103 85.5 -83 Q112 -63 142 -13 L157 12 L57 528 L216 528 L258 173 L438 528 L605 528 L279 -10 Q229 -92 190.5 -138.5 Q152 -185 113.5 -205.5 Q75 -226 24 -226 Z M272 603 L172 759 L329 759 L396 603 L272 603 Z " />
<glyph glyph-name="uni0302" unicode="&#x302;" d="M-174 604 L-21 759 L104 759 L192 604 L78 604 L31 676 L-47 604 L-174 604 Z " />
<glyph glyph-name="circumflex" unicode="&#x2c6;" horiz-adv-x="596" d="M178 604 L331 759 L456 759 L544 604 L430 604 L383 676 L305 604 L178 604 Z " />
<glyph glyph-name="tildecomb" unicode="&#x303;" d="M-163 616 Q-150 684 -115 723.5 Q-80 763 -33 763 Q-11 763 6.5 756 Q24 749 46 732 Q63 719 72.5 714 Q82 709 92 709 Q104 709 114 722 Q124 735 129 758 L222 758 Q209 690 174 650.5 Q139 611 92 611 Q70 611 52.5 618 Q35 625 13 642 Q-4 655 -13.5 660 Q-23 665 -33 665 Q-45 665 -55 652 Q-65 639 -70 616 L-163 616 Z " />
<glyph glyph-name="tilde" unicode="&#x2dc;" horiz-adv-x="596" d="M187 616 Q200 684 235 723.5 Q270 763 317 763 Q339 763 356.5 756 Q374 749 396 732 Q413 719 422.5 714 Q432 709 442 709 Q454 709 464 722 Q474 735 479 758 L572 758 Q559 690 524 650.5 Q489 611 442 611 Q420 611 402.5 618 Q385 625 363 642 Q346 655 336.5 660 Q327 665 317 665 Q305 665 295 652 Q285 639 280 616 L187 616 Z " />
<glyph glyph-name="Acircumflex" unicode="&#xc2;" horiz-adv-x="670" d="M453 0 L438 140 L190 140 L117 0 L-46 0 L352 700 L507 700 L608 0 L453 0 Z M258 270 L425 270 L398 537 L258 270 Z M233 763 L392 896 L529 896 L632 763 L506 763 L451 822 L371 763 L233 763 Z " />
<glyph glyph-name="Ecircumflex" unicode="&#xca;" horiz-adv-x="567" d="M18 0 L166 700 L608 700 L580 570 L293 570 L261 417 L495 417 L467 287 L234 287 L201 130 L500 130 L472 0 L18 0 Z M197 763 L356 896 L493 896 L596 763 L470 763 L415 822 L335 763 L197 763 Z " />
<glyph glyph-name="Icircumflex" unicode="&#xce;" horiz-adv-x="302" d="M18 0 L166 700 L321 700 L173 0 L18 0 Z M48 763 L207 896 L344 896 L447 763 L321 763 L266 822 L186 763 L48 763 Z " />
<glyph glyph-name="Ocircumflex" unicode="&#xd4;" horiz-adv-x="761" d="M370 129 Q428 129 475 165 Q522 201 548 260 Q574 319 574 388 Q574 475 534 523 Q494 571 422 571 Q364 571 317 535 Q270 499 244 440 Q218 381 218 312 Q218 225 258 177 Q298 129 370 129 Z M360 -12 Q268 -12 200 27 Q132 66 96 135.5 Q60 205 60 297 Q60 417 111.5 512.5 Q163 608 247.5 660 Q332 712 432 712 Q524 712 592 673 Q660 634 696 564.5 Q732 495 732 403 Q732 283 680.5 187.5 Q629 92 544.5 40 Q460 -12 360 -12 Z M255 763 L414 896 L551 896 L654 763 L528 763 L473 822 L393 763 L255 763 Z " />
<glyph glyph-name="Ucircumflex" unicode="&#xdb;" horiz-adv-x="680" d="M612 274 Q581 123 509 55.5 Q437 -12 303 -12 Q190 -12 125.5 44.5 Q61 101 61 199 Q61 257 77 332 L155 700 L310 700 L232 332 Q217 261 217 224 Q217 175 242 152 Q267 129 318 129 Q427 129 460 280 L549 700 L702 700 L612 274 Z M231 763 L390 896 L527 896 L630 763 L504 763 L449 822 L369 763 L231 763 Z " />
<glyph glyph-name="Wcircumflex" unicode="&#x174;" horiz-adv-x="884" d="M122 0 L111 700 L261 700 L252 209 L454 640 L583 640 L597 216 L793 700 L951 700 L642 0 L488 0 L474 422 L276 0 L122 0 Z M335 763 L494 896 L631 896 L734 763 L608 763 L553 822 L473 763 L335 763 Z " />
<glyph glyph-name="Ycircumflex" unicode="&#x176;" horiz-adv-x="621" d="M231 260 L97 700 L251 700 L329 379 L543 700 L706 700 L386 263 L331 0 L176 0 L231 260 Z M202 763 L361 896 L498 896 L601 763 L475 763 L420 822 L340 763 L202 763 Z " />
<glyph glyph-name="Atilde" unicode="&#xc3;" horiz-adv-x="670" d="M453 0 L438 140 L190 140 L117 0 L-46 0 L352 700 L507 700 L608 0 L453 0 Z M258 270 L425 270 L398 537 L258 270 Z M250 762 Q262 829 296.5 868 Q331 907 377 907 Q400 907 418.5 900 Q437 893 463 875 Q481 862 490.5 857.5 Q500 853 511 853 Q525 853 536 866.5 Q547 880 551 901 L647 901 Q635 834 600.5 795 Q566 756 520 756 Q497 756 478.5 763 Q460 770 434 788 Q416 801 406.5 805.5 Q397 810 386 810 Q372 810 361 796.5 Q350 783 346 762 L250 762 Z " />
<glyph glyph-name="Ntilde" unicode="&#xd1;" horiz-adv-x="701" d="M18 0 L166 700 L306 700 L476 250 L571 700 L720 700 L572 0 L432 0 L262 450 L167 0 L18 0 Z M264 762 Q276 829 310.5 868 Q345 907 391 907 Q414 907 432.5 900 Q451 893 477 875 Q495 862 504.5 857.5 Q514 853 525 853 Q539 853 550 866.5 Q561 880 565 901 L661 901 Q649 834 614.5 795 Q580 756 534 756 Q511 756 492.5 763 Q474 770 448 788 Q430 801 420.5 805.5 Q411 810 400 810 Q386 810 375 796.5 Q364 783 360 762 L264 762 Z " />
<glyph glyph-name="Otilde" unicode="&#xd5;" horiz-adv-x="761" d="M370 129 Q428 129 475 165 Q522 201 548 260 Q574 319 574 388 Q574 475 534 523 Q494 571 422 571 Q364 571 317 535 Q270 499 244 440 Q218 381 218 312 Q218 225 258 177 Q298 129 370 129 Z M360 -12 Q268 -12 200 27 Q132 66 96 135.5 Q60 205 60 297 Q60 417 111.5 512.5 Q163 608 247.5 660 Q332 712 432 712 Q524 712 592 673 Q660 634 696 564.5 Q732 495 732 403 Q732 283 680.5 187.5 Q629 92 544.5 40 Q460 -12 360 -12 Z M272 762 Q284 829 318.5 868 Q353 907 399 907 Q422 907 440.5 900 Q459 893 485 875 Q503 862 512.5 857.5 Q522 853 533 853 Q547 853 558 866.5 Q569 880 573 901 L669 901 Q657 834 622.5 795 Q588 756 542 756 Q519 756 500.5 763 Q482 770 456 788 Q438 801 428.5 805.5 Q419 810 408 810 Q394 810 383 796.5 Q372 783 368 762 L272 762 Z " />
<glyph glyph-name="acircumflex" unicode="&#xe2;" horiz-adv-x="602" d="M370 0 L366 57 Q327 21 288 4.5 Q249 -12 203 -12 Q151 -12 112.5 15 Q74 42 53.5 89.5 Q33 137 33 198 Q33 297 72.5 375.5 Q112 454 177 497 Q242 540 320 540 Q360 540 395.5 525 Q431 510 455 482 L479 528 L589 528 L477 0 L370 0 Z M260 111 Q285 111 312.5 123.5 Q340 136 365 159 L413 388 Q371 417 328 417 Q285 417 251 390.5 Q217 364 199 319.5 Q181 275 181 221 Q181 168 201.5 139.5 Q222 111 260 111 Z M167 604 L320 759 L445 759 L533 604 L419 604 L372 676 L294 604 L167 604 Z " />
<glyph glyph-name="ecircumflex" unicode="&#xea;" horiz-adv-x="545" d="M253 -12 Q148 -12 90.5 47.5 Q33 107 33 217 Q33 310 78 384 Q123 458 197 499 Q271 540 359 540 Q433 540 477.5 501.5 Q522 463 522 400 Q522 339 483.5 293.5 Q445 248 378 223.5 Q311 199 227 199 Q213 199 199.5 200 Q186 201 172 202 Q178 154 205 130.5 Q232 107 284 107 Q360 107 432 156 L457 51 Q417 20 364.5 4 Q312 -12 253 -12 Z M336 427 Q288 427 245.5 392 Q203 357 183 299 Q200 297 215 297 Q291 297 339.5 320 Q388 343 388 379 Q388 401 374 414 Q360 427 336 427 Z M163 604 L316 759 L441 759 L529 604 L415 604 L368 676 L290 604 L163 604 Z " />
<glyph glyph-name="icircumflex" unicode="&#xee;" horiz-adv-x="284" d="M125 528 L271 528 L159 0 L13 0 L125 528 Z M21 604 L174 759 L299 759 L387 604 L273 604 L226 676 L148 604 L21 604 Z " />
<glyph glyph-name="ocircumflex" unicode="&#xf4;" horiz-adv-x="591" d="M558 311 Q558 218 517.5 143.5 Q477 69 409 28.5 Q341 -12 257 -12 Q155 -12 94 50.5 Q33 113 33 217 Q33 310 73.5 384.5 Q114 459 182 499.5 Q250 540 334 540 Q436 540 497 477.5 Q558 415 558 311 Z M271 111 Q310 111 342 137.5 Q374 164 392 206.5 Q410 249 410 296 Q410 353 386 385 Q362 417 320 417 Q281 417 249 390.5 Q217 364 199 321.5 Q181 279 181 232 Q181 175 205 143 Q229 111 271 111 Z M162 604 L315 759 L440 759 L528 604 L414 604 L367 676 L289 604 L162 604 Z " />
<glyph glyph-name="ucircumflex" unicode="&#xfb;" horiz-adv-x="589" d="M344 64 Q308 28 264 8 Q220 -12 175 -12 Q115 -12 78 25.5 Q41 63 41 125 Q41 161 56 231 L119 528 L265 528 L203 234 Q194 191 194 168 Q194 115 249 115 Q297 115 351 159 L430 528 L576 528 L464 0 L347 0 L344 64 Z M172 604 L325 759 L450 759 L538 604 L424 604 L377 676 L299 604 L172 604 Z " />
<glyph glyph-name="wcircumflex" unicode="&#x175;" horiz-adv-x="805" d="M66 528 L222 528 L228 183 L384 509 L514 509 L533 190 L681 528 L843 528 L568 0 L439 0 L415 344 L248 0 L119 0 L66 528 Z M276 604 L429 759 L554 759 L642 604 L528 604 L481 676 L403 604 L276 604 Z " />
<glyph glyph-name="ycircumflex" unicode="&#x177;" horiz-adv-x="562" d="M24 -226 Q-37 -226 -84 -200 L-39 -87 Q-10 -103 24 -103 Q59 -103 85.5 -83 Q112 -63 142 -13 L157 12 L57 528 L216 528 L258 173 L438 528 L605 528 L279 -10 Q229 -92 190.5 -138.5 Q152 -185 113.5 -205.5 Q75 -226 24 -226 Z M149 604 L302 759 L427 759 L515 604 L401 604 L354 676 L276 604 L149 604 Z " />
<glyph glyph-name="atilde" unicode="&#xe3;" horiz-adv-x="602" d="M370 0 L366 57 Q327 21 288 4.5 Q249 -12 203 -12 Q151 -12 112.5 15 Q74 42 53.5 89.5 Q33 137 33 198 Q33 297 72.5 375.5 Q112 454 177 497 Q242 540 320 540 Q360 540 395.5 525 Q431 510 455 482 L479 528 L589 528 L477 0 L370 0 Z M260 111 Q285 111 312.5 123.5 Q340 136 365 159 L413 388 Q371 417 328 417 Q285 417 251 390.5 Q217 364 199 319.5 Q181 275 181 221 Q181 168 201.5 139.5 Q222 111 260 111 Z M178 616 Q191 684 226 723.5 Q261 763 308 763 Q330 763 347.5 756 Q365 749 387 732 Q404 719 413.5 714 Q423 709 433 709 Q445 709 455 722 Q465 735 470 758 L563 758 Q550 690 515 650.5 Q480 611 433 611 Q411 611 393.5 618 Q376 625 354 642 Q337 655 327.5 660 Q318 665 308 665 Q296 665 286 652 Q276 639 271 616 L178 616 Z " />
<glyph glyph-name="ntilde" unicode="&#xf1;" horiz-adv-x="596" d="M247 465 Q284 502 327.5 521 Q371 540 416 540 Q478 540 515.5 502.5 Q553 465 553 403 Q553 367 538 297 L475 0 L329 0 L391 294 Q400 338 400 360 Q400 413 342 413 Q292 413 237 368 L159 0 L13 0 L125 528 L247 528 L247 465 Z M190 616 Q203 684 238 723.5 Q273 763 320 763 Q342 763 359.5 756 Q377 749 399 732 Q416 719 425.5 714 Q435 709 445 709 Q457 709 467 722 Q477 735 482 758 L575 758 Q562 690 527 650.5 Q492 611 445 611 Q423 611 405.5 618 Q388 625 366 642 Q349 655 339.5 660 Q330 665 320 665 Q308 665 298 652 Q288 639 283 616 L190 616 Z " />
<glyph glyph-name="otilde" unicode="&#xf5;" horiz-adv-x="591" d="M558 311 Q558 218 517.5 143.5 Q477 69 409 28.5 Q341 -12 257 -12 Q155 -12 94 50.5 Q33 113 33 217 Q33 310 73.5 384.5 Q114 459 182 499.5 Q250 540 334 540 Q436 540 497 477.5 Q558 415 558 311 Z M271 111 Q310 111 342 137.5 Q374 164 392 206.5 Q410 249 410 296 Q410 353 386 385 Q362 417 320 417 Q281 417 249 390.5 Q217 364 199 321.5 Q181 279 181 232 Q181 175 205 143 Q229 111 271 111 Z M173 616 Q186 684 221 723.5 Q256 763 303 763 Q325 763 342.5 756 Q360 749 382 732 Q399 719 408.5 714 Q418 709 428 709 Q440 709 450 722 Q460 735 465 758 L558 758 Q545 690 510 650.5 Q475 611 428 611 Q406 611 388.5 618 Q371 625 349 642 Q332 655 322.5 660 Q313 665 303 665 Q291 665 281 652 Q271 639 266 616 L173 616 Z " />
<glyph glyph-name="uni030C" unicode="&#x30c;" d="M227 759 L74 604 L-51 604 L-139 759 L-25 759 L22 687 L100 759 L227 759 Z " />
<glyph glyph-name="caron" unicode="&#x2c7;" horiz-adv-x="596" d="M577 759 L424 604 L299 604 L211 759 L325 759 L372 687 L450 759 L577 759 Z " />
<glyph glyph-name="Scaron" unicode="&#x160;" horiz-adv-x="598" d="M255 -12 Q182 -12 117.5 7 Q53 26 7 60 L56 183 Q96 158 148 142.5 Q200 127 245 127 Q306 127 341 148.5 Q376 170 376 207 Q376 225 368 237.5 Q360 250 338.5 263 Q317 276 269 296 L245 306 Q175 335 141 380.5 Q107 426 107 490 Q107 559 140.5 609 Q174 659 234.5 685.5 Q295 712 374 712 Q435 712 493.5 695.5 Q552 679 593 651 L544 527 Q459 573 373 573 Q322 573 293.5 554 Q265 535 265 502 Q265 478 280.5 462.5 Q296 447 338 429 L362 419 Q459 379 496.5 335 Q534 291 534 223 Q534 152 498.5 98.5 Q463 45 400.5 16.5 Q338 -12 255 -12 Z M626 896 L467 763 L330 763 L227 896 L353 896 L408 837 L488 896 L626 896 Z " />
<glyph glyph-name="Zcaron" unicode="&#x17d;" horiz-adv-x="600" d="M-11 0 L16 125 L411 563 L114 563 L143 700 L631 700 L604 575 L209 137 L529 137 L501 0 L-11 0 Z M621 896 L462 763 L325 763 L222 896 L348 896 L403 837 L483 896 L621 896 Z " />
<glyph glyph-name="scaron" unicode="&#x161;" horiz-adv-x="497" d="M209 -12 Q148 -12 97.5 2.5 Q47 17 2 47 L50 153 Q131 107 209 107 Q247 107 268.5 120 Q290 133 290 155 Q290 171 275.5 182.5 Q261 194 221 210 L201 218 Q130 247 103 278 Q76 309 76 360 Q76 439 141 489.5 Q206 540 309 540 Q405 540 482 492 L435 385 Q375 421 304 421 Q266 421 243.5 408.5 Q221 396 221 376 Q221 362 233.5 352.5 Q246 343 280 329 L300 321 Q374 291 404.5 258 Q435 225 435 175 Q435 120 404.5 77 Q374 34 323 11 Q272 -12 209 -12 Z M534 759 L381 604 L256 604 L168 759 L282 759 L329 687 L407 759 L534 759 Z " />
<glyph glyph-name="zcaron" unicode="&#x17e;" horiz-adv-x="518" d="M13 104 L320 415 L88 415 L112 528 L519 528 L497 424 L190 113 L439 113 L415 0 L-9 0 L13 104 Z M539 759 L386 604 L261 604 L173 759 L287 759 L334 687 L412 759 L539 759 Z " />
<glyph glyph-name="uni0308" unicode="&#x308;" d="M-145 672 Q-145 705 -120 728 Q-95 751 -59 751 Q-31 751 -13.5 733.5 Q4 716 4 690 Q4 657 -21 634 Q-46 611 -82 611 Q-110 611 -127.5 628.5 Q-145 646 -145 672 Z M52 672 Q52 705 77 728 Q102 751 138 751 Q166 751 183.5 733.5 Q201 716 201 690 Q201 657 176 634 Q151 611 115 611 Q87 611 69.5 628.5 Q52 646 52 672 Z " />
<glyph glyph-name="dieresis" unicode="&#xa8;" horiz-adv-x="596" d="M206 672 Q206 705 231 728 Q256 751 292 751 Q320 751 337.5 733.5 Q355 716 355 690 Q355 657 330 634 Q305 611 269 611 Q241 611 223.5 628.5 Q206 646 206 672 Z M403 672 Q403 705 428 728 Q453 751 489 751 Q517 751 534.5 733.5 Q552 716 552 690 Q552 657 527 634 Q502 611 466 611 Q438 611 420.5 628.5 Q403 646 403 672 Z " />
<glyph glyph-name="uni0306" unicode="&#x306;" d="M15 600 Q-47 600 -84.5 635 Q-122 670 -122 726 Q-122 738 -121 750 L-26 750 L-26 744 Q-26 720 -12 707 Q2 694 27 694 Q53 694 73 710 Q93 726 98 750 L194 750 Q182 681 134 640.5 Q86 600 15 600 Z " />
<glyph glyph-name="breve" unicode="&#x2d8;" horiz-adv-x="596" d="M364 600 Q302 600 264.5 635 Q227 670 227 726 Q227 738 228 750 L323 750 L323 744 Q323 720 337 707 Q351 694 376 694 Q402 694 422 710 Q442 726 447 750 L543 750 Q531 681 483 640.5 Q435 600 364 600 Z " />
<glyph glyph-name="Adieresis" unicode="&#xc4;" horiz-adv-x="670" d="M453 0 L438 140 L190 140 L117 0 L-46 0 L352 700 L507 700 L608 0 L453 0 Z M258 270 L425 270 L398 537 L258 270 Z M268 826 Q268 861 294 885 Q320 909 357 909 Q386 909 404.5 891.5 Q423 874 423 846 Q423 811 397 787 Q371 763 334 763 Q305 763 286.5 780.5 Q268 798 268 826 Z M476 826 Q476 861 502 885 Q528 909 565 909 Q594 909 612.5 891.5 Q631 874 631 846 Q631 811 605 787 Q579 763 542 763 Q513 763 494.5 780.5 Q476 798 476 826 Z " />
<glyph glyph-name="Edieresis" unicode="&#xcb;" horiz-adv-x="567" d="M18 0 L166 700 L608 700 L580 570 L293 570 L261 417 L495 417 L467 287 L234 287 L201 130 L500 130 L472 0 L18 0 Z M232 826 Q232 861 258 885 Q284 909 321 909 Q350 909 368.5 891.5 Q387 874 387 846 Q387 811 361 787 Q335 763 298 763 Q269 763 250.5 780.5 Q232 798 232 826 Z M440 826 Q440 861 466 885 Q492 909 529 909 Q558 909 576.5 891.5 Q595 874 595 846 Q595 811 569 787 Q543 763 506 763 Q477 763 458.5 780.5 Q440 798 440 826 Z " />
<glyph glyph-name="Idieresis" unicode="&#xcf;" horiz-adv-x="302" d="M18 0 L166 700 L321 700 L173 0 L18 0 Z M83 826 Q83 861 109 885 Q135 909 172 909 Q201 909 219.5 891.5 Q238 874 238 846 Q238 811 212 787 Q186 763 149 763 Q120 763 101.5 780.5 Q83 798 83 826 Z M291 826 Q291 861 317 885 Q343 909 380 909 Q409 909 427.5 891.5 Q446 874 446 846 Q446 811 420 787 Q394 763 357 763 Q328 763 309.5 780.5 Q291 798 291 826 Z " />
<glyph glyph-name="Odieresis" unicode="&#xd6;" horiz-adv-x="761" d="M370 129 Q428 129 475 165 Q522 201 548 260 Q574 319 574 388 Q574 475 534 523 Q494 571 422 571 Q364 571 317 535 Q270 499 244 440 Q218 381 218 312 Q218 225 258 177 Q298 129 370 129 Z M360 -12 Q268 -12 200 27 Q132 66 96 135.5 Q60 205 60 297 Q60 417 111.5 512.5 Q163 608 247.5 660 Q332 712 432 712 Q524 712 592 673 Q660 634 696 564.5 Q732 495 732 403 Q732 283 680.5 187.5 Q629 92 544.5 40 Q460 -12 360 -12 Z M290 826 Q290 861 316 885 Q342 909 379 909 Q408 909 426.5 891.5 Q445 874 445 846 Q445 811 419 787 Q393 763 356 763 Q327 763 308.5 780.5 Q290 798 290 826 Z M498 826 Q498 861 524 885 Q550 909 587 909 Q616 909 634.5 891.5 Q653 874 653 846 Q653 811 627 787 Q601 763 564 763 Q535 763 516.5 780.5 Q498 798 498 826 Z " />
<glyph glyph-name="Udieresis" unicode="&#xdc;" horiz-adv-x="680" d="M612 274 Q581 123 509 55.5 Q437 -12 303 -12 Q190 -12 125.5 44.5 Q61 101 61 199 Q61 257 77 332 L155 700 L310 700 L232 332 Q217 261 217 224 Q217 175 242 152 Q267 129 318 129 Q427 129 460 280 L549 700 L702 700 L612 274 Z M266 826 Q266 861 292 885 Q318 909 355 909 Q384 909 402.5 891.5 Q421 874 421 846 Q421 811 395 787 Q369 763 332 763 Q303 763 284.5 780.5 Q266 798 266 826 Z M474 826 Q474 861 500 885 Q526 909 563 909 Q592 909 610.5 891.5 Q629 874 629 846 Q629 811 603 787 Q577 763 540 763 Q511 763 492.5 780.5 Q474 798 474 826 Z " />
<glyph glyph-name="Wdieresis" unicode="&#x1e84;" horiz-adv-x="884" d="M122 0 L111 700 L261 700 L252 209 L454 640 L583 640 L597 216 L793 700 L951 700 L642 0 L488 0 L474 422 L276 0 L122 0 Z M370 826 Q370 861 396 885 Q422 909 459 909 Q488 909 506.5 891.5 Q525 874 525 846 Q525 811 499 787 Q473 763 436 763 Q407 763 388.5 780.5 Q370 798 370 826 Z M578 826 Q578 861 604 885 Q630 909 667 909 Q696 909 714.5 891.5 Q733 874 733 846 Q733 811 707 787 Q681 763 644 763 Q615 763 596.5 780.5 Q578 798 578 826 Z " />
<glyph glyph-name="Ydieresis" unicode="&#x178;" horiz-adv-x="621" d="M231 260 L97 700 L251 700 L329 379 L543 700 L706 700 L386 263 L331 0 L176 0 L231 260 Z M237 826 Q237 861 263 885 Q289 909 326 909 Q355 909 373.5 891.5 Q392 874 392 846 Q392 811 366 787 Q340 763 303 763 Q274 763 255.5 780.5 Q237 798 237 826 Z M445 826 Q445 861 471 885 Q497 909 534 909 Q563 909 581.5 891.5 Q600 874 600 846 Q600 811 574 787 Q548 763 511 763 Q482 763 463.5 780.5 Q445 798 445 826 Z " />
<glyph glyph-name="Abreve" unicode="&#x102;" horiz-adv-x="670" d="M453 0 L438 140 L190 140 L117 0 L-46 0 L352 700 L507 700 L608 0 L453 0 Z M258 270 L425 270 L398 537 L258 270 Z M433 757 Q369 757 330 791.5 Q291 826 291 883 Q291 894 292 903 L396 903 L396 898 Q396 847 448 847 Q473 847 491.5 862.5 Q510 878 515 903 L619 903 Q606 834 556.5 795.5 Q507 757 433 757 Z " />
<glyph glyph-name="adieresis" unicode="&#xe4;" horiz-adv-x="602" d="M370 0 L366 57 Q327 21 288 4.5 Q249 -12 203 -12 Q151 -12 112.5 15 Q74 42 53.5 89.5 Q33 137 33 198 Q33 297 72.5 375.5 Q112 454 177 497 Q242 540 320 540 Q360 540 395.5 525 Q431 510 455 482 L479 528 L589 528 L477 0 L370 0 Z M260 111 Q285 111 312.5 123.5 Q340 136 365 159 L413 388 Q371 417 328 417 Q285 417 251 390.5 Q217 364 199 319.5 Q181 275 181 221 Q181 168 201.5 139.5 Q222 111 260 111 Z M196 672 Q196 705 221 728 Q246 751 282 751 Q310 751 327.5 733.5 Q345 716 345 690 Q345 657 320 634 Q295 611 259 611 Q231 611 213.5 628.5 Q196 646 196 672 Z M393 672 Q393 705 418 728 Q443 751 479 751 Q507 751 524.5 733.5 Q542 716 542 690 Q542 657 517 634 Q492 611 456 611 Q428 611 410.5 628.5 Q393 646 393 672 Z " />
<glyph glyph-name="edieresis" unicode="&#xeb;" horiz-adv-x="545" d="M253 -12 Q148 -12 90.5 47.5 Q33 107 33 217 Q33 310 78 384 Q123 458 197 499 Q271 540 359 540 Q433 540 477.5 501.5 Q522 463 522 400 Q522 339 483.5 293.5 Q445 248 378 223.5 Q311 199 227 199 Q213 199 199.5 200 Q186 201 172 202 Q178 154 205 130.5 Q232 107 284 107 Q360 107 432 156 L457 51 Q417 20 364.5 4 Q312 -12 253 -12 Z M336 427 Q288 427 245.5 392 Q203 357 183 299 Q200 297 215 297 Q291 297 339.5 320 Q388 343 388 379 Q388 401 374 414 Q360 427 336 427 Z M192 672 Q192 705 217 728 Q242 751 278 751 Q306 751 323.5 733.5 Q341 716 341 690 Q341 657 316 634 Q291 611 255 611 Q227 611 209.5 628.5 Q192 646 192 672 Z M389 672 Q389 705 414 728 Q439 751 475 751 Q503 751 520.5 733.5 Q538 716 538 690 Q538 657 513 634 Q488 611 452 611 Q424 611 406.5 628.5 Q389 646 389 672 Z " />
<glyph glyph-name="idieresis" unicode="&#xef;" horiz-adv-x="284" d="M125 528 L271 528 L159 0 L13 0 L125 528 Z M50 672 Q50 705 75 728 Q100 751 136 751 Q164 751 181.5 733.5 Q199 716 199 690 Q199 657 174 634 Q149 611 113 611 Q85 611 67.5 628.5 Q50 646 50 672 Z M247 672 Q247 705 272 728 Q297 751 333 751 Q361 751 378.5 733.5 Q396 716 396 690 Q396 657 371 634 Q346 611 310 611 Q282 611 264.5 628.5 Q247 646 247 672 Z " />
<glyph glyph-name="odieresis" unicode="&#xf6;" horiz-adv-x="591" d="M558 311 Q558 218 517.5 143.5 Q477 69 409 28.5 Q341 -12 257 -12 Q155 -12 94 50.5 Q33 113 33 217 Q33 310 73.5 384.5 Q114 459 182 499.5 Q250 540 334 540 Q436 540 497 477.5 Q558 415 558 311 Z M271 111 Q310 111 342 137.5 Q374 164 392 206.5 Q410 249 410 296 Q410 353 386 385 Q362 417 320 417 Q281 417 249 390.5 Q217 364 199 321.5 Q181 279 181 232 Q181 175 205 143 Q229 111 271 111 Z M191 672 Q191 705 216 728 Q241 751 277 751 Q305 751 322.5 733.5 Q340 716 340 690 Q340 657 315 634 Q290 611 254 611 Q226 611 208.5 628.5 Q191 646 191 672 Z M388 672 Q388 705 413 728 Q438 751 474 751 Q502 751 519.5 733.5 Q537 716 537 690 Q537 657 512 634 Q487 611 451 611 Q423 611 405.5 628.5 Q388 646 388 672 Z " />
<glyph glyph-name="udieresis" unicode="&#xfc;" horiz-adv-x="589" d="M344 64 Q308 28 264 8 Q220 -12 175 -12 Q115 -12 78 25.5 Q41 63 41 125 Q41 161 56 231 L119 528 L265 528 L203 234 Q194 191 194 168 Q194 115 249 115 Q297 115 351 159 L430 528 L576 528 L464 0 L347 0 L344 64 Z M201 672 Q201 705 226 728 Q251 751 287 751 Q315 751 332.5 733.5 Q350 716 350 690 Q350 657 325 634 Q300 611 264 611 Q236 611 218.5 628.5 Q201 646 201 672 Z M398 672 Q398 705 423 728 Q448 751 484 751 Q512 751 529.5 733.5 Q547 716 547 690 Q547 657 522 634 Q497 611 461 611 Q433 611 415.5 628.5 Q398 646 398 672 Z " />
<glyph glyph-name="wdieresis" unicode="&#x1e85;" horiz-adv-x="805" d="M66 528 L222 528 L228 183 L384 509 L514 509 L533 190 L681 528 L843 528 L568 0 L439 0 L415 344 L248 0 L119 0 L66 528 Z M305 672 Q305 705 330 728 Q355 751 391 751 Q419 751 436.5 733.5 Q454 716 454 690 Q454 657 429 634 Q404 611 368 611 Q340 611 322.5 628.5 Q305 646 305 672 Z M502 672 Q502 705 527 728 Q552 751 588 751 Q616 751 633.5 733.5 Q651 716 651 690 Q651 657 626 634 Q601 611 565 611 Q537 611 519.5 628.5 Q502 646 502 672 Z " />
<glyph glyph-name="ydieresis" unicode="&#xff;" horiz-adv-x="562" d="M24 -226 Q-37 -226 -84 -200 L-39 -87 Q-10 -103 24 -103 Q59 -103 85.5 -83 Q112 -63 142 -13 L157 12 L57 528 L216 528 L258 173 L438 528 L605 528 L279 -10 Q229 -92 190.5 -138.5 Q152 -185 113.5 -205.5 Q75 -226 24 -226 Z M178 672 Q178 705 203 728 Q228 751 264 751 Q292 751 309.5 733.5 Q327 716 327 690 Q327 657 302 634 Q277 611 241 611 Q213 611 195.5 628.5 Q178 646 178 672 Z M375 672 Q375 705 400 728 Q425 751 461 751 Q489 751 506.5 733.5 Q524 716 524 690 Q524 657 499 634 Q474 611 438 611 Q410 611 392.5 628.5 Q375 646 375 672 Z " />
<glyph glyph-name="abreve" unicode="&#x103;" horiz-adv-x="602" d="M370 0 L366 57 Q327 21 288 4.5 Q249 -12 203 -12 Q151 -12 112.5 15 Q74 42 53.5 89.5 Q33 137 33 198 Q33 297 72.5 375.5 Q112 454 177 497 Q242 540 320 540 Q360 540 395.5 525 Q431 510 455 482 L479 528 L589 528 L477 0 L370 0 Z M260 111 Q285 111 312.5 123.5 Q340 136 365 159 L413 388 Q371 417 328 417 Q285 417 251 390.5 Q217 364 199 319.5 Q181 275 181 221 Q181 168 201.5 139.5 Q222 111 260 111 Z M356 600 Q294 600 256.5 635 Q219 670 219 726 Q219 738 220 750 L315 750 L315 744 Q315 720 329 707 Q343 694 368 694 Q394 694 414 710 Q434 726 439 750 L535 750 Q523 681 475 640.5 Q427 600 356 600 Z " />
<glyph glyph-name="uni030A" unicode="&#x30a;" d="M13 580 Q-34 580 -63 609 Q-92 638 -92 684 Q-92 740 -50.5 778.5 Q-9 817 51 817 Q98 817 127 788 Q156 759 156 713 Q156 657 114.5 618.5 Q73 580 13 580 Z M25 651 Q47 651 62.5 666.5 Q78 682 78 704 Q78 722 67 734 Q56 746 39 746 Q17 746 1.5 730.5 Q-14 715 -14 693 Q-14 675 -3 663 Q8 651 25 651 Z " />
<glyph glyph-name="ring" unicode="&#x2da;" horiz-adv-x="596" d="M363 580 Q316 580 287 609 Q258 638 258 684 Q258 740 299.5 778.5 Q341 817 401 817 Q448 817 477 788 Q506 759 506 713 Q506 657 464.5 618.5 Q423 580 363 580 Z M375 651 Q397 651 412.5 666.5 Q428 682 428 704 Q428 722 417 734 Q406 746 389 746 Q367 746 351.5 730.5 Q336 715 336 693 Q336 675 347 663 Q358 651 375 651 Z " />
<glyph glyph-name="Aring" unicode="&#xc5;" horiz-adv-x="670" d="M453 0 L438 140 L190 140 L117 0 L-46 0 L352 700 L507 700 L608 0 L453 0 Z M258 270 L425 270 L398 537 L258 270 Z M437 748 Q390 748 360.5 777 Q331 806 331 853 Q331 909 373 948 Q415 987 475 987 Q522 987 551.5 958 Q581 929 581 882 Q581 826 539 787 Q497 748 437 748 Z M449 821 Q470 821 485.5 836 Q501 851 501 873 Q501 891 490 902.5 Q479 914 463 914 Q442 914 426.5 899 Q411 884 411 862 Q411 844 422 832.5 Q433 821 449 821 Z " />
<glyph glyph-name="aring" unicode="&#xe5;" horiz-adv-x="602" d="M370 0 L366 57 Q327 21 288 4.5 Q249 -12 203 -12 Q151 -12 112.5 15 Q74 42 53.5 89.5 Q33 137 33 198 Q33 297 72.5 375.5 Q112 454 177 497 Q242 540 320 540 Q360 540 395.5 525 Q431 510 455 482 L479 528 L589 528 L477 0 L370 0 Z M260 111 Q285 111 312.5 123.5 Q340 136 365 159 L413 388 Q371 417 328 417 Q285 417 251 390.5 Q217 364 199 319.5 Q181 275 181 221 Q181 168 201.5 139.5 Q222 111 260 111 Z M354 580 Q307 580 278 609 Q249 638 249 684 Q249 740 290.5 778.5 Q332 817 392 817 Q439 817 468 788 Q497 759 497 713 Q497 657 455.5 618.5 Q414 580 354 580 Z M366 651 Q388 651 403.5 666.5 Q419 682 419 704 Q419 722 408 734 Q397 746 380 746 Q358 746 342.5 730.5 Q327 715 327 693 Q327 675 338 663 Q349 651 366 651 Z " />
<glyph glyph-name="uniFEFF" unicode="&#xfeff;" d="" />
</font>
</svg>
