<?xml version="1.0" encoding="UTF-8"?>
<svg xmlns="http://www.w3.org/2000/svg" xmlns:xlink="http://www.w3.org/1999/xlink" version="1.2" >
<font id="ATT Aleck Sans Italic">
<font-face  font-family="ATT Aleck Sans" units-per-em="1000" ascent="750" descent="-250" font-style="italic" font-weight="400" font-stretch="normal" slope="-12.05" cap-height="700" x-height="519" underline-position="-111" underline-thickness="58" />
<missing-glyph  horiz-adv-x="500" d="M470 0 L70 0 L70 750 L470 750 L470 0 Z M420 50 L420 700 L120 700 L120 50 L420 50 Z " />
<glyph glyph-name="&amp;#x0;" d="" />
<glyph glyph-name="&amp;#x8;" unicode="&#x8;" d="" />
<glyph glyph-name="&amp;#x1d;" unicode="&#x1d;" d="" />
<glyph glyph-name="&amp;#x9;" unicode="&#x9;" horiz-adv-x="230" d="" />
<glyph glyph-name="&amp;#xd;" unicode="&#xd;" horiz-adv-x="230" d="" />
<glyph glyph-name="space" unicode="&#x20;" horiz-adv-x="230" d="" />
<glyph glyph-name="period" unicode="&#x2e;" horiz-adv-x="180" d="M-5 35 Q-5 59 12 75.5 Q29 92 54 92 Q75 92 87.5 80 Q100 68 100 47 Q100 23 83 6.5 Q66 -10 41 -10 Q20 -10 7.5 2 Q-5 14 -5 35 Z " />
<glyph glyph-name="colon" unicode="&#x3a;" horiz-adv-x="180" d="M-5 35 Q-5 59 12 75.5 Q29 92 54 92 Q75 92 87.5 80 Q100 68 100 47 Q100 23 83 6.5 Q66 -10 41 -10 Q20 -10 7.5 2 Q-5 14 -5 35 Z M86 462 Q86 486 103 502.5 Q120 519 145 519 Q166 519 178.5 507 Q191 495 191 474 Q191 450 174 433.5 Q157 417 132 417 Q111 417 98.5 429 Q86 441 86 462 Z " />
<glyph glyph-name="comma" unicode="&#x2c;" horiz-adv-x="180" d="M-67 -110 Q-29 -85 -6.5 -61 Q16 -37 29 -7 Q12 -4 3 7 Q-6 18 -6 35 Q-6 59 11 75.5 Q28 92 53 92 Q75 92 87 79 Q99 66 99 42 Q99 -6 59.5 -56.5 Q20 -107 -47 -144 L-67 -110 Z " />
<glyph glyph-name="semicolon" unicode="&#x3b;" horiz-adv-x="180" d="M-67 -110 Q-29 -85 -6.5 -61 Q16 -37 29 -7 Q12 -4 3 7 Q-6 18 -6 35 Q-6 59 11 75.5 Q28 92 53 92 Q75 92 87 79 Q99 66 99 42 Q99 -6 59.5 -56.5 Q20 -107 -47 -144 L-67 -110 Z M86 462 Q86 486 103 502.5 Q120 519 145 519 Q166 519 178.5 507 Q191 495 191 474 Q191 450 174 433.5 Q157 417 132 417 Q111 417 98.5 429 Q86 441 86 462 Z " />
<glyph glyph-name="question" unicode="&#x3f;" horiz-adv-x="437" d="M129 204 L136 237 Q149 298 175.5 336 Q202 374 258 412 L274 423 Q330 461 354.5 494 Q379 527 379 562 Q379 602 351 624.5 Q323 647 274 647 Q189 647 99 576 L71 629 Q172 713 287 713 Q367 713 412 675.5 Q457 638 457 572 Q457 519 425 473.5 Q393 428 321 380 L305 369 Q256 335 234 306.5 Q212 278 203 237 L196 204 L129 204 Z M88 35 Q88 59 105 75.5 Q122 92 147 92 Q168 92 180.5 80 Q193 68 193 47 Q193 23 176 6.5 Q159 -10 134 -10 Q113 -10 100.5 2 Q88 14 88 35 Z " />
<glyph glyph-name="exclam" unicode="&#x21;" horiz-adv-x="249" d="M175 700 L259 700 L144 204 L79 204 L175 700 Z M29 35 Q29 59 46 75.5 Q63 92 88 92 Q109 92 121.5 80 Q134 68 134 47 Q134 23 117 6.5 Q100 -10 75 -10 Q54 -10 41.5 2 Q29 14 29 35 Z " />
<glyph glyph-name="questiondown" unicode="&#xbf;" horiz-adv-x="437" d="M308 316 L301 283 Q288 222 261.5 184 Q235 146 179 108 L163 97 Q107 59 82.5 26 Q58 -7 58 -42 Q58 -82 86 -104.5 Q114 -127 163 -127 Q248 -127 338 -56 L366 -109 Q265 -193 150 -193 Q70 -193 25 -155.5 Q-20 -118 -20 -52 Q-20 1 12 46.5 Q44 92 116 140 L132 151 Q181 185 203 213.5 Q225 242 234 283 L241 316 L308 316 Z M349 485 Q349 461 332 444.5 Q315 428 290 428 Q269 428 256.5 440 Q244 452 244 473 Q244 497 261 513.5 Q278 530 303 530 Q324 530 336.5 518 Q349 506 349 485 Z " />
<glyph glyph-name="exclamdown" unicode="&#xa1;" horiz-adv-x="249" d="M76 -180 L-8 -180 L107 316 L172 316 L76 -180 Z M222 485 Q222 461 205 444.5 Q188 428 163 428 Q142 428 129.5 440 Q117 452 117 473 Q117 497 134 513.5 Q151 530 176 530 Q197 530 209.5 518 Q222 506 222 485 Z " />
<glyph glyph-name="quotesingle" unicode="&#x27;" horiz-adv-x="153" d="M126 700 L202 700 L140 441 L79 441 L126 700 Z " />
<glyph glyph-name="quotedbl" unicode="&#x22;" horiz-adv-x="326" d="M126 700 L202 700 L140 441 L79 441 L126 700 Z M299 700 L375 700 L313 441 L252 441 L299 700 Z " />
<glyph glyph-name="ellipsis" unicode="&#x2026;" horiz-adv-x="1000" d="M66 35 Q66 59 83 75.5 Q100 92 125 92 Q146 92 158.5 80 Q171 68 171 47 Q171 23 154 6.5 Q137 -10 112 -10 Q91 -10 78.5 2 Q66 14 66 35 Z M400 35 Q400 59 417 75.5 Q434 92 459 92 Q480 92 492.5 80 Q505 68 505 47 Q505 23 488 6.5 Q471 -10 446 -10 Q425 -10 412.5 2 Q400 14 400 35 Z M734 35 Q734 59 751 75.5 Q768 92 793 92 Q814 92 826.5 80 Q839 68 839 47 Q839 23 822 6.5 Q805 -10 780 -10 Q759 -10 746.5 2 Q734 14 734 35 Z " />
<glyph glyph-name="uni00A0" unicode="&#xa0;" horiz-adv-x="230" d="" />
<glyph glyph-name="uni2000" unicode="&#x2000;" horiz-adv-x="500" d="" />
<glyph glyph-name="uni2001" unicode="&#x2001;" horiz-adv-x="1000" d="" />
<glyph glyph-name="uni2002" unicode="&#x2002;" horiz-adv-x="500" d="" />
<glyph glyph-name="uni2003" unicode="&#x2003;" horiz-adv-x="1000" d="" />
<glyph glyph-name="uni2004" unicode="&#x2004;" horiz-adv-x="333" d="" />
<glyph glyph-name="uni2005" unicode="&#x2005;" horiz-adv-x="250" d="" />
<glyph glyph-name="uni2006" unicode="&#x2006;" horiz-adv-x="166" d="" />
<glyph glyph-name="uni2007" unicode="&#x2007;" horiz-adv-x="600" d="" />
<glyph glyph-name="uni2008" unicode="&#x2008;" horiz-adv-x="180" d="" />
<glyph glyph-name="uni2009" unicode="&#x2009;" horiz-adv-x="200" d="" />
<glyph glyph-name="uni200A" unicode="&#x200a;" horiz-adv-x="55" d="" />
<glyph glyph-name="uni200B" unicode="&#x200b;" d="" />
<glyph glyph-name="zero" unicode="0" horiz-adv-x="555" d="M239 56 Q375 56 434 316 Q454 401 454 484 Q454 634 339 634 Q203 634 144 374 Q124 289 124 206 Q124 56 239 56 Z M231 -10 Q143 -10 95.5 46 Q48 102 48 205 Q48 282 69 379 Q104 536 175 618 Q246 700 347 700 Q435 700 482.5 644 Q530 588 530 485 Q530 408 509 311 Q474 154 403 72 Q332 -10 231 -10 Z " />
<glyph glyph-name="one" unicode="1" horiz-adv-x="403" d="M73 530 L309 690 L380 690 L233 0 L158 0 L285 600 L101 476 L73 530 Z " />
<glyph glyph-name="two" unicode="2" horiz-adv-x="511" d="M1 0 L15 65 Q30 135 56.5 186 Q83 237 127.5 277 Q172 317 246 354 L266 364 Q360 411 395 447.5 Q430 484 430 532 Q430 580 399.5 607 Q369 634 314 634 Q236 634 141 568 L112 620 Q216 700 326 700 Q408 700 457.5 656 Q507 612 507 539 Q507 471 458 416 Q409 361 298 306 L278 296 Q219 266 184.5 237.5 Q150 209 128.5 169.5 Q107 130 92 67 L415 67 L400 0 L1 0 Z " />
<glyph glyph-name="three" unicode="3" horiz-adv-x="485" d="M166 -10 Q117 -10 70 3 Q23 16 -15 40 L10 100 Q44 79 85.5 67.5 Q127 56 168 56 Q245 56 292 98.5 Q339 141 339 213 Q339 265 308 296.5 Q277 328 225 328 L123 328 L136 391 L231 391 Q275 391 309.5 410 Q344 429 362.5 460 Q381 491 381 529 Q381 580 349.5 607 Q318 634 259 634 Q183 634 108 588 L85 641 Q124 669 174.5 684.5 Q225 700 276 700 Q330 700 371.5 680 Q413 660 434.5 623.5 Q456 587 456 538 Q456 478 420.5 429.5 Q385 381 325 359 Q368 339 391.5 302.5 Q415 266 415 217 Q415 150 382 98 Q349 46 292.5 18 Q236 -10 166 -10 Z " />
<glyph glyph-name="four" unicode="4" horiz-adv-x="567" d="M318 0 L354 168 L16 168 L31 238 L469 690 L537 690 L440 234 L533 234 L519 168 L426 168 L390 0 L318 0 Z M368 234 L439 571 L112 234 L368 234 Z " />
<glyph glyph-name="five" unicode="5" horiz-adv-x="500" d="M194 -10 Q142 -10 92.5 5 Q43 20 3 48 L28 108 Q63 84 108 70 Q153 56 197 56 Q279 56 329 103.5 Q379 151 379 229 Q379 287 341.5 318.5 Q304 350 235 350 Q182 350 92 348 L185 690 L513 690 L498 623 L235 623 L177 410 Q196 411 213.5 411.5 Q231 412 254 412 Q348 412 401.5 365.5 Q455 319 455 239 Q455 165 421 108 Q387 51 328 20.5 Q269 -10 194 -10 Z " />
<glyph glyph-name="six" unicode="6" horiz-adv-x="534" d="M383 700 Q465 700 537 657 L511 599 Q444 634 381 634 Q302 634 243 575.5 Q184 517 152 408 Q226 419 286 419 Q386 419 440.5 370 Q495 321 495 231 Q495 160 462.5 104.5 Q430 49 376 19.5 Q322 -10 255 -10 Q158 -10 106 50 Q54 110 54 226 Q54 320 81 412 Q108 504 153 569 Q198 634 256 667 Q314 700 383 700 Z M264 358 Q211 358 138 348 Q126 285 126 226 Q126 139 159 97.5 Q192 56 262 56 Q335 56 378.5 102.5 Q422 149 422 225 Q422 293 383.5 325.5 Q345 358 264 358 Z " />
<glyph glyph-name="seven" unicode="7" horiz-adv-x="464" d="M77 0 L87 47 Q101 112 121.5 164.5 Q142 217 179.5 277 Q217 337 295 440 L433 623 L89 623 L103 690 L532 690 L518 625 L349 402 Q291 325 257.5 272.5 Q224 220 204 169.5 Q184 119 169 47 L159 0 L77 0 Z " />
<glyph glyph-name="eight" unicode="8" horiz-adv-x="554" d="M33 162 Q33 233 79.5 290 Q126 347 202 369 Q120 419 120 509 Q120 563 152 607 Q184 651 236 675.5 Q288 700 349 700 Q434 700 488.5 654.5 Q543 609 543 538 Q543 478 505.5 427 Q468 376 406 352 Q449 326 472 288 Q495 250 495 203 Q495 142 460.5 93 Q426 44 369 17 Q312 -10 244 -10 Q181 -10 133 12.5 Q85 35 59 74 Q33 113 33 162 Z M108 171 Q108 118 147.5 85 Q187 52 250 52 Q323 52 371.5 95 Q420 138 420 202 Q420 244 391.5 277 Q363 310 313 326 L272 339 Q224 331 186.5 306 Q149 281 128.5 246 Q108 211 108 171 Z M194 510 Q194 429 296 395 L339 381 Q397 395 433 436 Q469 477 469 529 Q469 577 434 607.5 Q399 638 345 638 Q280 638 237 601.5 Q194 565 194 510 Z " />
<glyph glyph-name="nine" unicode="9" horiz-adv-x="534" d="M192 -10 Q95 -10 24 39 L50 97 Q85 75 120 65.5 Q155 56 196 56 Q274 56 330.5 114 Q387 172 417 280 Q356 271 281 271 Q182 271 127.5 319 Q73 367 73 454 Q73 524 106.5 580.5 Q140 637 194.5 668.5 Q249 700 313 700 Q410 700 462 639.5 Q514 579 514 464 Q514 366 488.5 274 Q463 182 419.5 118 Q376 54 318.5 22 Q261 -10 192 -10 Z M304 332 Q368 332 431 342 Q442 408 442 464 Q442 550 409 592 Q376 634 306 634 Q238 634 192 584 Q146 534 146 460 Q146 395 184.5 363.5 Q223 332 304 332 Z " />
<glyph glyph-name="uni2080" unicode="&#x2080;" horiz-adv-x="438" d="M155 -73 Q195 -73 225.5 -37.5 Q256 -2 269 60 Q277 98 277 133 Q277 176 258.5 199.5 Q240 223 205 223 Q165 223 134.5 187.5 Q104 152 91 90 Q83 52 83 17 Q83 -26 101.5 -49.5 Q120 -73 155 -73 Z M148 -130 Q87 -130 51.5 -90 Q16 -50 16 18 Q16 54 25 94 Q38 152 65.5 194 Q93 236 130.5 258 Q168 280 212 280 Q273 280 308.5 240 Q344 200 344 132 Q344 97 335 56 Q322 -2 294.5 -44 Q267 -86 229.5 -108 Q192 -130 148 -130 Z " />
<glyph glyph-name="uni2081" unicode="&#x2081;" horiz-adv-x="438" d="M71 160 L243 270 L300 270 L217 -120 L153 -120 L220 194 L94 114 L71 160 Z " />
<glyph glyph-name="uni2082" unicode="&#x2082;" horiz-adv-x="438" d="M0 -120 L6 -91 Q16 -44 33 -12 Q50 20 81 44.5 Q112 69 162 91 Q210 112 232.5 124 Q255 136 264 147.5 Q273 159 273 178 Q273 198 255.5 210 Q238 222 209 222 Q153 222 89 183 L69 232 Q143 280 218 280 Q273 280 306 253 Q339 226 339 181 Q339 152 326 130.5 Q313 109 281.5 88.5 Q250 68 188 42 Q140 22 117 -0.5 Q94 -23 82 -62 L287 -62 L275 -120 L0 -120 Z " />
<glyph glyph-name="uni2083" unicode="&#x2083;" horiz-adv-x="438" d="M128 -130 Q58 -130 4 -99 L22 -46 Q74 -72 132 -72 Q181 -72 207.5 -53.5 Q234 -35 234 -1 Q234 25 213 40 Q192 55 153 55 L91 55 L103 110 L168 110 Q210 110 236 128 Q262 146 262 175 Q262 197 243 209.5 Q224 222 191 222 Q142 222 87 196 L70 245 Q100 261 135.5 270.5 Q171 280 204 280 Q259 280 293.5 254 Q328 228 328 185 Q328 150 306.5 123 Q285 96 245 82 Q300 57 300 -2 Q300 -59 251.5 -94.5 Q203 -130 128 -130 Z " />
<glyph glyph-name="uni2084" unicode="&#x2084;" horiz-adv-x="438" d="M192 -120 L210 -37 L-3 -37 L7 15 L281 270 L337 270 L283 17 L333 17 L323 -37 L272 -37 L254 -120 L192 -120 Z M221 17 L256 178 L82 17 L221 17 Z " />
<glyph glyph-name="uni2085" unicode="&#x2085;" horiz-adv-x="438" d="M135 -130 Q58 -130 4 -96 L23 -45 Q72 -73 139 -73 Q187 -73 214.5 -53 Q242 -33 242 2 Q242 33 215 49 Q188 65 138 65 Q126 65 108 65 Q90 65 73.5 64.5 Q57 64 50 64 L107 270 L341 270 L329 212 L152 212 L126 117 Q136 118 156 118 Q229 118 268.5 89 Q308 60 308 6 Q308 -56 261.5 -93 Q215 -130 135 -130 Z " />
<glyph glyph-name="uni2086" unicode="&#x2086;" horiz-adv-x="438" d="M236 280 Q297 280 345 255 L327 204 Q280 223 230 223 Q184 223 149.5 195 Q115 167 97 116 Q139 123 179 123 Q246 123 282.5 95 Q319 67 319 13 Q319 -47 273.5 -88.5 Q228 -130 157 -130 Q90 -130 53.5 -91.5 Q17 -53 17 19 Q17 95 46 155 Q75 215 124.5 247.5 Q174 280 236 280 Z M163 71 Q131 71 85 64 Q82 43 82 20 Q82 -25 103 -49 Q124 -73 161 -73 Q201 -73 228.5 -49 Q256 -25 256 9 Q256 71 163 71 Z " />
<glyph glyph-name="uni2087" unicode="&#x2087;" horiz-adv-x="438" d="M60 -120 L62 -108 Q73 -42 108.5 15 Q144 72 229 163 L275 212 L63 212 L74 270 L359 270 L349 217 L276 139 Q206 65 171 6.5 Q136 -52 127 -108 L125 -120 L60 -120 Z " />
<glyph glyph-name="uni2088" unicode="&#x2088;" horiz-adv-x="438" d="M150 -130 Q84 -130 43 -101.5 Q2 -73 2 -27 Q2 -3 13.5 19 Q25 41 46 58 Q67 75 95 86 Q52 110 52 159 Q52 211 98.5 245.5 Q145 280 215 280 Q276 280 315 252.5 Q354 225 354 182 Q354 151 332 124 Q310 97 272 81 Q329 51 329 -3 Q329 -57 278 -93.5 Q227 -130 150 -130 Z M152 65 Q112 53 89 31 Q66 9 66 -19 Q66 -46 90.5 -63 Q115 -80 155 -80 Q201 -80 233 -58 Q265 -36 265 -5 Q265 15 249 30 Q233 45 205 52 L152 65 Z M116 164 Q116 125 168 112 L217 99 Q251 109 270.5 128.5 Q290 148 290 173 Q290 198 267.5 214 Q245 230 209 230 Q170 230 143 211 Q116 192 116 164 Z " />
<glyph glyph-name="uni2089" unicode="&#x2089;" horiz-adv-x="438" d="M116 -130 Q58 -130 10 -105 L28 -54 Q79 -73 122 -73 Q167 -73 203 -45 Q239 -17 257 33 Q215 27 178 27 Q109 27 72.5 55 Q36 83 36 137 Q36 179 57.5 211.5 Q79 244 115.5 262 Q152 280 197 280 Q262 280 300 241 Q338 202 338 133 Q338 55 309 -5 Q280 -65 230 -97.5 Q180 -130 116 -130 Z M194 79 Q233 79 270 85 Q273 105 273 127 Q273 174 252 198.5 Q231 223 192 223 Q152 223 125.5 200 Q99 177 99 141 Q99 110 123.5 94.5 Q148 79 194 79 Z " />
<glyph glyph-name="uni2070" unicode="&#x2070;" horiz-adv-x="438" d="M268 467 Q308 467 338.5 502.5 Q369 538 382 600 Q390 638 390 673 Q390 716 371.5 739.5 Q353 763 318 763 Q278 763 247.5 727.5 Q217 692 204 630 Q196 592 196 557 Q196 514 214.5 490.5 Q233 467 268 467 Z M261 410 Q200 410 164.5 450 Q129 490 129 558 Q129 594 138 634 Q151 692 178.5 734 Q206 776 243.5 798 Q281 820 325 820 Q386 820 421.5 780 Q457 740 457 672 Q457 637 448 596 Q435 538 407.5 496 Q380 454 342.5 432 Q305 410 261 410 Z " />
<glyph glyph-name="uni00B9" unicode="&#xb9;" horiz-adv-x="438" d="M184 700 L356 810 L413 810 L330 420 L266 420 L333 734 L207 654 L184 700 Z " />
<glyph glyph-name="uni00B2" unicode="&#xb2;" horiz-adv-x="438" d="M113 420 L119 449 Q129 496 146 528 Q163 560 194 584.5 Q225 609 275 631 Q323 652 345.5 664 Q368 676 377 687.5 Q386 699 386 718 Q386 738 368.5 750 Q351 762 322 762 Q266 762 202 723 L182 772 Q256 820 331 820 Q386 820 419 793 Q452 766 452 721 Q452 692 439 670.5 Q426 649 394.5 628.5 Q363 608 301 582 Q253 562 230 539.5 Q207 517 195 478 L400 478 L388 420 L113 420 Z " />
<glyph glyph-name="uni00B3" unicode="&#xb3;" horiz-adv-x="438" d="M241 410 Q171 410 117 441 L135 494 Q187 468 245 468 Q294 468 320.5 486.5 Q347 505 347 539 Q347 565 326 580 Q305 595 266 595 L204 595 L216 650 L281 650 Q323 650 349 668 Q375 686 375 715 Q375 737 356 749.5 Q337 762 304 762 Q255 762 200 736 L183 785 Q213 801 248.5 810.5 Q284 820 317 820 Q372 820 406.5 794 Q441 768 441 725 Q441 690 419.5 663 Q398 636 358 622 Q413 597 413 538 Q413 481 364.5 445.5 Q316 410 241 410 Z " />
<glyph glyph-name="uni2074" unicode="&#x2074;" horiz-adv-x="438" d="M305 420 L323 503 L110 503 L120 555 L394 810 L450 810 L396 557 L446 557 L436 503 L385 503 L367 420 L305 420 Z M334 557 L369 718 L195 557 L334 557 Z " />
<glyph glyph-name="uni2075" unicode="&#x2075;" horiz-adv-x="438" d="M248 410 Q171 410 117 444 L136 495 Q185 467 252 467 Q300 467 327.5 487 Q355 507 355 542 Q355 573 328 589 Q301 605 251 605 Q239 605 221 605 Q203 605 186.5 604.5 Q170 604 163 604 L220 810 L454 810 L442 752 L265 752 L239 657 Q249 658 269 658 Q342 658 381.5 629 Q421 600 421 546 Q421 484 374.5 447 Q328 410 248 410 Z " />
<glyph glyph-name="uni2076" unicode="&#x2076;" horiz-adv-x="438" d="M349 820 Q410 820 458 795 L440 744 Q393 763 343 763 Q297 763 262.5 735 Q228 707 210 656 Q252 663 292 663 Q359 663 395.5 635 Q432 607 432 553 Q432 493 386.5 451.5 Q341 410 270 410 Q203 410 166.5 448.5 Q130 487 130 559 Q130 635 159 695 Q188 755 237.5 787.5 Q287 820 349 820 Z M276 611 Q244 611 198 604 Q195 583 195 560 Q195 515 216 491 Q237 467 274 467 Q314 467 341.5 491 Q369 515 369 549 Q369 611 276 611 Z " />
<glyph glyph-name="uni2077" unicode="&#x2077;" horiz-adv-x="438" d="M173 420 L175 432 Q186 498 221.5 555 Q257 612 342 703 L388 752 L176 752 L187 810 L472 810 L462 757 L389 679 Q319 605 284 546.5 Q249 488 240 432 L238 420 L173 420 Z " />
<glyph glyph-name="uni2078" unicode="&#x2078;" horiz-adv-x="438" d="M263 410 Q197 410 156 438.5 Q115 467 115 513 Q115 537 126.5 559 Q138 581 159 598 Q180 615 208 626 Q165 650 165 699 Q165 751 211.5 785.5 Q258 820 328 820 Q389 820 428 792.5 Q467 765 467 722 Q467 691 445 664 Q423 637 385 621 Q442 591 442 537 Q442 483 391 446.5 Q340 410 263 410 Z M265 605 Q225 593 202 571 Q179 549 179 521 Q179 494 203.5 477 Q228 460 268 460 Q314 460 346 482 Q378 504 378 535 Q378 555 362 570 Q346 585 318 592 L265 605 Z M229 704 Q229 665 281 652 L330 639 Q364 649 383.5 668.5 Q403 688 403 713 Q403 738 380.5 754 Q358 770 322 770 Q283 770 256 751 Q229 732 229 704 Z " />
<glyph glyph-name="uni2079" unicode="&#x2079;" horiz-adv-x="438" d="M229 410 Q171 410 123 435 L141 486 Q192 467 235 467 Q280 467 316 495 Q352 523 370 573 Q328 567 291 567 Q222 567 185.5 595 Q149 623 149 677 Q149 719 170.5 751.5 Q192 784 228.5 802 Q265 820 310 820 Q375 820 413 781 Q451 742 451 673 Q451 595 422 535 Q393 475 343 442.5 Q293 410 229 410 Z M307 619 Q346 619 383 625 Q386 645 386 667 Q386 714 365 738.5 Q344 763 305 763 Q265 763 238.5 740 Q212 717 212 681 Q212 650 236.5 634.5 Q261 619 307 619 Z " />
<glyph glyph-name="fraction" unicode="&#x2044;" horiz-adv-x="102" d="M-229 0 L294 690 L375 690 L-148 0 L-229 0 Z " />
<glyph glyph-name="percent" unicode="&#x25;" horiz-adv-x="920" d="M176 0 L699 690 L780 690 L257 0 L176 0 Z M663 47 Q703 47 733.5 82.5 Q764 118 777 180 Q785 218 785 253 Q785 296 766.5 319.5 Q748 343 713 343 Q673 343 642.5 307.5 Q612 272 599 210 Q591 172 591 137 Q591 94 609.5 70.5 Q628 47 663 47 Z M656 -10 Q595 -10 559.5 30 Q524 70 524 138 Q524 174 533 214 Q546 272 573.5 314 Q601 356 638.5 378 Q676 400 720 400 Q781 400 816.5 360 Q852 320 852 252 Q852 217 843 176 Q830 118 802.5 76 Q775 34 737.5 12 Q700 -10 656 -10 Z M243 347 Q283 347 313.5 382.5 Q344 418 357 480 Q365 518 365 553 Q365 596 346.5 619.5 Q328 643 293 643 Q253 643 222.5 607.5 Q192 572 179 510 Q171 472 171 437 Q171 394 189.5 370.5 Q208 347 243 347 Z M236 290 Q175 290 139.5 330 Q104 370 104 438 Q104 474 113 514 Q126 572 153.5 614 Q181 656 218.5 678 Q256 700 300 700 Q361 700 396.5 660 Q432 620 432 552 Q432 517 423 476 Q410 418 382.5 376 Q355 334 317.5 312 Q280 290 236 290 Z " />
<glyph glyph-name="onehalf" unicode="&#xbd;" horiz-adv-x="920" d="M156 0 L679 690 L760 690 L237 0 L156 0 Z M507 0 L513 29 Q523 76 540 108 Q557 140 588 164.5 Q619 189 669 211 Q717 232 739.5 244 Q762 256 771 267.5 Q780 279 780 298 Q780 318 762.5 330 Q745 342 716 342 Q660 342 596 303 L576 352 Q650 400 725 400 Q780 400 813 373 Q846 346 846 301 Q846 272 833 250.5 Q820 229 788.5 208.5 Q757 188 695 162 Q647 142 624 119.5 Q601 97 589 58 L794 58 L782 0 L507 0 Z M159 580 L331 690 L388 690 L305 300 L241 300 L308 614 L182 534 L159 580 Z " />
<glyph glyph-name="onequarter" unicode="&#xbc;" horiz-adv-x="920" d="M203 0 L726 690 L807 690 L284 0 L203 0 Z M700 0 L718 83 L505 83 L515 135 L789 390 L845 390 L791 137 L841 137 L831 83 L780 83 L762 0 L700 0 Z M729 137 L764 298 L590 137 L729 137 Z M159 580 L331 690 L388 690 L305 300 L241 300 L308 614 L182 534 L159 580 Z " />
<glyph glyph-name="threequarters" unicode="&#xbe;" horiz-adv-x="920" d="M203 0 L726 690 L807 690 L284 0 L203 0 Z M700 0 L718 83 L505 83 L515 135 L789 390 L845 390 L791 137 L841 137 L831 83 L780 83 L762 0 L700 0 Z M729 137 L764 298 L590 137 L729 137 Z M216 290 Q146 290 92 321 L110 374 Q162 348 220 348 Q269 348 295.5 366.5 Q322 385 322 419 Q322 445 301 460 Q280 475 241 475 L179 475 L191 530 L256 530 Q298 530 324 548 Q350 566 350 595 Q350 617 331 629.5 Q312 642 279 642 Q230 642 175 616 L158 665 Q188 681 223.5 690.5 Q259 700 292 700 Q347 700 381.5 674 Q416 648 416 605 Q416 570 394.5 543 Q373 516 333 502 Q388 477 388 418 Q388 361 339.5 325.5 Q291 290 216 290 Z " />
<glyph glyph-name="dollar" unicode="&#x24;" horiz-adv-x="600" d="M189 -113 L211 -8 Q159 -2 109 16.5 Q59 35 24 61 L50 119 Q132 65 225 56 L283 330 L272 335 Q193 371 161 409 Q129 447 129 504 Q129 563 160 607.5 Q191 652 244.5 676 Q298 700 364 700 L384 792 L443 792 L423 695 Q503 683 569 642 L545 583 Q481 621 410 631 L355 375 Q442 334 476 295 Q510 256 510 193 Q510 135 479.5 90 Q449 45 395 19.5 Q341 -6 270 -9 L248 -113 L189 -113 Z M438 187 Q438 215 430 233 Q422 251 401 267.5 Q380 284 337 305 L284 56 Q355 62 396.5 97.5 Q438 133 438 187 Z M201 510 Q201 473 221.5 450 Q242 427 301 400 L351 635 Q281 633 241 599.5 Q201 566 201 510 Z " />
<glyph glyph-name="cent" unicode="&#xa2;" horiz-adv-x="600" d="M220 -113 L243 -4 Q174 11 136 63.5 Q98 116 98 199 Q98 281 132.5 349.5 Q167 418 225 461 Q283 504 353 515 L376 622 L435 622 L413 518 Q480 515 535 482 L512 425 Q459 454 399 455 L314 54 Q384 56 454 106 L471 50 Q436 22 391.5 6 Q347 -10 301 -10 L279 -113 L220 -113 Z M170 207 Q170 150 192 113 Q214 76 257 62 L339 448 Q265 428 217.5 360.5 Q170 293 170 207 Z " />
<glyph glyph-name="sterling" unicode="&#xa3;" horiz-adv-x="600" d="M446 314 L274 314 Q267 242 233.5 175 Q200 108 150 67 L513 67 L499 0 L40 0 L53 63 Q113 101 153.5 170 Q194 239 201 314 L117 314 L131 379 L201 379 L196 412 Q190 450 190 474 Q190 543 218.5 594.5 Q247 646 298 673 Q349 700 415 700 Q511 700 590 649 L567 590 Q534 610 493.5 622 Q453 634 415 634 Q342 634 303 591.5 Q264 549 264 470 Q264 452 269 412 L273 379 L460 379 L446 314 Z " />
<glyph glyph-name="yen" unicode="&#xa5;" horiz-adv-x="600" d="M205 0 L231 124 L62 124 L76 189 L245 189 L263 275 L94 275 L108 340 L246 340 L124 690 L204 690 L314 344 L570 690 L657 690 L386 340 L522 340 L508 275 L338 275 L320 189 L490 189 L476 124 L306 124 L280 0 L205 0 Z " />
<glyph glyph-name="Euro" unicode="&#x20ac;" horiz-adv-x="600" d="M196 236 Q206 150 252.5 103.5 Q299 57 378 57 Q452 57 519 99 L540 42 Q506 17 460.5 3.5 Q415 -10 368 -10 Q259 -10 193 55 Q127 120 117 236 L29 236 L53 301 L115 301 Q119 354 127 388 L52 388 L76 453 L147 453 Q190 565 280 632.5 Q370 700 480 700 Q569 700 640 656 L615 597 Q543 633 475 633 Q392 633 326 585.5 Q260 538 224 453 L520 453 L497 388 L204 388 Q194 343 193 301 L474 301 L450 236 L196 236 Z " />
<glyph glyph-name="uni20BA" unicode="&#x20ba;" horiz-adv-x="600" d="M223 66 Q332 66 389.5 117.5 Q447 169 468 285 L543 285 Q517 136 440.5 68 Q364 0 221 0 L87 0 L132 213 L37 171 L51 240 L147 283 L166 373 L70 330 L84 399 L181 442 L234 690 L309 690 L264 479 L456 565 L442 496 L249 410 L230 320 L423 406 L409 337 L215 250 L176 66 L223 66 Z " />
<glyph glyph-name="uni20BD" unicode="&#x20bd;" horiz-adv-x="600" d="M191 121 L166 0 L91 0 L117 121 L7 121 L21 186 L131 186 L150 278 L41 278 L55 343 L164 343 L238 690 L387 690 Q491 690 545 643.5 Q599 597 599 506 Q599 438 564 385.5 Q529 333 468 305.5 Q407 278 327 278 L225 278 L205 186 L401 186 L387 121 L191 121 Z M239 343 L335 343 Q424 343 473.5 385.5 Q523 428 523 500 Q523 565 489 595.5 Q455 626 384 626 L299 626 L239 343 Z " />
<glyph glyph-name="asciicircum" unicode="&#x5e;" horiz-adv-x="600" d="M457 315 L376 613 L168 315 L89 315 L355 690 L424 690 L531 315 L457 315 Z " />
<glyph glyph-name="plus" unicode="&#x2b;" horiz-adv-x="600" d="M233 109 L277 312 L92 312 L106 377 L290 377 L333 580 L401 580 L357 377 L542 377 L528 312 L344 312 L301 109 L233 109 Z " />
<glyph glyph-name="minus" unicode="&#x2212;" horiz-adv-x="600" d="M92 312 L106 377 L542 377 L528 312 L92 312 Z " />
<glyph glyph-name="equal" unicode="&#x3d;" horiz-adv-x="600" d="M114 425 L128 490 L564 490 L550 425 L114 425 Z M66 199 L80 264 L516 264 L502 199 L66 199 Z " />
<glyph glyph-name="divide" unicode="&#xf7;" horiz-adv-x="600" d="M272 121 Q253 121 241.5 132.5 Q230 144 230 163 Q230 186 246 201.5 Q262 217 286 217 Q305 217 316.5 205.5 Q328 194 328 175 Q328 152 312 136.5 Q296 121 272 121 Z M528 312 L92 312 L106 377 L542 377 L528 312 Z M348 472 Q329 472 317.5 483.5 Q306 495 306 514 Q306 537 322 552.5 Q338 568 362 568 Q381 568 392.5 556.5 Q404 545 404 526 Q404 503 388 487.5 Q372 472 348 472 Z " />
<glyph glyph-name="less" unicode="&#x3c;" horiz-adv-x="600" d="M543 475 L186 341 L487 204 L472 132 L92 313 L106 376 L561 557 L543 475 Z " />
<glyph glyph-name="greater" unicode="&#x3e;" horiz-adv-x="600" d="M98 214 L455 348 L154 485 L169 557 L549 376 L535 313 L80 132 L98 214 Z " />
<glyph glyph-name="asciitilde" unicode="&#x7e;" horiz-adv-x="600" d="M415 236 Q384 236 357.5 253.5 Q331 271 297 316 Q272 349 260 361 Q248 373 237 378.5 Q226 384 213 384 Q158 384 136 283 L127 242 L61 242 L70 283 Q89 370 126 411.5 Q163 453 221 453 Q252 453 278.5 435.5 Q305 418 339 373 Q364 340 376 328 Q388 316 399 310.5 Q410 305 423 305 Q478 305 500 406 L509 447 L575 447 L566 406 Q547 319 510 277.5 Q473 236 415 236 Z " />
<glyph glyph-name="multiply" unicode="&#xd7;" horiz-adv-x="600" d="M306 296 L117 134 L77 183 L269 347 L141 521 L192 561 L319 390 L508 552 L548 503 L356 339 L484 165 L433 125 L306 296 Z " />
<glyph glyph-name="underscore" unicode="&#x5f;" horiz-adv-x="500" d="M-56 -82 L444 -82 L432 -140 L-68 -140 L-56 -82 Z " />
<glyph glyph-name="section" unicode="&#xa7;" horiz-adv-x="516" d="M320 28 Q320 60 299.5 79.5 Q279 99 228 113 L199 121 Q50 163 50 273 Q50 331 90 378.5 Q130 426 199 449 Q168 468 153.5 494 Q139 520 139 556 Q139 602 165.5 637 Q192 672 237 691 Q282 710 337 710 Q389 710 429 699.5 Q469 689 506 665 L480 608 Q415 646 339 646 Q281 646 247.5 622.5 Q214 599 214 560 Q214 531 235 512.5 Q256 494 306 480 L335 472 Q484 430 484 320 Q484 261 443.5 213.5 Q403 166 335 144 Q395 106 395 37 Q395 -12 367.5 -49.5 Q340 -87 292 -106.5 Q244 -126 180 -126 Q72 -126 -7 -67 L19 -11 Q98 -62 180 -62 Q246 -62 283 -38 Q320 -14 320 28 Z M268 420 Q205 408 165 371 Q125 334 125 286 Q125 214 228 184 L266 173 Q329 185 369 222 Q409 259 409 307 Q409 379 306 409 L268 420 Z " />
<glyph glyph-name="degree" unicode="&#xb0;" horiz-adv-x="329" d="M205 456 Q249 456 280.5 490 Q312 524 312 572 Q312 607 293 628 Q274 649 242 649 Q198 649 166.5 615 Q135 581 135 533 Q135 498 154 477 Q173 456 205 456 Z M200 405 Q145 405 111.5 439.5 Q78 474 78 529 Q78 600 127.5 650 Q177 700 247 700 Q302 700 335.5 665.5 Q369 631 369 576 Q369 505 319.5 455 Q270 405 200 405 Z " />
<glyph glyph-name="paragraph" unicode="&#xb6;" horiz-adv-x="547" d="M185 -110 L271 294 Q181 298 133.5 342.5 Q86 387 86 468 Q86 536 120 589.5 Q154 643 212 671.5 Q270 700 346 700 L554 700 L382 -110 L325 -110 L484 641 L403 641 L244 -110 L185 -110 Z " />
<glyph glyph-name="numbersign" unicode="&#x23;" horiz-adv-x="600" d="M112 492 L221 492 L289 690 L353 690 L285 492 L452 492 L520 690 L584 690 L516 492 L612 492 L599 431 L495 431 L436 259 L537 259 L524 198 L415 198 L347 0 L283 0 L351 198 L184 198 L116 0 L52 0 L120 198 L24 198 L37 259 L141 259 L200 431 L99 431 L112 492 Z M205 259 L372 259 L431 431 L264 431 L205 259 Z " />
<glyph glyph-name="bar" unicode="&#x7c;" horiz-adv-x="248" d="M189 730 L262 730 L61 -216 L-12 -216 L189 730 Z " />
<glyph glyph-name="dagger" unicode="&#x2020;" horiz-adv-x="484" d="M89 495 L249 495 L299 730 L372 730 L322 495 L482 495 L469 431 L309 431 L193 -116 L120 -116 L236 431 L76 431 L89 495 Z " />
<glyph glyph-name="daggerdbl" unicode="&#x2021;" horiz-adv-x="484" d="M404 119 L244 119 L194 -116 L121 -116 L171 119 L11 119 L24 183 L184 183 L237 431 L77 431 L90 495 L250 495 L300 730 L373 730 L323 495 L483 495 L470 431 L310 431 L257 183 L417 183 L404 119 Z " />
<glyph glyph-name="logicalnot" unicode="&#xac;" horiz-adv-x="600" d="M398 109 L442 312 L72 312 L86 377 L523 377 L466 109 L398 109 Z " />
<glyph glyph-name="ampersand" unicode="&#x26;" horiz-adv-x="675" d="M445 109 Q386 46 329 18 Q272 -10 203 -10 Q126 -10 79.5 33 Q33 76 33 147 Q33 218 83.5 276 Q134 334 237 383 Q203 431 188.5 466.5 Q174 502 174 538 Q174 613 230.5 661.5 Q287 710 374 710 Q447 710 491.5 673 Q536 636 536 575 Q536 517 488 467 Q440 417 336 366 L452 211 Q480 244 518 302 L567 375 L645 375 L576 273 Q536 215 492 161 L612 0 L528 0 L445 109 Z M216 53 Q311 53 405 159 L271 337 Q182 290 145.5 248 Q109 206 109 151 Q109 107 138.5 80 Q168 53 216 53 Z M246 541 Q246 513 258.5 484 Q271 455 301 412 Q392 458 428 493 Q464 528 464 571 Q464 607 438.5 628 Q413 649 370 649 Q313 649 279.5 620 Q246 591 246 541 Z " />
<glyph glyph-name="asterisk" unicode="&#x2a;" horiz-adv-x="395" d="M87 401 L196 513 L73 550 L103 607 L220 557 L237 698 L301 698 L268 558 L401 608 L412 548 L279 511 L357 392 L302 359 L235 486 L135 363 L87 401 Z " />
<glyph glyph-name="hyphen" unicode="&#x2d;" horiz-adv-x="375" d="M50 307 L347 307 L333 243 L36 243 L50 307 Z " />
<glyph glyph-name="endash" unicode="&#x2013;" horiz-adv-x="500" d="M10 305 L510 305 L497 245 L-3 245 L10 305 Z " />
<glyph glyph-name="emdash" unicode="&#x2014;" horiz-adv-x="1000" d="M10 305 L1010 305 L997 245 L-3 245 L10 305 Z " />
<glyph glyph-name="parenleft" unicode="&#x28;" horiz-adv-x="324" d="M138 -164 Q108 -104 89.5 -17 Q71 70 71 150 Q71 310 136 461 Q201 612 320 730 L406 730 Q280 604 214.5 457 Q149 310 149 153 Q149 69 167.5 -19 Q186 -107 216 -164 L138 -164 Z " />
<glyph glyph-name="parenright" unicode="&#x29;" horiz-adv-x="324" d="M189 730 Q219 670 237.5 583 Q256 496 256 416 Q256 256 191 105 Q126 -46 7 -164 L-79 -164 Q47 -38 112.5 109 Q178 256 178 413 Q178 497 159.5 585 Q141 673 111 730 L189 730 Z " />
<glyph glyph-name="slash" unicode="&#x2f;" horiz-adv-x="452" d="M467 730 L546 730 L-15 -163 L-94 -163 L467 730 Z " />
<glyph glyph-name="backslash" unicode="&#x5c;" horiz-adv-x="452" d="M360 -163 L290 -163 L92 730 L162 730 L360 -163 Z " />
<glyph glyph-name="bracketleft" unicode="&#x5b;" horiz-adv-x="355" d="M4 -164 L194 730 L417 730 L403 666 L253 666 L90 -100 L256 -100 L242 -164 L4 -164 Z " />
<glyph glyph-name="bracketright" unicode="&#x5d;" horiz-adv-x="355" d="M370 730 L180 -164 L-43 -164 L-29 -100 L121 -100 L284 666 L118 666 L132 730 L370 730 Z " />
<glyph glyph-name="braceleft" unicode="&#x7b;" horiz-adv-x="372" d="M181 -166 Q121 -166 88 -135 Q55 -104 55 -48 Q55 -27 63 2.5 Q71 32 94 93 Q112 141 118 163 Q124 185 124 202 Q124 228 109 240 Q94 252 59 252 L37 252 L51 315 L72 315 Q114 315 135 331 Q156 347 163 384 Q170 417 179 489 Q187 556 194 592 Q207 659 250.5 695.5 Q294 732 360 732 Q406 732 443 721 L429 659 Q400 667 372 667 Q326 667 301 646 Q276 625 265 578 Q257 542 250 469 Q243 408 236 372 Q229 335 208 313 Q187 291 148 282 Q173 274 186 256 Q199 238 199 211 Q199 194 192 168.5 Q185 143 164 83 Q143 22 137 0.5 Q131 -21 131 -36 Q131 -70 148.5 -85.5 Q166 -101 204 -101 Q235 -101 273 -94 L259 -158 Q219 -166 181 -166 Z " />
<glyph glyph-name="braceright" unicode="&#x7d;" horiz-adv-x="372" d="M211 732 Q271 732 304 701 Q337 670 337 614 Q337 593 329 563.5 Q321 534 298 473 Q280 425 274 403 Q268 381 268 364 Q268 338 283 326 Q298 314 333 314 L355 314 L341 251 L320 251 Q278 251 257 235 Q236 219 229 182 Q222 149 213 77 Q205 10 198 -26 Q185 -93 141.5 -129.5 Q98 -166 32 -166 Q-14 -166 -51 -155 L-37 -93 Q-8 -101 20 -101 Q66 -101 91 -80 Q116 -59 127 -12 Q135 24 142 97 Q149 158 156 194 Q163 231 184 253 Q205 275 244 284 Q193 301 193 355 Q193 372 200 397.5 Q207 423 228 483 Q249 544 255 565.5 Q261 587 261 602 Q261 636 243.5 651.5 Q226 667 188 667 Q158 667 119 660 L133 724 Q173 732 211 732 Z " />
<glyph glyph-name="bullet" unicode="&#x2022;" horiz-adv-x="251" d="M119 196 Q85 196 63 217.5 Q41 239 41 273 Q41 317 74.5 348.5 Q108 380 154 380 Q188 380 210 358.5 Q232 337 232 303 Q232 259 198.5 227.5 Q165 196 119 196 Z " />
<glyph glyph-name="guilsinglleft" unicode="&#x2039;" horiz-adv-x="276" d="M104 274 L200 102 L131 102 L32 280 L198 458 L275 458 L104 274 Z " />
<glyph glyph-name="guilsinglright" unicode="&#x203a;" horiz-adv-x="276" d="M180 286 L84 458 L153 458 L252 280 L86 102 L9 102 L180 286 Z " />
<glyph glyph-name="guillemotleft" unicode="&#xab;" horiz-adv-x="437" d="M104 274 L200 102 L131 102 L32 280 L198 458 L275 458 L104 274 Z M265 274 L361 102 L292 102 L193 280 L359 458 L436 458 L265 274 Z " />
<glyph glyph-name="guillemotright" unicode="&#xbb;" horiz-adv-x="437" d="M180 286 L84 458 L153 458 L252 280 L86 102 L9 102 L180 286 Z M341 286 L245 458 L314 458 L413 280 L247 102 L170 102 L341 286 Z " />
<glyph glyph-name="at" unicode="&#x40;" horiz-adv-x="1001" d="M699 -23 Q646 -23 614 3.5 Q582 30 578 76 Q545 44 503.5 27 Q462 10 421 10 Q357 10 320.5 53 Q284 96 284 168 Q284 244 319.5 309 Q355 374 412 409 Q469 444 537 444 Q572 444 603 432.5 Q634 421 656 399 L672 435 L732 435 L653 152 Q645 124 645 100 Q645 69 659 54 Q673 39 704 39 Q755 39 796 73.5 Q837 108 859 165.5 Q881 223 881 292 Q881 389 840 460 Q799 531 725.5 568 Q652 605 555 605 Q429 605 329 546 Q229 487 174.5 389.5 Q120 292 120 175 Q120 69 164 -7.5 Q208 -84 288 -124 Q368 -164 476 -164 Q586 -164 688 -122 L702 -180 Q604 -226 473 -226 Q341 -226 246 -176 Q151 -126 101 -36 Q51 54 51 174 Q51 317 120.5 430.5 Q190 544 305 606 Q420 668 556 668 Q676 668 765.5 619.5 Q855 571 902.5 486 Q950 401 950 292 Q950 200 916 128 Q882 56 825 16.5 Q768 -23 699 -23 Z M442 71 Q474 71 511 89.5 Q548 108 578 139 L637 347 Q618 363 590.5 373 Q563 383 537 383 Q486 383 445 354.5 Q404 326 381 279 Q358 232 358 176 Q358 126 380 98.5 Q402 71 442 71 Z " />
<glyph glyph-name="periodcentered" unicode="&#xb7;" horiz-adv-x="180" d="M48 282 Q48 306 65 322.5 Q82 339 107 339 Q128 339 140.5 327 Q153 315 153 294 Q153 270 136 253.5 Q119 237 94 237 Q73 237 60.5 249 Q48 261 48 282 Z " />
<glyph glyph-name="A" unicode="A" horiz-adv-x="615" d="M469 0 L440 192 L149 192 L39 0 L-44 0 L361 700 L440 700 L549 0 L469 0 Z M190 264 L429 264 L379 594 L190 264 Z " />
<glyph glyph-name="B" unicode="B" horiz-adv-x="614" d="M594 535 Q594 472 552 423 Q510 374 441 356 Q493 342 523 304 Q553 266 553 210 Q553 145 519.5 97.5 Q486 50 426 25 Q366 0 285 0 L27 0 L176 700 L381 700 Q486 700 540 658 Q594 616 594 535 Z M173 317 L121 72 L293 72 Q376 72 424 110 Q472 148 472 211 Q472 317 328 317 L173 317 Z M239 628 L189 389 L325 389 Q411 389 462 428 Q513 467 513 529 Q513 580 478.5 604 Q444 628 373 628 L239 628 Z " />
<glyph glyph-name="C" unicode="C" horiz-adv-x="613" d="M344 -10 Q212 -10 137 69 Q62 148 62 285 Q62 406 115.5 504 Q169 602 256.5 656 Q344 710 447 710 Q495 710 542 697.5 Q589 685 626 663 L599 598 Q520 637 443 637 Q356 637 287 589.5 Q218 542 180.5 464 Q143 386 143 292 Q143 183 198 123 Q253 63 353 63 Q399 63 444 78 Q489 93 523 120 L546 56 Q512 27 456.5 8.5 Q401 -10 344 -10 Z " />
<glyph glyph-name="D" unicode="D" horiz-adv-x="690" d="M176 700 L329 700 Q493 700 576.5 627 Q660 554 660 409 Q660 289 604 194.5 Q548 100 450 50 Q352 0 221 0 L27 0 L176 700 Z M239 628 L121 72 L230 72 Q340 72 418 114.5 Q496 157 537.5 233.5 Q579 310 579 407 Q579 520 516.5 574 Q454 628 323 628 L239 628 Z " />
<glyph glyph-name="E" unicode="E" horiz-adv-x="535" d="M27 0 L176 700 L582 700 L567 628 L239 628 L189 390 L465 390 L450 318 L174 318 L121 72 L462 72 L447 0 L27 0 Z " />
<glyph glyph-name="F" unicode="F" horiz-adv-x="515" d="M27 0 L176 700 L573 700 L558 628 L239 628 L186 375 L452 375 L437 303 L171 303 L106 0 L27 0 Z " />
<glyph glyph-name="G" unicode="G" horiz-adv-x="673" d="M344 -10 Q212 -10 137 69 Q62 148 62 285 Q62 406 116 504 Q170 602 258.5 656 Q347 710 451 710 Q561 710 643 664 L616 599 Q574 619 534.5 628 Q495 637 447 637 Q359 637 289 590 Q219 543 181 464.5 Q143 386 143 292 Q143 183 198 123 Q253 63 353 63 Q440 63 500 93 L546 304 L347 304 L362 376 L640 376 L570 47 Q528 20 469.5 5 Q411 -10 344 -10 Z " />
<glyph glyph-name="H" unicode="H" horiz-adv-x="680" d="M460 0 L528 318 L174 318 L106 0 L27 0 L176 700 L255 700 L189 390 L543 390 L609 700 L688 700 L539 0 L460 0 Z " />
<glyph glyph-name="I" unicode="I" horiz-adv-x="247" d="M27 0 L176 700 L255 700 L106 0 L27 0 Z " />
<glyph glyph-name="J" unicode="J" horiz-adv-x="432" d="M116 -10 Q79 -10 41.5 2 Q4 14 -21 33 L6 97 Q59 62 115 62 Q177 62 211 101 Q245 140 264 231 L364 700 L443 700 L340 217 Q315 98 262 44 Q209 -10 116 -10 Z " />
<glyph glyph-name="K" unicode="K" horiz-adv-x="605" d="M27 0 L176 700 L255 700 L180 347 L567 700 L672 700 L358 412 L547 0 L460 0 L295 362 L156 236 L106 0 L27 0 Z " />
<glyph glyph-name="L" unicode="L" horiz-adv-x="499" d="M27 0 L176 700 L255 700 L121 72 L445 72 L430 0 L27 0 Z " />
<glyph glyph-name="M" unicode="M" horiz-adv-x="810" d="M590 0 L701 523 L407 123 L343 123 L220 537 L106 0 L27 0 L176 700 L253 700 L392 221 L741 700 L818 700 L669 0 L590 0 Z " />
<glyph glyph-name="N" unicode="N" horiz-adv-x="676" d="M27 0 L176 700 L252 700 L484 132 L605 700 L684 700 L535 0 L459 0 L227 568 L106 0 L27 0 Z " />
<glyph glyph-name="O" unicode="O" horiz-adv-x="733" d="M422 637 Q343 637 278.5 588 Q214 539 178.5 460.5 Q143 382 143 292 Q143 188 197 125.5 Q251 63 343 63 Q422 63 486.5 112 Q551 161 586.5 239.5 Q622 318 622 408 Q622 512 568 574.5 Q514 637 422 637 Z M427 710 Q511 710 573.5 672 Q636 634 669.5 567.5 Q703 501 703 415 Q703 294 651.5 196 Q600 98 517 44 Q434 -10 338 -10 Q254 -10 191.5 28 Q129 66 95.5 132.5 Q62 199 62 285 Q62 406 113.5 504 Q165 602 248 656 Q331 710 427 710 Z " />
<glyph glyph-name="P" unicode="P" horiz-adv-x="593" d="M161 260 L106 0 L27 0 L176 700 L370 700 Q478 700 533 652 Q588 604 588 510 Q588 435 552 377.5 Q516 320 453 290 Q390 260 307 260 L161 260 Z M177 332 L314 332 Q375 332 418 353.5 Q461 375 484 414.5 Q507 454 507 505 Q507 568 472.5 598 Q438 628 365 628 L240 628 L177 332 Z " />
<glyph glyph-name="Q" unicode="Q" horiz-adv-x="733" d="M427 710 Q511 710 573.5 672 Q636 634 669.5 567.5 Q703 501 703 415 Q703 297 652 197 Q601 97 514 42 L563 -64 L498 -92 L451 10 Q396 -10 338 -10 Q254 -10 191.5 28 Q129 66 95.5 132.5 Q62 199 62 285 Q62 406 113.5 504 Q165 602 248 656 Q331 710 427 710 Z M422 637 Q343 637 278.5 588 Q214 539 178.5 460.5 Q143 382 143 292 Q143 188 197 125.5 Q251 63 343 63 Q385 63 420 76 L368 190 L433 218 L482 109 Q547 156 584.5 235.5 Q622 315 622 408 Q622 512 568 574.5 Q514 637 422 637 Z " />
<glyph glyph-name="R" unicode="R" horiz-adv-x="608" d="M432 0 L318 272 L164 272 L106 0 L27 0 L176 700 L365 700 Q475 700 531.5 653.5 Q588 607 588 517 Q588 428 537 365 Q486 302 396 281 L520 0 L432 0 Z M507 510 Q507 570 471 599 Q435 628 360 628 L239 628 L179 344 L314 344 Q405 344 456 388.5 Q507 433 507 510 Z " />
<glyph glyph-name="S" unicode="S" horiz-adv-x="576" d="M239 -10 Q178 -10 117.5 9.5 Q57 29 13 62 L42 127 Q85 97 136.5 80 Q188 63 238 63 Q294 63 334.5 80 Q375 97 396.5 127 Q418 157 418 193 Q418 236 392 262.5 Q366 289 284 326 L253 340 Q182 372 150.5 413 Q119 454 119 513 Q119 601 185.5 655.5 Q252 710 359 710 Q414 710 468 694.5 Q522 679 562 651 L536 585 Q444 637 358 637 Q286 637 243 604 Q200 571 200 517 Q200 480 222 455.5 Q244 431 297 407 L328 393 Q392 364 428.5 337 Q465 310 482 276.5 Q499 243 499 199 Q499 137 465.5 89 Q432 41 373.5 15.5 Q315 -10 239 -10 Z " />
<glyph glyph-name="T" unicode="T" horiz-adv-x="570" d="M190 0 L323 628 L98 628 L113 700 L642 700 L627 628 L402 628 L269 0 L190 0 Z " />
<glyph glyph-name="U" unicode="U" horiz-adv-x="652" d="M572 273 Q541 127 471.5 58.5 Q402 -10 284 -10 Q182 -10 124 43.5 Q66 97 66 189 Q66 248 83 328 L162 700 L241 700 L161 325 Q145 253 145 199 Q145 134 182.5 98.5 Q220 63 290 63 Q448 63 494 277 L584 700 L663 700 L572 273 Z " />
<glyph glyph-name="V" unicode="V" horiz-adv-x="593" d="M185 700 L256 83 L589 700 L672 700 L281 0 L200 0 L105 700 L185 700 Z " />
<glyph glyph-name="W" unicode="W" horiz-adv-x="822" d="M132 0 L110 700 L188 700 L200 128 L449 640 L522 640 L548 125 L806 700 L887 700 L568 0 L484 0 L460 514 L211 0 L132 0 Z " />
<glyph glyph-name="X" unicode="X" horiz-adv-x="585" d="M269 360 L131 700 L215 700 L328 415 L559 700 L651 700 L364 350 L506 0 L422 0 L305 295 L66 0 L-26 0 L269 360 Z " />
<glyph glyph-name="Y" unicode="Y" horiz-adv-x="565" d="M244 282 L102 700 L182 700 L293 348 L560 700 L649 700 L323 282 L264 0 L185 0 L244 282 Z " />
<glyph glyph-name="Z" unicode="Z" horiz-adv-x="582" d="M-6 0 L8 69 L497 628 L133 628 L148 700 L611 700 L597 631 L108 72 L496 72 L481 0 L-6 0 Z " />
<glyph glyph-name="a" unicode="a" horiz-adv-x="569" d="M373 0 L378 62 Q300 -10 209 -10 Q131 -10 85 45.5 Q39 101 39 197 Q39 292 79 368.5 Q119 445 184 487.5 Q249 530 325 530 Q365 530 401.5 514.5 Q438 499 465 471 L484 519 L544 519 L433 0 L373 0 Z M232 56 Q269 56 310.5 77.5 Q352 99 386 134 L446 413 Q422 437 390 450.5 Q358 464 325 464 Q265 464 216.5 428.5 Q168 393 141.5 334.5 Q115 276 115 207 Q115 134 145 95 Q175 56 232 56 Z " />
<glyph glyph-name="b" unicode="b" horiz-adv-x="568" d="M259 750 L197 463 Q273 530 359 530 Q438 530 483.5 474 Q529 418 529 322 Q529 228 489.5 151 Q450 74 385 32 Q320 -10 243 -10 Q202 -10 165.5 5 Q129 20 103 48 L83 0 L24 0 L184 750 L259 750 Z M336 464 Q258 464 183 391 L122 106 Q146 82 177.5 69 Q209 56 243 56 Q304 56 352 91.5 Q400 127 426.5 185.5 Q453 244 453 312 Q453 386 423 425 Q393 464 336 464 Z " />
<glyph glyph-name="c" unicode="c" horiz-adv-x="488" d="M241 -10 Q143 -10 91 46 Q39 102 39 208 Q39 298 82.5 372.5 Q126 447 195 488.5 Q264 530 342 530 Q420 530 478 491 L450 433 Q400 463 337 463 Q275 463 223.5 427 Q172 391 143.5 334.5 Q115 278 115 213 Q115 137 151 97 Q187 57 255 57 Q322 57 393 110 L410 51 Q378 23 332.5 6.5 Q287 -10 241 -10 Z " />
<glyph glyph-name="d" unicode="d" horiz-adv-x="568" d="M373 0 L377 59 Q301 -10 209 -10 Q131 -10 85 45.5 Q39 101 39 197 Q39 292 79 368.5 Q119 445 184 487.5 Q249 530 325 530 Q363 530 398 515.5 Q433 501 459 475 L518 750 L593 750 L433 0 L373 0 Z M232 56 Q311 56 385 128 L446 413 Q422 437 390 450.5 Q358 464 325 464 Q265 464 216.5 428.5 Q168 393 141.5 334.5 Q115 276 115 207 Q115 134 145 95 Q175 56 232 56 Z " />
<glyph glyph-name="e" unicode="e" horiz-adv-x="522" d="M243 -10 Q146 -10 92.5 47 Q39 104 39 208 Q39 298 83 372.5 Q127 447 197 488.5 Q267 530 347 530 Q413 530 452.5 495 Q492 460 492 402 Q492 315 404 263.5 Q316 212 168 212 Q138 212 114 215 L114 211 Q114 136 151 96 Q188 56 256 56 Q339 56 412 110 L429 51 Q352 -10 243 -10 Z M337 464 Q262 464 200.5 410.5 Q139 357 120 277 Q144 275 163 275 Q277 275 347 307.5 Q417 340 417 394 Q417 427 396 445.5 Q375 464 337 464 Z " />
<glyph glyph-name="f" unicode="f" horiz-adv-x="353" d="M67 519 L163 519 L173 567 Q193 660 245.5 710 Q298 760 375 760 Q423 760 455 741 L432 682 Q402 694 376 694 Q274 694 247 562 L238 519 L387 519 L374 455 L224 455 L100 -125 L25 -125 L149 455 L54 455 L67 519 Z " />
<glyph glyph-name="g" unicode="g" horiz-adv-x="577" d="M167 -226 Q120 -226 75 -214.5 Q30 -203 1 -183 L25 -122 Q93 -160 170 -160 Q253 -160 301 -120 Q349 -80 367 5 L379 64 Q306 0 217 0 Q139 0 93 55 Q47 110 47 202 Q47 295 87.5 370.5 Q128 446 192.5 488 Q257 530 333 530 Q373 530 409.5 514.5 Q446 499 473 471 L492 519 L552 519 L441 1 Q393 -226 167 -226 Z M240 66 Q322 66 396 142 L454 413 Q430 437 398 450.5 Q366 464 333 464 Q272 464 224 428.5 Q176 393 149.5 335.5 Q123 278 123 212 Q123 141 153.5 103.5 Q184 66 240 66 Z " />
<glyph glyph-name="h" unicode="h" horiz-adv-x="565" d="M196 455 Q282 530 380 530 Q445 530 480.5 495 Q516 460 516 397 Q516 362 501 290 L439 0 L364 0 L426 291 Q438 348 438 379 Q438 421 416 441 Q394 461 347 461 Q264 461 182 387 L99 0 L24 0 L184 750 L259 750 L196 455 Z " />
<glyph glyph-name="i" unicode="i" horiz-adv-x="235" d="M135 519 L210 519 L99 0 L24 0 L135 519 Z M152 673 Q152 696 168.5 711.5 Q185 727 209 727 Q228 727 240 715.5 Q252 704 252 686 Q252 663 235.5 647.5 Q219 632 195 632 Q176 632 164 643.5 Q152 655 152 673 Z " />
<glyph glyph-name="j" unicode="j" horiz-adv-x="235" d="M210 519 L89 -47 Q69 -139 30.5 -182.5 Q-8 -226 -72 -226 Q-93 -226 -114.5 -221 Q-136 -216 -150 -207 L-128 -147 Q-103 -160 -76 -160 Q-42 -160 -20.5 -132.5 Q1 -105 14 -47 L135 519 L210 519 Z M152 673 Q152 696 168.5 711.5 Q185 727 209 727 Q228 727 240 715.5 Q252 704 252 686 Q252 663 235.5 647.5 Q219 632 195 632 Q176 632 164 643.5 Q152 655 152 673 Z " />
<glyph glyph-name="k" unicode="k" horiz-adv-x="525" d="M184 750 L259 750 L163 300 L455 519 L557 519 L290 311 L457 0 L372 0 L228 269 L142 203 L99 0 L24 0 L184 750 Z " />
<glyph glyph-name="l" unicode="l" horiz-adv-x="235" d="M185 750 L260 750 L100 0 L25 0 L185 750 Z " />
<glyph glyph-name="m" unicode="m" horiz-adv-x="882" d="M192 453 Q235 490 282 510 Q329 530 376 530 Q424 530 456.5 506 Q489 482 500 438 Q550 483 602 506.5 Q654 530 705 530 Q764 530 798.5 494.5 Q833 459 833 397 Q833 362 818 290 L756 0 L681 0 L743 291 Q755 348 755 379 Q755 461 672 461 Q633 461 589 440 Q545 419 504 381 Q503 350 490 290 L428 0 L353 0 L415 291 Q427 348 427 379 Q427 461 343 461 Q305 461 263.5 442 Q222 423 182 387 L99 0 L24 0 L135 519 L198 519 L192 453 Z " />
<glyph glyph-name="n" unicode="n" horiz-adv-x="565" d="M192 453 Q280 530 380 530 Q445 530 480.5 495 Q516 460 516 397 Q516 362 501 290 L439 0 L364 0 L426 291 Q438 348 438 379 Q438 421 416 441 Q394 461 347 461 Q264 461 182 387 L99 0 L24 0 L135 519 L198 519 L192 453 Z " />
<glyph glyph-name="o" unicode="o" horiz-adv-x="568" d="M529 312 Q529 221 488.5 146.5 Q448 72 383 31 Q318 -10 243 -10 Q150 -10 94.5 49 Q39 108 39 208 Q39 299 79.5 373.5 Q120 448 185 489 Q250 530 325 530 Q418 530 473.5 471 Q529 412 529 312 Z M250 56 Q307 56 354 92 Q401 128 427 185 Q453 242 453 307 Q453 379 416.5 421.5 Q380 464 318 464 Q261 464 214 428 Q167 392 141 335 Q115 278 115 213 Q115 141 151.5 98.5 Q188 56 250 56 Z " />
<glyph glyph-name="p" unicode="p" horiz-adv-x="567" d="M194 519 L189 460 Q267 530 358 530 Q437 530 482.5 474 Q528 418 528 322 Q528 228 488.5 151 Q449 74 384 32 Q319 -10 242 -10 Q203 -10 168 4 Q133 18 107 44 L52 -216 L-23 -216 L134 519 L194 519 Z M335 464 Q257 464 182 391 L121 106 Q145 82 176.5 69 Q208 56 242 56 Q303 56 351 91.5 Q399 127 425.5 185.5 Q452 244 452 312 Q452 386 422 425 Q392 464 335 464 Z " />
<glyph glyph-name="q" unicode="q" horiz-adv-x="569" d="M312 -216 L370 52 Q296 -10 209 -10 Q131 -10 85 45.5 Q39 101 39 197 Q39 292 79 368.5 Q119 445 184 487.5 Q249 530 325 530 Q365 530 401.5 514.5 Q438 499 465 471 L484 519 L544 519 L387 -216 L312 -216 Z M232 56 Q311 56 385 128 L446 413 Q422 437 390 450.5 Q358 464 325 464 Q265 464 216.5 428.5 Q168 393 141.5 334.5 Q115 276 115 207 Q115 134 145 95 Q175 56 232 56 Z " />
<glyph glyph-name="r" unicode="r" horiz-adv-x="376" d="M192 452 Q278 530 370 530 Q390 530 410 525 L391 453 Q364 458 347 458 Q263 458 181 387 L99 0 L24 0 L135 519 L198 519 L192 452 Z " />
<glyph glyph-name="s" unicode="s" horiz-adv-x="462" d="M195 -10 Q143 -10 96 5 Q49 20 13 48 L38 105 Q111 55 196 55 Q252 55 285 78.5 Q318 102 318 142 Q318 162 309.5 176 Q301 190 281 203.5 Q261 217 222 233 L196 244 Q134 270 109 299.5 Q84 329 84 375 Q84 421 111 456.5 Q138 492 183.5 511 Q229 530 285 530 Q373 530 440 485 L415 427 Q351 465 281 465 Q226 465 192.5 442 Q159 419 159 381 Q159 356 176 339.5 Q193 323 235 305 L261 294 Q335 263 364 231.5 Q393 200 393 151 Q393 103 366.5 66.5 Q340 30 295.5 10 Q251 -10 195 -10 Z " />
<glyph glyph-name="t" unicode="t" horiz-adv-x="389" d="M186 -10 Q128 -10 96.5 20.5 Q65 51 65 109 Q65 141 73 181 L131 455 L41 455 L54 519 L146 519 L193 667 L251 667 L219 519 L390 519 L377 455 L206 455 L149 189 Q142 157 142 127 Q142 56 207 56 Q228 56 255.5 66.5 Q283 77 308 95 L324 38 Q296 16 259 3 Q222 -10 186 -10 Z " />
<glyph glyph-name="u" unicode="u" horiz-adv-x="560" d="M361 0 L367 67 Q281 -10 180 -10 Q118 -10 83 24.5 Q48 59 48 122 Q48 157 63 229 L125 519 L200 519 L138 228 Q126 171 126 140 Q126 98 147.5 78.5 Q169 59 213 59 Q252 59 295.5 79 Q339 99 378 135 L460 519 L535 519 L424 0 L361 0 Z " />
<glyph glyph-name="v" unicode="v" horiz-adv-x="493" d="M152 0 L64 519 L144 519 L205 91 L446 519 L531 519 L223 0 L152 0 Z " />
<glyph glyph-name="w" unicode="w" horiz-adv-x="737" d="M68 519 L146 519 L179 111 L379 500 L447 500 L484 114 L687 519 L770 519 L497 0 L431 0 L391 390 L188 0 L122 0 L68 519 Z " />
<glyph glyph-name="x" unicode="x" horiz-adv-x="501" d="M211 272 L90 519 L172 519 L265 323 L444 519 L531 519 L297 262 L425 0 L343 0 L242 212 L49 0 L-38 0 L211 272 Z " />
<glyph glyph-name="y" unicode="y" horiz-adv-x="487" d="M-11 -226 Q-55 -226 -90 -204 L-65 -145 Q-37 -160 -11 -160 Q24 -160 57 -129 Q90 -98 133 -23 L154 14 L64 519 L144 519 L209 99 L446 519 L531 519 L218 -7 Q169 -90 132.5 -137 Q96 -184 63.5 -205 Q31 -226 -11 -226 Z " />
<glyph glyph-name="z" unicode="z" horiz-adv-x="494" d="M11 58 L380 455 L106 455 L119 519 L487 519 L475 461 L106 64 L398 64 L385 0 L-1 0 L11 58 Z " />
<glyph glyph-name="trademark" unicode="&#x2122;" horiz-adv-x="795" d="M418 316 L418 700 L488 700 L608 440 L726 700 L798 700 L798 316 L734 316 L734 584 L633 365 L581 365 L480 584 L480 316 L418 316 Z M169 641 L48 641 L48 700 L355 700 L355 641 L234 641 L234 316 L169 316 L169 641 Z " />
<glyph glyph-name="ordfeminine" unicode="&#xaa;" horiz-adv-x="389" d="M303 348 L306 384 Q255 340 195 340 Q141 340 109 377 Q77 414 77 477 Q77 540 104.5 591.5 Q132 643 176.5 671.5 Q221 700 272 700 Q297 700 322.5 690 Q348 680 365 664 L377 693 L427 693 L352 348 L303 348 Z M216 396 Q238 396 264.5 408.5 Q291 421 311 440 L349 615 Q334 628 313 636 Q292 644 272 644 Q236 644 205.5 621 Q175 598 158 561.5 Q141 525 141 484 Q141 442 160.5 419 Q180 396 216 396 Z M58 235 L70 293 L340 293 L328 235 L58 235 Z " />
<glyph glyph-name="ordmasculine" unicode="&#xba;" horiz-adv-x="399" d="M52 235 L64 293 L347 293 L335 235 L52 235 Z M224 395 Q259 395 289.5 417.5 Q320 440 337 475 Q354 510 354 550 Q354 593 331.5 619 Q309 645 270 645 Q235 645 204.5 622.5 Q174 600 157 565 Q140 530 140 490 Q140 447 162.5 421 Q185 395 224 395 Z M218 340 Q154 340 115 380 Q76 420 76 485 Q76 546 104.5 595.5 Q133 645 178.5 672.5 Q224 700 276 700 Q339 700 378.5 660.5 Q418 621 418 556 Q418 495 389.5 445 Q361 395 315.5 367.5 Q270 340 218 340 Z " />
<glyph glyph-name="copyright" unicode="&#xa9;" horiz-adv-x="594" d="M338 336 Q269 336 225.5 379.5 Q182 423 182 494 Q182 563 226 607.5 Q270 652 338 652 Q384 652 422 633 L408 582 Q376 595 345 595 Q299 595 272.5 568 Q246 541 246 494 Q246 447 272.5 420 Q299 393 345 393 Q377 393 411 408 L426 359 Q388 336 338 336 Z M327 224 Q248 224 187 260 Q126 296 93.5 357.5 Q61 419 61 494 Q61 574 96.5 636 Q132 698 192 731 Q252 764 327 764 Q406 764 467 728 Q528 692 560.5 630.5 Q593 569 593 494 Q593 414 557.5 352 Q522 290 462 257 Q402 224 327 224 Z M327 272 Q392 272 440 300.5 Q488 329 513.5 379 Q539 429 539 494 Q539 562 511.5 612.5 Q484 663 436 689.5 Q388 716 327 716 Q262 716 214 687.5 Q166 659 140.5 609 Q115 559 115 494 Q115 426 142.5 375.5 Q170 325 218 298.5 Q266 272 327 272 Z " />
<glyph glyph-name="registered" unicode="&#xae;" horiz-adv-x="594" d="M223 645 L343 645 Q392 645 422 619 Q452 593 452 550 Q452 520 435.5 497 Q419 474 391 463 L461 354 L392 354 L331 454 L283 454 L283 354 L223 354 L223 645 Z M283 504 L342 504 Q390 504 390 550 Q390 594 342 594 L283 594 L283 504 Z M327 224 Q248 224 187 260 Q126 296 93.5 357.5 Q61 419 61 494 Q61 574 96.5 636 Q132 698 192 731 Q252 764 327 764 Q406 764 467 728 Q528 692 560.5 630.5 Q593 569 593 494 Q593 414 557.5 352 Q522 290 462 257 Q402 224 327 224 Z M327 272 Q392 272 440 300.5 Q488 329 513.5 379 Q539 429 539 494 Q539 562 511.5 612.5 Q484 663 436 689.5 Q388 716 327 716 Q262 716 214 687.5 Q166 659 140.5 609 Q115 559 115 494 Q115 426 142.5 375.5 Q170 325 218 298.5 Q266 272 327 272 Z " />
<glyph glyph-name="quoteleft" unicode="&#x2018;" horiz-adv-x="157" d="M235 690 Q199 666 178 642.5 Q157 619 144 590 Q177 585 177 550 Q177 528 161 513 Q145 498 122 498 Q102 498 90.5 511 Q79 524 79 546 Q79 589 116 637 Q153 685 214 720 L235 690 Z " />
<glyph glyph-name="quoteright" unicode="&#x2019;" horiz-adv-x="157" d="M52 518 Q88 542 109 565.5 Q130 589 143 618 Q110 623 110 658 Q110 680 126 695 Q142 710 165 710 Q185 710 196.5 697 Q208 684 208 662 Q208 619 171 571 Q134 523 73 488 L52 518 Z " />
<glyph glyph-name="quotesinglbase" unicode="&#x201a;" horiz-adv-x="157" d="M-82 -105 Q-46 -81 -25 -57.5 Q-4 -34 9 -5 Q-24 0 -24 35 Q-24 57 -8 72 Q8 87 31 87 Q51 87 62.5 74 Q74 61 74 39 Q74 -4 37 -52 Q0 -100 -61 -135 L-82 -105 Z " />
<glyph glyph-name="quotedblleft" unicode="&#x201c;" horiz-adv-x="308" d="M235 690 Q199 666 178 642.5 Q157 619 144 590 Q177 585 177 550 Q177 528 161 513 Q145 498 122 498 Q102 498 90.5 511 Q79 524 79 546 Q79 589 116 637 Q153 685 214 720 L235 690 Z M386 690 Q350 666 329 642.5 Q308 619 295 590 Q328 585 328 550 Q328 528 312 513 Q296 498 273 498 Q253 498 241.5 511 Q230 524 230 546 Q230 589 267 637 Q304 685 365 720 L386 690 Z " />
<glyph glyph-name="quotedblright" unicode="&#x201d;" horiz-adv-x="308" d="M52 518 Q88 542 109 565.5 Q130 589 143 618 Q110 623 110 658 Q110 680 126 695 Q142 710 165 710 Q185 710 196.5 697 Q208 684 208 662 Q208 619 171 571 Q134 523 73 488 L52 518 Z M203 518 Q239 542 260 565.5 Q281 589 294 618 Q261 623 261 658 Q261 680 277 695 Q293 710 316 710 Q336 710 347.5 697 Q359 684 359 662 Q359 619 322 571 Q285 523 224 488 L203 518 Z " />
<glyph glyph-name="quotedblbase" unicode="&#x201e;" horiz-adv-x="308" d="M-82 -106 Q-46 -82 -25 -58.5 Q-4 -35 9 -6 Q-24 -1 -24 34 Q-24 56 -8 71 Q8 86 31 86 Q51 86 62.5 73 Q74 60 74 38 Q74 -5 37 -53 Q0 -101 -61 -136 L-82 -106 Z M69 -106 Q105 -82 126 -58.5 Q147 -35 160 -6 Q127 -1 127 34 Q127 56 143 71 Q159 86 182 86 Q202 86 213.5 73 Q225 60 225 38 Q225 -5 188 -53 Q151 -101 90 -136 L69 -106 Z " />
<glyph glyph-name="minute" unicode="&#x2032;" horiz-adv-x="183" d="M166 700 L251 700 L149 486 L85 486 L166 700 Z " />
<glyph glyph-name="second" unicode="&#x2033;" horiz-adv-x="350" d="M166 700 L251 700 L149 486 L85 486 L166 700 Z M333 700 L418 700 L316 486 L252 486 L333 700 Z " />
<glyph glyph-name="dotlessi" unicode="&#x131;" horiz-adv-x="235" d="M135 519 L210 519 L99 0 L24 0 L135 519 Z " />
<glyph glyph-name="uni0237" unicode="&#x237;" horiz-adv-x="235" d="M210 519 L89 -47 Q69 -139 30.5 -182.5 Q-8 -226 -72 -226 Q-93 -226 -114.5 -221 Q-136 -216 -150 -207 L-128 -147 Q-103 -160 -76 -160 Q-42 -160 -20.5 -132.5 Q1 -105 14 -47 L135 519 L210 519 Z " />
<glyph glyph-name="IJ" unicode="&#x132;" horiz-adv-x="681" d="M27 0 L176 700 L255 700 L106 0 L27 0 Z M365 -10 Q328 -10 290.5 2 Q253 14 228 33 L255 97 Q308 62 364 62 Q426 62 460 101 Q494 140 513 231 L613 700 L692 700 L589 217 Q564 98 511 44 Q458 -10 365 -10 Z " />
<glyph glyph-name="ij" unicode="&#x133;" horiz-adv-x="475" d="M135 519 L210 519 L99 0 L24 0 L135 519 Z M152 673 Q152 696 168.5 711.5 Q185 727 209 727 Q228 727 240 715.5 Q252 704 252 686 Q252 663 235.5 647.5 Q219 632 195 632 Q176 632 164 643.5 Q152 655 152 673 Z M450 519 L329 -47 Q309 -139 270.5 -182.5 Q232 -226 168 -226 Q147 -226 125.5 -221 Q104 -216 90 -207 L112 -147 Q137 -160 164 -160 Q198 -160 219.5 -132.5 Q241 -105 254 -47 L375 519 L450 519 Z M392 673 Q392 696 408.5 711.5 Q425 727 449 727 Q468 727 480 715.5 Q492 704 492 686 Q492 663 475.5 647.5 Q459 632 435 632 Q416 632 404 643.5 Q392 655 392 673 Z " />
<glyph glyph-name="f_b" unicode="&#xf600;" horiz-adv-x="909" d="M67 519 L163 519 L173 567 Q192 659 244 709.5 Q296 760 370 760 Q411 760 441 746 L419 685 Q396 694 371 694 Q274 694 247 562 L238 519 L383 519 L370 455 L224 455 L100 -125 L25 -125 L149 455 L54 455 L67 519 Z M600 750 L538 463 Q614 530 700 530 Q779 530 824.5 474 Q870 418 870 322 Q870 228 830.5 151 Q791 74 726 32 Q661 -10 584 -10 Q543 -10 506.5 5 Q470 20 444 48 L424 0 L365 0 L525 750 L600 750 Z M677 464 Q599 464 524 391 L463 106 Q487 82 518.5 69 Q550 56 584 56 Q645 56 693 91.5 Q741 127 767.5 185.5 Q794 244 794 312 Q794 386 764 425 Q734 464 677 464 Z " />
<glyph glyph-name="ff" unicode="&#xfb00;" horiz-adv-x="666" d="M67 519 L163 519 L173 567 Q192 659 244 709.5 Q296 760 370 760 Q411 760 441 746 L419 685 Q396 694 371 694 Q274 694 247 562 L238 519 L509 519 L496 455 L224 455 L100 -125 L25 -125 L149 455 L54 455 L67 519 Z M380 519 L476 519 L486 567 Q506 660 558.5 710 Q611 760 688 760 Q736 760 768 741 L745 682 Q715 694 689 694 Q587 694 560 562 L551 519 L700 519 L687 455 L537 455 L413 -125 L338 -125 L462 455 L367 455 L380 519 Z " />
<glyph glyph-name="f_h" unicode="&#xf604;" horiz-adv-x="906" d="M67 519 L163 519 L173 567 Q192 659 244 709.5 Q296 760 370 760 Q411 760 441 746 L419 685 Q396 694 371 694 Q274 694 247 562 L238 519 L383 519 L370 455 L224 455 L100 -125 L25 -125 L149 455 L54 455 L67 519 Z M537 455 Q623 530 721 530 Q786 530 821.5 495 Q857 460 857 397 Q857 362 842 290 L780 0 L705 0 L767 291 Q779 348 779 379 Q779 421 757 441 Q735 461 688 461 Q605 461 523 387 L440 0 L365 0 L525 750 L600 750 L537 455 Z " />
<glyph glyph-name="fi" unicode="&#xfb01;" horiz-adv-x="576" d="M67 519 L163 519 L173 567 Q192 659 244 709.5 Q296 760 370 760 Q411 760 441 746 L419 685 Q396 694 371 694 Q274 694 247 562 L238 519 L509 519 L496 455 L224 455 L100 -125 L25 -125 L149 455 L54 455 L67 519 Z M476 519 L551 519 L440 0 L365 0 L476 519 Z M493 673 Q493 696 509.5 711.5 Q526 727 550 727 Q569 727 581 715.5 Q593 704 593 686 Q593 663 576.5 647.5 Q560 632 536 632 Q517 632 505 643.5 Q493 655 493 673 Z " />
<glyph glyph-name="f_j" unicode="&#xf601;" horiz-adv-x="576" d="M67 519 L163 519 L173 567 Q192 659 244 709.5 Q296 760 370 760 Q411 760 441 746 L419 685 Q396 694 371 694 Q274 694 247 562 L238 519 L509 519 L496 455 L224 455 L100 -125 L25 -125 L149 455 L54 455 L67 519 Z M551 519 L430 -47 Q410 -139 371.5 -182.5 Q333 -226 269 -226 Q248 -226 226.5 -221 Q205 -216 191 -207 L213 -147 Q238 -160 265 -160 Q299 -160 320.5 -132.5 Q342 -105 355 -47 L476 519 L551 519 Z M493 673 Q493 696 509.5 711.5 Q526 727 550 727 Q569 727 581 715.5 Q593 704 593 686 Q593 663 576.5 647.5 Q560 632 536 632 Q517 632 505 643.5 Q493 655 493 673 Z " />
<glyph glyph-name="f_k" unicode="&#xf602;" horiz-adv-x="866" d="M67 519 L163 519 L173 567 Q192 659 244 709.5 Q296 760 370 760 Q411 760 441 746 L419 685 Q396 694 371 694 Q274 694 247 562 L238 519 L383 519 L370 455 L224 455 L100 -125 L25 -125 L149 455 L54 455 L67 519 Z M525 750 L600 750 L504 300 L796 519 L898 519 L631 311 L798 0 L713 0 L569 269 L483 203 L440 0 L365 0 L525 750 Z " />
<glyph glyph-name="fl" unicode="&#xfb02;" horiz-adv-x="575" d="M67 519 L163 519 L173 567 Q192 659 244 709.5 Q296 760 370 760 Q411 760 441 746 L419 685 Q396 694 371 694 Q274 694 247 562 L238 519 L383 519 L370 455 L224 455 L100 -125 L25 -125 L149 455 L54 455 L67 519 Z M525 750 L600 750 L440 0 L365 0 L525 750 Z " />
<glyph glyph-name="f_t" unicode="&#xf603;" horiz-adv-x="715" d="M67 519 L163 519 L173 567 Q192 659 244 709.5 Q296 760 370 760 Q411 760 441 746 L419 685 Q396 694 371 694 Q274 694 247 562 L238 519 L509 519 L496 455 L224 455 L100 -125 L25 -125 L149 455 L54 455 L67 519 Z M512 -10 Q454 -10 422.5 20.5 Q391 51 391 109 Q391 141 399 181 L457 455 L367 455 L380 519 L472 519 L519 667 L577 667 L545 519 L716 519 L703 455 L532 455 L475 189 Q468 157 468 127 Q468 56 533 56 Q554 56 581.5 66.5 Q609 77 634 95 L650 38 Q622 16 585 3 Q548 -10 512 -10 Z " />
<glyph glyph-name="ffi" unicode="&#xfb03;" horiz-adv-x="889" d="M67 519 L163 519 L173 567 Q192 659 244 709.5 Q296 760 370 760 Q411 760 441 746 L419 685 Q396 694 371 694 Q274 694 247 562 L238 519 L509 519 L496 455 L224 455 L100 -125 L25 -125 L149 455 L54 455 L67 519 Z M380 519 L476 519 L486 567 Q505 659 557 709.5 Q609 760 683 760 Q724 760 754 746 L732 685 Q709 694 684 694 Q587 694 560 562 L551 519 L822 519 L809 455 L537 455 L413 -125 L338 -125 L462 455 L367 455 L380 519 Z M789 519 L864 519 L753 0 L678 0 L789 519 Z M806 673 Q806 696 822.5 711.5 Q839 727 863 727 Q882 727 894 715.5 Q906 704 906 686 Q906 663 889.5 647.5 Q873 632 849 632 Q830 632 818 643.5 Q806 655 806 673 Z " />
<glyph glyph-name="ffl" unicode="&#xfb04;" horiz-adv-x="888" d="M67 519 L163 519 L173 567 Q192 659 244 709.5 Q296 760 370 760 Q411 760 441 746 L419 685 Q396 694 371 694 Q274 694 247 562 L238 519 L509 519 L496 455 L224 455 L100 -125 L25 -125 L149 455 L54 455 L67 519 Z M380 519 L476 519 L486 567 Q505 659 557 709.5 Q609 760 683 760 Q724 760 754 746 L732 685 Q709 694 684 694 Q587 694 560 562 L551 519 L696 519 L683 455 L537 455 L413 -125 L338 -125 L462 455 L367 455 L380 519 Z M838 750 L913 750 L753 0 L678 0 L838 750 Z " />
<glyph glyph-name="Thorn" unicode="&#xde;" horiz-adv-x="593" d="M255 700 L228 575 L343 575 Q451 575 506 527 Q561 479 561 385 Q561 310 525 252.5 Q489 195 426 165 Q363 135 280 135 L134 135 L106 0 L27 0 L176 700 L255 700 Z M213 503 L150 207 L287 207 Q348 207 391 228.5 Q434 250 457 289.5 Q480 329 480 380 Q480 443 445.5 473 Q411 503 338 503 L213 503 Z " />
<glyph glyph-name="AE" unicode="&#xc6;" horiz-adv-x="908" d="M405 0 L451 218 L202 218 L31 0 L-59 0 L496 700 L955 700 L940 628 L617 628 L567 390 L838 390 L823 318 L552 318 L499 72 L835 72 L820 0 L405 0 Z M467 290 L539 629 L525 629 L258 290 L467 290 Z " />
<glyph glyph-name="OE" unicode="&#x152;" horiz-adv-x="1044" d="M427 710 Q507 710 568 672 Q629 634 661 565 L690 700 L1091 700 L1076 628 L753 628 L703 390 L974 390 L959 318 L688 318 L635 72 L971 72 L956 0 L541 0 L558 81 Q511 37 454.5 13.5 Q398 -10 338 -10 Q254 -10 191.5 28 Q129 66 95.5 132.5 Q62 199 62 285 Q62 406 113.5 504 Q165 602 248 656 Q331 710 427 710 Z M422 637 Q343 637 278.5 588 Q214 539 178.5 460.5 Q143 382 143 292 Q143 188 197 125.5 Q251 63 343 63 Q422 63 486.5 112 Q551 161 586.5 239.5 Q622 318 622 408 Q622 512 568 574.5 Q514 637 422 637 Z " />
<glyph glyph-name="uni1E9E" unicode="&#x1e9e;" horiz-adv-x="685" d="M394 -10 Q352 -10 311.5 1 Q271 12 239 32 L264 98 Q326 63 395 63 Q442 63 479 83 Q516 103 536 136.5 Q556 170 556 212 Q556 270 515.5 300.5 Q475 331 398 331 Q378 331 364 330 L378 398 L595 606 Q563 620 521.5 628.5 Q480 637 444 637 Q337 637 276.5 578 Q216 519 189 391 L106 0 L27 0 L112 399 Q145 556 228.5 633 Q312 710 448 710 Q509 710 575.5 690.5 Q642 671 681 642 L668 582 L468 393 Q547 385 592 338 Q637 291 637 216 Q637 148 605 96.5 Q573 45 517.5 17.5 Q462 -10 394 -10 Z " />
<glyph glyph-name="thorn" unicode="&#xfe;" horiz-adv-x="567" d="M259 750 L197 463 Q273 530 359 530 Q438 530 483.5 474 Q529 418 529 322 Q529 228 489.5 151 Q450 74 385 32 Q320 -10 243 -10 Q204 -10 169 4 Q134 18 108 44 L53 -216 L-22 -216 L184 750 L259 750 Z M336 464 Q258 464 183 391 L122 106 Q146 82 177.5 69 Q209 56 243 56 Q304 56 352 91.5 Q400 127 426.5 185.5 Q453 244 453 312 Q453 386 423 425 Q393 464 336 464 Z " />
<glyph glyph-name="ae" unicode="&#xe6;" horiz-adv-x="893" d="M373 0 L378 62 Q300 -10 209 -10 Q131 -10 85 45.5 Q39 101 39 197 Q39 292 79 368.5 Q119 445 184 487.5 Q249 530 325 530 Q365 530 401.5 514.5 Q438 499 465 471 L484 519 L544 519 L529 450 Q569 489 617.5 509.5 Q666 530 718 530 Q784 530 823.5 495 Q863 460 863 402 Q863 315 775 263.5 Q687 212 539 212 Q509 212 485 215 L485 211 Q485 136 522 96 Q559 56 627 56 Q710 56 783 110 L800 51 Q723 -10 614 -10 Q556 -10 514.5 15.5 Q473 41 452 89 L433 0 L373 0 Z M232 56 Q269 56 310.5 77.5 Q352 99 386 134 L446 413 Q422 437 390 450.5 Q358 464 325 464 Q265 464 216.5 428.5 Q168 393 141.5 334.5 Q115 276 115 207 Q115 134 145 95 Q175 56 232 56 Z M708 464 Q633 464 571.5 410.5 Q510 357 491 277 Q515 275 534 275 Q648 275 718 307.5 Q788 340 788 394 Q788 427 767 445.5 Q746 464 708 464 Z " />
<glyph glyph-name="oe" unicode="&#x153;" horiz-adv-x="929" d="M650 -10 Q579 -10 531.5 24 Q484 58 466 123 Q427 60 368.5 25 Q310 -10 243 -10 Q150 -10 94.5 49 Q39 108 39 208 Q39 299 79.5 373.5 Q120 448 185 489 Q250 530 325 530 Q393 530 441.5 493.5 Q490 457 509 390 Q551 456 616 493 Q681 530 754 530 Q820 530 859.5 495 Q899 460 899 402 Q899 315 811 263.5 Q723 212 575 212 Q545 212 521 215 L521 211 Q521 136 558 96 Q595 56 663 56 Q746 56 819 110 L836 51 Q759 -10 650 -10 Z M250 56 Q307 56 354 92 Q401 128 427 185 Q453 242 453 307 Q453 379 416.5 421.5 Q380 464 318 464 Q261 464 214 428 Q167 392 141 335 Q115 278 115 213 Q115 141 151.5 98.5 Q188 56 250 56 Z M744 464 Q669 464 607.5 410.5 Q546 357 527 277 Q551 275 570 275 Q684 275 754 307.5 Q824 340 824 394 Q824 427 803 445.5 Q782 464 744 464 Z " />
<glyph glyph-name="germandbls" unicode="&#xdf;" horiz-adv-x="597" d="M591 594 Q591 520 545 463 Q499 406 425 387 Q481 370 512.5 326 Q544 282 544 221 Q544 152 510.5 99.5 Q477 47 420.5 18.5 Q364 -10 295 -10 Q223 -10 168 25 L192 84 Q241 56 296 56 Q370 56 419 102.5 Q468 149 468 220 Q468 284 425 319.5 Q382 355 305 355 L267 355 L280 419 L318 419 Q407 419 461 465 Q515 511 515 586 Q515 635 482 664.5 Q449 694 394 694 Q322 694 272 637 Q222 580 200 474 L99 0 L24 0 L126 478 Q155 613 227 686.5 Q299 760 405 760 Q487 760 539 714 Q591 668 591 594 Z " />
<glyph glyph-name="Eth" unicode="&#xd0;" horiz-adv-x="711" d="M117 325 L29 325 L44 392 L131 392 L197 700 L350 700 Q514 700 597.5 627 Q681 554 681 409 Q681 289 625 194.5 Q569 100 471 50 Q373 0 242 0 L48 0 L117 325 Z M260 628 L210 392 L337 392 L322 325 L196 325 L142 72 L251 72 Q361 72 439 114.5 Q517 157 558.5 233.5 Q600 310 600 407 Q600 520 537.5 574 Q475 628 344 628 L260 628 Z " />
<glyph glyph-name="Oslash" unicode="&#xd8;" horiz-adv-x="733" d="M762 669 L665 575 Q703 507 703 415 Q703 294 651.5 196 Q600 98 517 44 Q434 -10 338 -10 Q279 -10 229 10 Q179 30 142 68 L51 -20 L3 31 L100 125 Q62 193 62 285 Q62 406 113.5 504 Q165 602 248 656 Q331 710 427 710 Q486 710 536 690 Q586 670 623 632 L714 720 L762 669 Z M422 637 Q343 637 278.5 588 Q214 539 178.5 460.5 Q143 382 143 292 Q143 234 162 185 L566 576 Q511 637 422 637 Z M622 408 Q622 466 603 515 L199 124 Q254 63 343 63 Q422 63 486.5 112 Q551 161 586.5 239.5 Q622 318 622 408 Z " />
<glyph glyph-name="eth" unicode="&#xf0;" horiz-adv-x="572" d="M542 735 L433 660 Q538 553 538 381 Q538 263 499 174.5 Q460 86 392.5 38 Q325 -10 243 -10 Q179 -10 132.5 17 Q86 44 61 91 Q36 138 36 198 Q36 285 75 355 Q114 425 176 464.5 Q238 504 307 504 Q360 504 402 481.5 Q444 459 467 419 Q460 542 378 622 L248 533 L217 578 L335 659 Q291 691 234 715 L262 768 Q340 738 391 698 L511 780 L542 735 Z M249 56 Q304 56 351 91 Q398 126 424 180 Q450 234 450 295 Q450 338 431.5 371 Q413 404 381 421 Q349 438 308 438 Q254 438 208 404 Q162 370 137 316.5 Q112 263 112 200 Q112 136 149.5 96 Q187 56 249 56 Z " />
<glyph glyph-name="oslash" unicode="&#xf8;" horiz-adv-x="568" d="M529 312 Q529 221 488.5 146.5 Q448 72 383 31 Q318 -10 243 -10 Q158 -10 103 40 L40 -22 L-4 23 L65 90 Q39 140 39 208 Q39 299 79.5 373.5 Q120 448 185 489 Q250 530 325 530 Q410 530 465 480 L528 542 L572 497 L503 430 Q529 380 529 312 Z M250 56 Q307 56 354 92 Q401 128 427 185 Q453 242 453 307 Q453 344 444 372 L157 92 Q193 56 250 56 Z M115 213 Q115 177 124 148 L411 428 Q375 464 318 464 Q261 464 214 428 Q167 392 141 335 Q115 278 115 213 Z " />
<glyph glyph-name="uni0327" unicode="&#x327;" d="M-119 -158 Q-85 -178 -48 -178 Q-20 -178 -4 -166.5 Q12 -155 12 -134 Q12 -99 -51 -99 L-85 -99 L-26 2 L36 2 L0 -56 Q34 -61 52.5 -80 Q71 -99 71 -129 Q71 -174 37.5 -202 Q4 -230 -48 -230 Q-103 -230 -140 -205 L-119 -158 Z " />
<glyph glyph-name="cedilla" unicode="&#xb8;" horiz-adv-x="565" d="M114 -158 Q148 -178 185 -178 Q213 -178 229 -166.5 Q245 -155 245 -134 Q245 -99 182 -99 L148 -99 L207 2 L269 2 L233 -56 Q267 -61 285.5 -80 Q304 -99 304 -129 Q304 -174 270.5 -202 Q237 -230 185 -230 Q130 -230 93 -205 L114 -158 Z " />
<glyph glyph-name="uni0326" unicode="&#x326;" d="M-88 -224 Q-44 -188 -30 -151 Q-43 -148 -51.5 -138.5 Q-60 -129 -60 -115 Q-60 -95 -45.5 -81 Q-31 -67 -9 -67 Q9 -67 20.5 -78 Q32 -89 32 -108 Q32 -145 7 -182 Q-18 -219 -65 -253 L-88 -224 Z " />
<glyph glyph-name="Ccedilla" unicode="&#xc7;" horiz-adv-x="613" d="M344 -10 Q212 -10 137 69 Q62 148 62 285 Q62 406 115.5 504 Q169 602 256.5 656 Q344 710 447 710 Q495 710 542 697.5 Q589 685 626 663 L599 598 Q520 637 443 637 Q356 637 287 589.5 Q218 542 180.5 464 Q143 386 143 292 Q143 183 198 123 Q253 63 353 63 Q399 63 444 78 Q489 93 523 120 L546 56 Q512 27 456.5 8.5 Q401 -10 344 -10 Z M192 -156 Q223 -176 261 -176 Q289 -176 305 -165 Q321 -154 321 -134 Q321 -100 258 -100 L224 -100 L283 2 L346 2 L311 -54 Q345 -59 363.5 -78.5 Q382 -98 382 -129 Q382 -173 348.5 -201.5 Q315 -230 262 -230 Q207 -230 170 -205 L192 -156 Z " />
<glyph glyph-name="Scedilla" unicode="&#x15e;" horiz-adv-x="576" d="M239 -10 Q178 -10 117.5 9.5 Q57 29 13 62 L42 127 Q85 97 136.5 80 Q188 63 238 63 Q294 63 334.5 80 Q375 97 396.5 127 Q418 157 418 193 Q418 236 392 262.5 Q366 289 284 326 L253 340 Q182 372 150.5 413 Q119 454 119 513 Q119 601 185.5 655.5 Q252 710 359 710 Q414 710 468 694.5 Q522 679 562 651 L536 585 Q444 637 358 637 Q286 637 243 604 Q200 571 200 517 Q200 480 222 455.5 Q244 431 297 407 L328 393 Q392 364 428.5 337 Q465 310 482 276.5 Q499 243 499 199 Q499 137 465.5 89 Q432 41 373.5 15.5 Q315 -10 239 -10 Z M106 -156 Q137 -176 175 -176 Q203 -176 219 -165 Q235 -154 235 -134 Q235 -100 172 -100 L138 -100 L197 2 L260 2 L225 -54 Q259 -59 277.5 -78.5 Q296 -98 296 -129 Q296 -173 262.5 -201.5 Q229 -230 176 -230 Q121 -230 84 -205 L106 -156 Z " />
<glyph glyph-name="uni0162" unicode="&#x162;" horiz-adv-x="570" d="M190 0 L323 628 L98 628 L113 700 L642 700 L627 628 L402 628 L269 0 L190 0 Z M109 -156 Q140 -176 178 -176 Q206 -176 222 -165 Q238 -154 238 -134 Q238 -100 175 -100 L141 -100 L200 2 L263 2 L228 -54 Q262 -59 280.5 -78.5 Q299 -98 299 -129 Q299 -173 265.5 -201.5 Q232 -230 179 -230 Q124 -230 87 -205 L109 -156 Z " />
<glyph glyph-name="uni0218" unicode="&#x218;" horiz-adv-x="576" d="M239 -10 Q178 -10 117.5 9.5 Q57 29 13 62 L42 127 Q85 97 136.5 80 Q188 63 238 63 Q294 63 334.5 80 Q375 97 396.5 127 Q418 157 418 193 Q418 236 392 262.5 Q366 289 284 326 L253 340 Q182 372 150.5 413 Q119 454 119 513 Q119 601 185.5 655.5 Q252 710 359 710 Q414 710 468 694.5 Q522 679 562 651 L536 585 Q444 637 358 637 Q286 637 243 604 Q200 571 200 517 Q200 480 222 455.5 Q244 431 297 407 L328 393 Q392 364 428.5 337 Q465 310 482 276.5 Q499 243 499 199 Q499 137 465.5 89 Q432 41 373.5 15.5 Q315 -10 239 -10 Z M129 -223 Q152 -203 165.5 -186 Q179 -169 186 -151 Q173 -147 165 -137.5 Q157 -128 157 -115 Q157 -94 172.5 -80 Q188 -66 209 -66 Q227 -66 239 -78.5 Q251 -91 251 -111 Q251 -146 224.5 -184.5 Q198 -223 152 -254 L129 -223 Z " />
<glyph glyph-name="uni021A" unicode="&#x21a;" horiz-adv-x="570" d="M190 0 L323 628 L98 628 L113 700 L642 700 L627 628 L402 628 L269 0 L190 0 Z M132 -223 Q155 -203 168.5 -186 Q182 -169 189 -151 Q176 -147 168 -137.5 Q160 -128 160 -115 Q160 -94 175.5 -80 Q191 -66 212 -66 Q230 -66 242 -78.5 Q254 -91 254 -111 Q254 -146 227.5 -184.5 Q201 -223 155 -254 L132 -223 Z " />
<glyph glyph-name="ccedilla" unicode="&#xe7;" horiz-adv-x="488" d="M241 -10 Q143 -10 91 46 Q39 102 39 208 Q39 298 82.5 372.5 Q126 447 195 488.5 Q264 530 342 530 Q420 530 478 491 L450 433 Q400 463 337 463 Q275 463 223.5 427 Q172 391 143.5 334.5 Q115 278 115 213 Q115 137 151 97 Q187 57 255 57 Q322 57 393 110 L410 51 Q378 23 332.5 6.5 Q287 -10 241 -10 Z M102 -158 Q136 -178 173 -178 Q201 -178 217 -166.5 Q233 -155 233 -134 Q233 -99 170 -99 L136 -99 L195 2 L257 2 L221 -56 Q255 -61 273.5 -80 Q292 -99 292 -129 Q292 -174 258.5 -202 Q225 -230 173 -230 Q118 -230 81 -205 L102 -158 Z " />
<glyph glyph-name="scedilla" unicode="&#x15f;" horiz-adv-x="462" d="M195 -10 Q143 -10 96 5 Q49 20 13 48 L38 105 Q111 55 196 55 Q252 55 285 78.5 Q318 102 318 142 Q318 162 309.5 176 Q301 190 281 203.5 Q261 217 222 233 L196 244 Q134 270 109 299.5 Q84 329 84 375 Q84 421 111 456.5 Q138 492 183.5 511 Q229 530 285 530 Q373 530 440 485 L415 427 Q351 465 281 465 Q226 465 192.5 442 Q159 419 159 381 Q159 356 176 339.5 Q193 323 235 305 L261 294 Q335 263 364 231.5 Q393 200 393 151 Q393 103 366.5 66.5 Q340 30 295.5 10 Q251 -10 195 -10 Z M60 -158 Q94 -178 131 -178 Q159 -178 175 -166.5 Q191 -155 191 -134 Q191 -99 128 -99 L94 -99 L153 2 L215 2 L179 -56 Q213 -61 231.5 -80 Q250 -99 250 -129 Q250 -174 216.5 -202 Q183 -230 131 -230 Q76 -230 39 -205 L60 -158 Z " />
<glyph glyph-name="uni0163" unicode="&#x163;" horiz-adv-x="389" d="M186 -10 Q128 -10 96.5 20.5 Q65 51 65 109 Q65 141 73 181 L131 455 L41 455 L54 519 L146 519 L193 667 L251 667 L219 519 L390 519 L377 455 L206 455 L149 189 Q142 157 142 127 Q142 56 207 56 Q228 56 255.5 66.5 Q283 77 308 95 L324 38 Q296 16 259 3 Q222 -10 186 -10 Z M54 -158 Q88 -178 125 -178 Q153 -178 169 -166.5 Q185 -155 185 -134 Q185 -99 122 -99 L88 -99 L147 2 L209 2 L173 -56 Q207 -61 225.5 -80 Q244 -99 244 -129 Q244 -174 210.5 -202 Q177 -230 125 -230 Q70 -230 33 -205 L54 -158 Z " />
<glyph glyph-name="uni0219" unicode="&#x219;" horiz-adv-x="462" d="M195 -10 Q143 -10 96 5 Q49 20 13 48 L38 105 Q111 55 196 55 Q252 55 285 78.5 Q318 102 318 142 Q318 162 309.5 176 Q301 190 281 203.5 Q261 217 222 233 L196 244 Q134 270 109 299.5 Q84 329 84 375 Q84 421 111 456.5 Q138 492 183.5 511 Q229 530 285 530 Q373 530 440 485 L415 427 Q351 465 281 465 Q226 465 192.5 442 Q159 419 159 381 Q159 356 176 339.5 Q193 323 235 305 L261 294 Q335 263 364 231.5 Q393 200 393 151 Q393 103 366.5 66.5 Q340 30 295.5 10 Q251 -10 195 -10 Z M87 -224 Q131 -188 145 -151 Q132 -148 123.5 -138.5 Q115 -129 115 -115 Q115 -95 129.5 -81 Q144 -67 166 -67 Q184 -67 195.5 -78 Q207 -89 207 -108 Q207 -145 182 -182 Q157 -219 110 -253 L87 -224 Z " />
<glyph glyph-name="uni021B" unicode="&#x21b;" horiz-adv-x="389" d="M186 -10 Q128 -10 96.5 20.5 Q65 51 65 109 Q65 141 73 181 L131 455 L41 455 L54 519 L146 519 L193 667 L251 667 L219 519 L390 519 L377 455 L206 455 L149 189 Q142 157 142 127 Q142 56 207 56 Q228 56 255.5 66.5 Q283 77 308 95 L324 38 Q296 16 259 3 Q222 -10 186 -10 Z M81 -224 Q125 -188 139 -151 Q126 -148 117.5 -138.5 Q109 -129 109 -115 Q109 -95 123.5 -81 Q138 -67 160 -67 Q178 -67 189.5 -78 Q201 -89 201 -108 Q201 -145 176 -182 Q151 -219 104 -253 L81 -224 Z " />
<glyph glyph-name="acutecomb" unicode="&#x301;" d="M-35 609 L91 753 L191 753 L46 609 L-35 609 Z " />
<glyph glyph-name="acute" unicode="&#xb4;" horiz-adv-x="565" d="M255 609 L381 753 L481 753 L336 609 L255 609 Z " />
<glyph glyph-name="Aacute" unicode="&#xc1;" horiz-adv-x="615" d="M469 0 L440 192 L149 192 L39 0 L-44 0 L361 700 L440 700 L549 0 L469 0 Z M190 264 L429 264 L379 594 L190 264 Z M358 768 L480 884 L589 884 L441 768 L358 768 Z " />
<glyph glyph-name="Eacute" unicode="&#xc9;" horiz-adv-x="535" d="M27 0 L176 700 L582 700 L567 628 L239 628 L189 390 L465 390 L450 318 L174 318 L121 72 L462 72 L447 0 L27 0 Z M342 768 L464 884 L573 884 L425 768 L342 768 Z " />
<glyph glyph-name="Iacute" unicode="&#xcd;" horiz-adv-x="247" d="M27 0 L176 700 L255 700 L106 0 L27 0 Z M173 768 L295 884 L404 884 L256 768 L173 768 Z " />
<glyph glyph-name="Oacute" unicode="&#xd3;" horiz-adv-x="733" d="M422 637 Q343 637 278.5 588 Q214 539 178.5 460.5 Q143 382 143 292 Q143 188 197 125.5 Q251 63 343 63 Q422 63 486.5 112 Q551 161 586.5 239.5 Q622 318 622 408 Q622 512 568 574.5 Q514 637 422 637 Z M427 710 Q511 710 573.5 672 Q636 634 669.5 567.5 Q703 501 703 415 Q703 294 651.5 196 Q600 98 517 44 Q434 -10 338 -10 Q254 -10 191.5 28 Q129 66 95.5 132.5 Q62 199 62 285 Q62 406 113.5 504 Q165 602 248 656 Q331 710 427 710 Z M406 768 L528 884 L637 884 L489 768 L406 768 Z " />
<glyph glyph-name="Uacute" unicode="&#xda;" horiz-adv-x="652" d="M572 273 Q541 127 471.5 58.5 Q402 -10 284 -10 Q182 -10 124 43.5 Q66 97 66 189 Q66 248 83 328 L162 700 L241 700 L161 325 Q145 253 145 199 Q145 134 182.5 98.5 Q220 63 290 63 Q448 63 494 277 L584 700 L663 700 L572 273 Z M371 768 L493 884 L602 884 L454 768 L371 768 Z " />
<glyph glyph-name="Wacute" unicode="&#x1e82;" horiz-adv-x="822" d="M132 0 L110 700 L188 700 L200 128 L449 640 L522 640 L548 125 L806 700 L887 700 L568 0 L484 0 L460 514 L211 0 L132 0 Z M456 768 L578 884 L687 884 L539 768 L456 768 Z " />
<glyph glyph-name="Yacute" unicode="&#xdd;" horiz-adv-x="565" d="M244 282 L102 700 L182 700 L293 348 L560 700 L649 700 L323 282 L264 0 L185 0 L244 282 Z M329 768 L451 884 L560 884 L412 768 L329 768 Z " />
<glyph glyph-name="aacute" unicode="&#xe1;" horiz-adv-x="569" d="M373 0 L378 62 Q300 -10 209 -10 Q131 -10 85 45.5 Q39 101 39 197 Q39 292 79 368.5 Q119 445 184 487.5 Q249 530 325 530 Q365 530 401.5 514.5 Q438 499 465 471 L484 519 L544 519 L433 0 L373 0 Z M232 56 Q269 56 310.5 77.5 Q352 99 386 134 L446 413 Q422 437 390 450.5 Q358 464 325 464 Q265 464 216.5 428.5 Q168 393 141.5 334.5 Q115 276 115 207 Q115 134 145 95 Q175 56 232 56 Z M293 609 L419 753 L519 753 L374 609 L293 609 Z " />
<glyph glyph-name="eacute" unicode="&#xe9;" horiz-adv-x="522" d="M243 -10 Q146 -10 92.5 47 Q39 104 39 208 Q39 298 83 372.5 Q127 447 197 488.5 Q267 530 347 530 Q413 530 452.5 495 Q492 460 492 402 Q492 315 404 263.5 Q316 212 168 212 Q138 212 114 215 L114 211 Q114 136 151 96 Q188 56 256 56 Q339 56 412 110 L429 51 Q352 -10 243 -10 Z M337 464 Q262 464 200.5 410.5 Q139 357 120 277 Q144 275 163 275 Q277 275 347 307.5 Q417 340 417 394 Q417 427 396 445.5 Q375 464 337 464 Z M291 609 L417 753 L517 753 L372 609 L291 609 Z " />
<glyph glyph-name="iacute" unicode="&#xed;" horiz-adv-x="235" d="M135 519 L210 519 L99 0 L24 0 L135 519 Z M136 609 L262 753 L362 753 L217 609 L136 609 Z " />
<glyph glyph-name="oacute" unicode="&#xf3;" horiz-adv-x="568" d="M529 312 Q529 221 488.5 146.5 Q448 72 383 31 Q318 -10 243 -10 Q150 -10 94.5 49 Q39 108 39 208 Q39 299 79.5 373.5 Q120 448 185 489 Q250 530 325 530 Q418 530 473.5 471 Q529 412 529 312 Z M250 56 Q307 56 354 92 Q401 128 427 185 Q453 242 453 307 Q453 379 416.5 421.5 Q380 464 318 464 Q261 464 214 428 Q167 392 141 335 Q115 278 115 213 Q115 141 151.5 98.5 Q188 56 250 56 Z M299 609 L425 753 L525 753 L380 609 L299 609 Z " />
<glyph glyph-name="uacute" unicode="&#xfa;" horiz-adv-x="560" d="M361 0 L367 67 Q281 -10 180 -10 Q118 -10 83 24.5 Q48 59 48 122 Q48 157 63 229 L125 519 L200 519 L138 228 Q126 171 126 140 Q126 98 147.5 78.5 Q169 59 213 59 Q252 59 295.5 79 Q339 99 378 135 L460 519 L535 519 L424 0 L361 0 Z M294 609 L420 753 L520 753 L375 609 L294 609 Z " />
<glyph glyph-name="wacute" unicode="&#x1e83;" horiz-adv-x="737" d="M68 519 L146 519 L179 111 L379 500 L447 500 L484 114 L687 519 L770 519 L497 0 L431 0 L391 390 L188 0 L122 0 L68 519 Z M380 609 L506 753 L606 753 L461 609 L380 609 Z " />
<glyph glyph-name="yacute" unicode="&#xfd;" horiz-adv-x="487" d="M-11 -226 Q-55 -226 -90 -204 L-65 -145 Q-37 -160 -11 -160 Q24 -160 57 -129 Q90 -98 133 -23 L154 14 L64 519 L144 519 L209 99 L446 519 L531 519 L218 -7 Q169 -90 132.5 -137 Q96 -184 63.5 -205 Q31 -226 -11 -226 Z M259 609 L385 753 L485 753 L340 609 L259 609 Z " />
<glyph glyph-name="gravecomb" unicode="&#x300;" d="M-23 609 L-105 753 L-17 753 L47 609 L-23 609 Z " />
<glyph glyph-name="grave" unicode="&#x60;" horiz-adv-x="565" d="M351 609 L269 753 L357 753 L421 609 L351 609 Z " />
<glyph glyph-name="uni02CB" unicode="&#x2cb;" horiz-adv-x="565" d="M351 609 L269 753 L357 753 L421 609 L351 609 Z " />
<glyph glyph-name="Agrave" unicode="&#xc0;" horiz-adv-x="615" d="M469 0 L440 192 L149 192 L39 0 L-44 0 L361 700 L440 700 L549 0 L469 0 Z M190 264 L429 264 L379 594 L190 264 Z M369 768 L272 884 L371 884 L443 768 L369 768 Z " />
<glyph glyph-name="Egrave" unicode="&#xc8;" horiz-adv-x="535" d="M27 0 L176 700 L582 700 L567 628 L239 628 L189 390 L465 390 L450 318 L174 318 L121 72 L462 72 L447 0 L27 0 Z M353 768 L256 884 L355 884 L427 768 L353 768 Z " />
<glyph glyph-name="Igrave" unicode="&#xcc;" horiz-adv-x="247" d="M27 0 L176 700 L255 700 L106 0 L27 0 Z M184 768 L87 884 L186 884 L258 768 L184 768 Z " />
<glyph glyph-name="Ograve" unicode="&#xd2;" horiz-adv-x="733" d="M422 637 Q343 637 278.5 588 Q214 539 178.5 460.5 Q143 382 143 292 Q143 188 197 125.5 Q251 63 343 63 Q422 63 486.5 112 Q551 161 586.5 239.5 Q622 318 622 408 Q622 512 568 574.5 Q514 637 422 637 Z M427 710 Q511 710 573.5 672 Q636 634 669.5 567.5 Q703 501 703 415 Q703 294 651.5 196 Q600 98 517 44 Q434 -10 338 -10 Q254 -10 191.5 28 Q129 66 95.5 132.5 Q62 199 62 285 Q62 406 113.5 504 Q165 602 248 656 Q331 710 427 710 Z M417 768 L320 884 L419 884 L491 768 L417 768 Z " />
<glyph glyph-name="Ugrave" unicode="&#xd9;" horiz-adv-x="652" d="M572 273 Q541 127 471.5 58.5 Q402 -10 284 -10 Q182 -10 124 43.5 Q66 97 66 189 Q66 248 83 328 L162 700 L241 700 L161 325 Q145 253 145 199 Q145 134 182.5 98.5 Q220 63 290 63 Q448 63 494 277 L584 700 L663 700 L572 273 Z M382 768 L285 884 L384 884 L456 768 L382 768 Z " />
<glyph glyph-name="Wgrave" unicode="&#x1e80;" horiz-adv-x="822" d="M132 0 L110 700 L188 700 L200 128 L449 640 L522 640 L548 125 L806 700 L887 700 L568 0 L484 0 L460 514 L211 0 L132 0 Z M467 768 L370 884 L469 884 L541 768 L467 768 Z " />
<glyph glyph-name="Ygrave" unicode="&#x1ef2;" horiz-adv-x="565" d="M244 282 L102 700 L182 700 L293 348 L560 700 L649 700 L323 282 L264 0 L185 0 L244 282 Z M340 768 L243 884 L342 884 L414 768 L340 768 Z " />
<glyph glyph-name="agrave" unicode="&#xe0;" horiz-adv-x="569" d="M373 0 L378 62 Q300 -10 209 -10 Q131 -10 85 45.5 Q39 101 39 197 Q39 292 79 368.5 Q119 445 184 487.5 Q249 530 325 530 Q365 530 401.5 514.5 Q438 499 465 471 L484 519 L544 519 L433 0 L373 0 Z M232 56 Q269 56 310.5 77.5 Q352 99 386 134 L446 413 Q422 437 390 450.5 Q358 464 325 464 Q265 464 216.5 428.5 Q168 393 141.5 334.5 Q115 276 115 207 Q115 134 145 95 Q175 56 232 56 Z M305 609 L223 753 L311 753 L375 609 L305 609 Z " />
<glyph glyph-name="egrave" unicode="&#xe8;" horiz-adv-x="522" d="M243 -10 Q146 -10 92.5 47 Q39 104 39 208 Q39 298 83 372.5 Q127 447 197 488.5 Q267 530 347 530 Q413 530 452.5 495 Q492 460 492 402 Q492 315 404 263.5 Q316 212 168 212 Q138 212 114 215 L114 211 Q114 136 151 96 Q188 56 256 56 Q339 56 412 110 L429 51 Q352 -10 243 -10 Z M337 464 Q262 464 200.5 410.5 Q139 357 120 277 Q144 275 163 275 Q277 275 347 307.5 Q417 340 417 394 Q417 427 396 445.5 Q375 464 337 464 Z M303 609 L221 753 L309 753 L373 609 L303 609 Z " />
<glyph glyph-name="igrave" unicode="&#xec;" horiz-adv-x="235" d="M135 519 L210 519 L99 0 L24 0 L135 519 Z M148 609 L66 753 L154 753 L218 609 L148 609 Z " />
<glyph glyph-name="ograve" unicode="&#xf2;" horiz-adv-x="568" d="M529 312 Q529 221 488.5 146.5 Q448 72 383 31 Q318 -10 243 -10 Q150 -10 94.5 49 Q39 108 39 208 Q39 299 79.5 373.5 Q120 448 185 489 Q250 530 325 530 Q418 530 473.5 471 Q529 412 529 312 Z M250 56 Q307 56 354 92 Q401 128 427 185 Q453 242 453 307 Q453 379 416.5 421.5 Q380 464 318 464 Q261 464 214 428 Q167 392 141 335 Q115 278 115 213 Q115 141 151.5 98.5 Q188 56 250 56 Z M311 609 L229 753 L317 753 L381 609 L311 609 Z " />
<glyph glyph-name="ugrave" unicode="&#xf9;" horiz-adv-x="560" d="M361 0 L367 67 Q281 -10 180 -10 Q118 -10 83 24.5 Q48 59 48 122 Q48 157 63 229 L125 519 L200 519 L138 228 Q126 171 126 140 Q126 98 147.5 78.5 Q169 59 213 59 Q252 59 295.5 79 Q339 99 378 135 L460 519 L535 519 L424 0 L361 0 Z M306 609 L224 753 L312 753 L376 609 L306 609 Z " />
<glyph glyph-name="wgrave" unicode="&#x1e81;" horiz-adv-x="737" d="M68 519 L146 519 L179 111 L379 500 L447 500 L484 114 L687 519 L770 519 L497 0 L431 0 L391 390 L188 0 L122 0 L68 519 Z M392 609 L310 753 L398 753 L462 609 L392 609 Z " />
<glyph glyph-name="ygrave" unicode="&#x1ef3;" horiz-adv-x="487" d="M-11 -226 Q-55 -226 -90 -204 L-65 -145 Q-37 -160 -11 -160 Q24 -160 57 -129 Q90 -98 133 -23 L154 14 L64 519 L144 519 L209 99 L446 519 L531 519 L218 -7 Q169 -90 132.5 -137 Q96 -184 63.5 -205 Q31 -226 -11 -226 Z M271 609 L189 753 L277 753 L341 609 L271 609 Z " />
<glyph glyph-name="uni0302" unicode="&#x302;" d="M-135 609 L4 752 L78 752 L158 609 L92 609 L34 698 L-61 609 L-135 609 Z " />
<glyph glyph-name="circumflex" unicode="&#x2c6;" horiz-adv-x="565" d="M198 609 L337 752 L411 752 L491 609 L425 609 L367 698 L272 609 L198 609 Z " />
<glyph glyph-name="tildecomb" unicode="&#x303;" d="M-133 622 Q-123 678 -96 710 Q-69 742 -31 742 Q-12 742 3.5 734.5 Q19 727 42 705 Q61 687 70 681.5 Q79 676 90 676 Q106 676 117.5 692.5 Q129 709 134 737 L189 737 Q179 681 152 649 Q125 617 87 617 Q68 617 52.5 624.5 Q37 632 14 654 Q-5 672 -14 677.5 Q-23 683 -34 683 Q-50 683 -61.5 666.5 Q-73 650 -78 622 L-133 622 Z " />
<glyph glyph-name="tilde" unicode="&#x2dc;" horiz-adv-x="565" d="M201 622 Q211 678 238 710 Q265 742 303 742 Q322 742 337.5 734.5 Q353 727 376 705 Q395 687 404 681.5 Q413 676 424 676 Q440 676 451.5 692.5 Q463 709 468 737 L523 737 Q513 681 486 649 Q459 617 421 617 Q402 617 386.5 624.5 Q371 632 348 654 Q329 672 320 677.5 Q311 683 300 683 Q284 683 272.5 666.5 Q261 650 256 622 L201 622 Z " />
<glyph glyph-name="Acircumflex" unicode="&#xc2;" horiz-adv-x="615" d="M469 0 L440 192 L149 192 L39 0 L-44 0 L361 700 L440 700 L549 0 L469 0 Z M190 264 L429 264 L379 594 L190 264 Z M248 768 L390 884 L471 884 L564 768 L490 768 L425 835 L331 768 L248 768 Z " />
<glyph glyph-name="Ecircumflex" unicode="&#xca;" horiz-adv-x="535" d="M27 0 L176 700 L582 700 L567 628 L239 628 L189 390 L465 390 L450 318 L174 318 L121 72 L462 72 L447 0 L27 0 Z M232 768 L374 884 L455 884 L548 768 L474 768 L409 835 L315 768 L232 768 Z " />
<glyph glyph-name="Icircumflex" unicode="&#xce;" horiz-adv-x="247" d="M27 0 L176 700 L255 700 L106 0 L27 0 Z M63 768 L205 884 L286 884 L379 768 L305 768 L240 835 L146 768 L63 768 Z " />
<glyph glyph-name="Ocircumflex" unicode="&#xd4;" horiz-adv-x="733" d="M422 637 Q343 637 278.5 588 Q214 539 178.5 460.5 Q143 382 143 292 Q143 188 197 125.5 Q251 63 343 63 Q422 63 486.5 112 Q551 161 586.5 239.5 Q622 318 622 408 Q622 512 568 574.5 Q514 637 422 637 Z M427 710 Q511 710 573.5 672 Q636 634 669.5 567.5 Q703 501 703 415 Q703 294 651.5 196 Q600 98 517 44 Q434 -10 338 -10 Q254 -10 191.5 28 Q129 66 95.5 132.5 Q62 199 62 285 Q62 406 113.5 504 Q165 602 248 656 Q331 710 427 710 Z M296 768 L438 884 L519 884 L612 768 L538 768 L473 835 L379 768 L296 768 Z " />
<glyph glyph-name="Ucircumflex" unicode="&#xdb;" horiz-adv-x="652" d="M572 273 Q541 127 471.5 58.5 Q402 -10 284 -10 Q182 -10 124 43.5 Q66 97 66 189 Q66 248 83 328 L162 700 L241 700 L161 325 Q145 253 145 199 Q145 134 182.5 98.5 Q220 63 290 63 Q448 63 494 277 L584 700 L663 700 L572 273 Z M261 768 L403 884 L484 884 L577 768 L503 768 L438 835 L344 768 L261 768 Z " />
<glyph glyph-name="Wcircumflex" unicode="&#x174;" horiz-adv-x="822" d="M132 0 L110 700 L188 700 L200 128 L449 640 L522 640 L548 125 L806 700 L887 700 L568 0 L484 0 L460 514 L211 0 L132 0 Z M346 768 L488 884 L569 884 L662 768 L588 768 L523 835 L429 768 L346 768 Z " />
<glyph glyph-name="Ycircumflex" unicode="&#x176;" horiz-adv-x="565" d="M244 282 L102 700 L182 700 L293 348 L560 700 L649 700 L323 282 L264 0 L185 0 L244 282 Z M219 768 L361 884 L442 884 L535 768 L461 768 L396 835 L302 768 L219 768 Z " />
<glyph glyph-name="Atilde" unicode="&#xc3;" horiz-adv-x="615" d="M469 0 L440 192 L149 192 L39 0 L-44 0 L361 700 L440 700 L549 0 L469 0 Z M190 264 L429 264 L379 594 L190 264 Z M252 767 Q261 823 288 855.5 Q315 888 353 888 Q374 888 390.5 880.5 Q407 873 432 851 Q452 833 461.5 827.5 Q471 822 484 822 Q499 822 510.5 838.5 Q522 855 527 883 L585 883 Q576 827 549 794.5 Q522 762 484 762 Q463 762 446.5 769.5 Q430 777 405 799 Q385 817 375.5 822.5 Q366 828 353 828 Q338 828 326.5 811.5 Q315 795 310 767 L252 767 Z " />
<glyph glyph-name="Ntilde" unicode="&#xd1;" horiz-adv-x="676" d="M27 0 L176 700 L252 700 L484 132 L605 700 L684 700 L535 0 L459 0 L227 568 L106 0 L27 0 Z M282 767 Q291 823 318 855.5 Q345 888 383 888 Q404 888 420.5 880.5 Q437 873 462 851 Q482 833 491.5 827.5 Q501 822 514 822 Q529 822 540.5 838.5 Q552 855 557 883 L615 883 Q606 827 579 794.5 Q552 762 514 762 Q493 762 476.5 769.5 Q460 777 435 799 Q415 817 405.5 822.5 Q396 828 383 828 Q368 828 356.5 811.5 Q345 795 340 767 L282 767 Z " />
<glyph glyph-name="Otilde" unicode="&#xd5;" horiz-adv-x="733" d="M422 637 Q343 637 278.5 588 Q214 539 178.5 460.5 Q143 382 143 292 Q143 188 197 125.5 Q251 63 343 63 Q422 63 486.5 112 Q551 161 586.5 239.5 Q622 318 622 408 Q622 512 568 574.5 Q514 637 422 637 Z M427 710 Q511 710 573.5 672 Q636 634 669.5 567.5 Q703 501 703 415 Q703 294 651.5 196 Q600 98 517 44 Q434 -10 338 -10 Q254 -10 191.5 28 Q129 66 95.5 132.5 Q62 199 62 285 Q62 406 113.5 504 Q165 602 248 656 Q331 710 427 710 Z M300 767 Q309 823 336 855.5 Q363 888 401 888 Q422 888 438.5 880.5 Q455 873 480 851 Q500 833 509.5 827.5 Q519 822 532 822 Q547 822 558.5 838.5 Q570 855 575 883 L633 883 Q624 827 597 794.5 Q570 762 532 762 Q511 762 494.5 769.5 Q478 777 453 799 Q433 817 423.5 822.5 Q414 828 401 828 Q386 828 374.5 811.5 Q363 795 358 767 L300 767 Z " />
<glyph glyph-name="acircumflex" unicode="&#xe2;" horiz-adv-x="569" d="M373 0 L378 62 Q300 -10 209 -10 Q131 -10 85 45.5 Q39 101 39 197 Q39 292 79 368.5 Q119 445 184 487.5 Q249 530 325 530 Q365 530 401.5 514.5 Q438 499 465 471 L484 519 L544 519 L433 0 L373 0 Z M232 56 Q269 56 310.5 77.5 Q352 99 386 134 L446 413 Q422 437 390 450.5 Q358 464 325 464 Q265 464 216.5 428.5 Q168 393 141.5 334.5 Q115 276 115 207 Q115 134 145 95 Q175 56 232 56 Z M193 609 L332 752 L406 752 L486 609 L420 609 L362 698 L267 609 L193 609 Z " />
<glyph glyph-name="ecircumflex" unicode="&#xea;" horiz-adv-x="522" d="M243 -10 Q146 -10 92.5 47 Q39 104 39 208 Q39 298 83 372.5 Q127 447 197 488.5 Q267 530 347 530 Q413 530 452.5 495 Q492 460 492 402 Q492 315 404 263.5 Q316 212 168 212 Q138 212 114 215 L114 211 Q114 136 151 96 Q188 56 256 56 Q339 56 412 110 L429 51 Q352 -10 243 -10 Z M337 464 Q262 464 200.5 410.5 Q139 357 120 277 Q144 275 163 275 Q277 275 347 307.5 Q417 340 417 394 Q417 427 396 445.5 Q375 464 337 464 Z M191 609 L330 752 L404 752 L484 609 L418 609 L360 698 L265 609 L191 609 Z " />
<glyph glyph-name="icircumflex" unicode="&#xee;" horiz-adv-x="235" d="M135 519 L210 519 L99 0 L24 0 L135 519 Z M36 609 L175 752 L249 752 L329 609 L263 609 L205 698 L110 609 L36 609 Z " />
<glyph glyph-name="ocircumflex" unicode="&#xf4;" horiz-adv-x="568" d="M529 312 Q529 221 488.5 146.5 Q448 72 383 31 Q318 -10 243 -10 Q150 -10 94.5 49 Q39 108 39 208 Q39 299 79.5 373.5 Q120 448 185 489 Q250 530 325 530 Q418 530 473.5 471 Q529 412 529 312 Z M250 56 Q307 56 354 92 Q401 128 427 185 Q453 242 453 307 Q453 379 416.5 421.5 Q380 464 318 464 Q261 464 214 428 Q167 392 141 335 Q115 278 115 213 Q115 141 151.5 98.5 Q188 56 250 56 Z M199 609 L338 752 L412 752 L492 609 L426 609 L368 698 L273 609 L199 609 Z " />
<glyph glyph-name="ucircumflex" unicode="&#xfb;" horiz-adv-x="560" d="M361 0 L367 67 Q281 -10 180 -10 Q118 -10 83 24.5 Q48 59 48 122 Q48 157 63 229 L125 519 L200 519 L138 228 Q126 171 126 140 Q126 98 147.5 78.5 Q169 59 213 59 Q252 59 295.5 79 Q339 99 378 135 L460 519 L535 519 L424 0 L361 0 Z M194 609 L333 752 L407 752 L487 609 L421 609 L363 698 L268 609 L194 609 Z " />
<glyph glyph-name="wcircumflex" unicode="&#x175;" horiz-adv-x="737" d="M68 519 L146 519 L179 111 L379 500 L447 500 L484 114 L687 519 L770 519 L497 0 L431 0 L391 390 L188 0 L122 0 L68 519 Z M280 609 L419 752 L493 752 L573 609 L507 609 L449 698 L354 609 L280 609 Z " />
<glyph glyph-name="ycircumflex" unicode="&#x177;" horiz-adv-x="487" d="M-11 -226 Q-55 -226 -90 -204 L-65 -145 Q-37 -160 -11 -160 Q24 -160 57 -129 Q90 -98 133 -23 L154 14 L64 519 L144 519 L209 99 L446 519 L531 519 L218 -7 Q169 -90 132.5 -137 Q96 -184 63.5 -205 Q31 -226 -11 -226 Z M159 609 L298 752 L372 752 L452 609 L386 609 L328 698 L233 609 L159 609 Z " />
<glyph glyph-name="atilde" unicode="&#xe3;" horiz-adv-x="569" d="M373 0 L378 62 Q300 -10 209 -10 Q131 -10 85 45.5 Q39 101 39 197 Q39 292 79 368.5 Q119 445 184 487.5 Q249 530 325 530 Q365 530 401.5 514.5 Q438 499 465 471 L484 519 L544 519 L433 0 L373 0 Z M232 56 Q269 56 310.5 77.5 Q352 99 386 134 L446 413 Q422 437 390 450.5 Q358 464 325 464 Q265 464 216.5 428.5 Q168 393 141.5 334.5 Q115 276 115 207 Q115 134 145 95 Q175 56 232 56 Z M195 622 Q205 678 232 710 Q259 742 297 742 Q316 742 331.5 734.5 Q347 727 370 705 Q389 687 398 681.5 Q407 676 418 676 Q434 676 445.5 692.5 Q457 709 462 737 L517 737 Q507 681 480 649 Q453 617 415 617 Q396 617 380.5 624.5 Q365 632 342 654 Q323 672 314 677.5 Q305 683 294 683 Q278 683 266.5 666.5 Q255 650 250 622 L195 622 Z " />
<glyph glyph-name="ntilde" unicode="&#xf1;" horiz-adv-x="565" d="M192 453 Q280 530 380 530 Q445 530 480.5 495 Q516 460 516 397 Q516 362 501 290 L439 0 L364 0 L426 291 Q438 348 438 379 Q438 421 416 441 Q394 461 347 461 Q264 461 182 387 L99 0 L24 0 L135 519 L198 519 L192 453 Z M208 622 Q218 678 245 710 Q272 742 310 742 Q329 742 344.5 734.5 Q360 727 383 705 Q402 687 411 681.5 Q420 676 431 676 Q447 676 458.5 692.5 Q470 709 475 737 L530 737 Q520 681 493 649 Q466 617 428 617 Q409 617 393.5 624.5 Q378 632 355 654 Q336 672 327 677.5 Q318 683 307 683 Q291 683 279.5 666.5 Q268 650 263 622 L208 622 Z " />
<glyph glyph-name="otilde" unicode="&#xf5;" horiz-adv-x="568" d="M529 312 Q529 221 488.5 146.5 Q448 72 383 31 Q318 -10 243 -10 Q150 -10 94.5 49 Q39 108 39 208 Q39 299 79.5 373.5 Q120 448 185 489 Q250 530 325 530 Q418 530 473.5 471 Q529 412 529 312 Z M250 56 Q307 56 354 92 Q401 128 427 185 Q453 242 453 307 Q453 379 416.5 421.5 Q380 464 318 464 Q261 464 214 428 Q167 392 141 335 Q115 278 115 213 Q115 141 151.5 98.5 Q188 56 250 56 Z M201 622 Q211 678 238 710 Q265 742 303 742 Q322 742 337.5 734.5 Q353 727 376 705 Q395 687 404 681.5 Q413 676 424 676 Q440 676 451.5 692.5 Q463 709 468 737 L523 737 Q513 681 486 649 Q459 617 421 617 Q402 617 386.5 624.5 Q371 632 348 654 Q329 672 320 677.5 Q311 683 300 683 Q284 683 272.5 666.5 Q261 650 256 622 L201 622 Z " />
<glyph glyph-name="uni030C" unicode="&#x30c;" d="M189 752 L50 609 L-24 609 L-104 752 L-38 752 L20 663 L115 752 L189 752 Z " />
<glyph glyph-name="caron" unicode="&#x2c7;" horiz-adv-x="565" d="M518 752 L379 609 L305 609 L225 752 L291 752 L349 663 L444 752 L518 752 Z " />
<glyph glyph-name="Scaron" unicode="&#x160;" horiz-adv-x="576" d="M239 -10 Q178 -10 117.5 9.5 Q57 29 13 62 L42 127 Q85 97 136.5 80 Q188 63 238 63 Q294 63 334.5 80 Q375 97 396.5 127 Q418 157 418 193 Q418 236 392 262.5 Q366 289 284 326 L253 340 Q182 372 150.5 413 Q119 454 119 513 Q119 601 185.5 655.5 Q252 710 359 710 Q414 710 468 694.5 Q522 679 562 651 L536 585 Q444 637 358 637 Q286 637 243 604 Q200 571 200 517 Q200 480 222 455.5 Q244 431 297 407 L328 393 Q392 364 428.5 337 Q465 310 482 276.5 Q499 243 499 199 Q499 137 465.5 89 Q432 41 373.5 15.5 Q315 -10 239 -10 Z M566 884 L424 768 L343 768 L250 884 L324 884 L389 817 L483 884 L566 884 Z " />
<glyph glyph-name="Zcaron" unicode="&#x17d;" horiz-adv-x="582" d="M-6 0 L8 69 L497 628 L133 628 L148 700 L611 700 L597 631 L108 72 L496 72 L481 0 L-6 0 Z M576 884 L434 768 L353 768 L260 884 L334 884 L399 817 L493 884 L576 884 Z " />
<glyph glyph-name="scaron" unicode="&#x161;" horiz-adv-x="462" d="M195 -10 Q143 -10 96 5 Q49 20 13 48 L38 105 Q111 55 196 55 Q252 55 285 78.5 Q318 102 318 142 Q318 162 309.5 176 Q301 190 281 203.5 Q261 217 222 233 L196 244 Q134 270 109 299.5 Q84 329 84 375 Q84 421 111 456.5 Q138 492 183.5 511 Q229 530 285 530 Q373 530 440 485 L415 427 Q351 465 281 465 Q226 465 192.5 442 Q159 419 159 381 Q159 356 176 339.5 Q193 323 235 305 L261 294 Q335 263 364 231.5 Q393 200 393 151 Q393 103 366.5 66.5 Q340 30 295.5 10 Q251 -10 195 -10 Z M480 752 L341 609 L267 609 L187 752 L253 752 L311 663 L406 752 L480 752 Z " />
<glyph glyph-name="zcaron" unicode="&#x17e;" horiz-adv-x="494" d="M11 58 L380 455 L106 455 L119 519 L487 519 L475 461 L106 64 L398 64 L385 0 L-1 0 L11 58 Z M490 752 L351 609 L277 609 L197 752 L263 752 L321 663 L416 752 L490 752 Z " />
<glyph glyph-name="uni0308" unicode="&#x308;" d="M-101 676 Q-101 698 -85 712.5 Q-69 727 -46 727 Q-29 727 -17.5 716 Q-6 705 -6 687 Q-6 665 -22 650.5 Q-38 636 -61 636 Q-78 636 -89.5 647 Q-101 658 -101 676 Z M62 676 Q62 698 78 712.5 Q94 727 117 727 Q134 727 145.5 716 Q157 705 157 687 Q157 665 141 650.5 Q125 636 102 636 Q85 636 73.5 647 Q62 658 62 676 Z " />
<glyph glyph-name="dieresis" unicode="&#xa8;" horiz-adv-x="565" d="M230 676 Q230 698 246 712.5 Q262 727 285 727 Q302 727 313.5 716 Q325 705 325 687 Q325 665 309 650.5 Q293 636 270 636 Q253 636 241.5 647 Q230 658 230 676 Z M393 676 Q393 698 409 712.5 Q425 727 448 727 Q465 727 476.5 716 Q488 705 488 687 Q488 665 472 650.5 Q456 636 433 636 Q416 636 404.5 647 Q393 658 393 676 Z " />
<glyph glyph-name="uni0306" unicode="&#x306;" d="M15 606 Q-36 606 -67 634.5 Q-98 663 -98 711 Q-98 720 -97 729 L-42 729 L-42 722 Q-42 693 -25.5 678 Q-9 663 21 663 Q52 663 74.5 681 Q97 699 105 729 L161 729 Q151 674 110.5 640 Q70 606 15 606 Z " />
<glyph glyph-name="breve" unicode="&#x2d8;" horiz-adv-x="565" d="M347 606 Q296 606 265 634.5 Q234 663 234 711 Q234 720 235 729 L290 729 L290 722 Q290 693 306.5 678 Q323 663 353 663 Q384 663 406.5 681 Q429 699 437 729 L493 729 Q483 674 442.5 640 Q402 606 347 606 Z " />
<glyph glyph-name="Adieresis" unicode="&#xc4;" horiz-adv-x="615" d="M469 0 L440 192 L149 192 L39 0 L-44 0 L361 700 L440 700 L549 0 L469 0 Z M190 264 L429 264 L379 594 L190 264 Z M284 821 Q284 844 300 860 Q316 876 339 876 Q359 876 370.5 864.5 Q382 853 382 834 Q382 811 366 795 Q350 779 327 779 Q307 779 295.5 790.5 Q284 802 284 821 Z M455 821 Q455 844 471 860 Q487 876 510 876 Q530 876 541.5 864.5 Q553 853 553 834 Q553 811 537 795 Q521 779 498 779 Q478 779 466.5 790.5 Q455 802 455 821 Z " />
<glyph glyph-name="Edieresis" unicode="&#xcb;" horiz-adv-x="535" d="M27 0 L176 700 L582 700 L567 628 L239 628 L189 390 L465 390 L450 318 L174 318 L121 72 L462 72 L447 0 L27 0 Z M268 821 Q268 844 284 860 Q300 876 323 876 Q343 876 354.5 864.5 Q366 853 366 834 Q366 811 350 795 Q334 779 311 779 Q291 779 279.5 790.5 Q268 802 268 821 Z M439 821 Q439 844 455 860 Q471 876 494 876 Q514 876 525.5 864.5 Q537 853 537 834 Q537 811 521 795 Q505 779 482 779 Q462 779 450.5 790.5 Q439 802 439 821 Z " />
<glyph glyph-name="Idieresis" unicode="&#xcf;" horiz-adv-x="247" d="M27 0 L176 700 L255 700 L106 0 L27 0 Z M99 821 Q99 844 115 860 Q131 876 154 876 Q174 876 185.5 864.5 Q197 853 197 834 Q197 811 181 795 Q165 779 142 779 Q122 779 110.5 790.5 Q99 802 99 821 Z M270 821 Q270 844 286 860 Q302 876 325 876 Q345 876 356.5 864.5 Q368 853 368 834 Q368 811 352 795 Q336 779 313 779 Q293 779 281.5 790.5 Q270 802 270 821 Z " />
<glyph glyph-name="Odieresis" unicode="&#xd6;" horiz-adv-x="733" d="M422 637 Q343 637 278.5 588 Q214 539 178.5 460.5 Q143 382 143 292 Q143 188 197 125.5 Q251 63 343 63 Q422 63 486.5 112 Q551 161 586.5 239.5 Q622 318 622 408 Q622 512 568 574.5 Q514 637 422 637 Z M427 710 Q511 710 573.5 672 Q636 634 669.5 567.5 Q703 501 703 415 Q703 294 651.5 196 Q600 98 517 44 Q434 -10 338 -10 Q254 -10 191.5 28 Q129 66 95.5 132.5 Q62 199 62 285 Q62 406 113.5 504 Q165 602 248 656 Q331 710 427 710 Z M332 821 Q332 844 348 860 Q364 876 387 876 Q407 876 418.5 864.5 Q430 853 430 834 Q430 811 414 795 Q398 779 375 779 Q355 779 343.5 790.5 Q332 802 332 821 Z M503 821 Q503 844 519 860 Q535 876 558 876 Q578 876 589.5 864.5 Q601 853 601 834 Q601 811 585 795 Q569 779 546 779 Q526 779 514.5 790.5 Q503 802 503 821 Z " />
<glyph glyph-name="Udieresis" unicode="&#xdc;" horiz-adv-x="652" d="M572 273 Q541 127 471.5 58.5 Q402 -10 284 -10 Q182 -10 124 43.5 Q66 97 66 189 Q66 248 83 328 L162 700 L241 700 L161 325 Q145 253 145 199 Q145 134 182.5 98.5 Q220 63 290 63 Q448 63 494 277 L584 700 L663 700 L572 273 Z M297 821 Q297 844 313 860 Q329 876 352 876 Q372 876 383.5 864.5 Q395 853 395 834 Q395 811 379 795 Q363 779 340 779 Q320 779 308.5 790.5 Q297 802 297 821 Z M468 821 Q468 844 484 860 Q500 876 523 876 Q543 876 554.5 864.5 Q566 853 566 834 Q566 811 550 795 Q534 779 511 779 Q491 779 479.5 790.5 Q468 802 468 821 Z " />
<glyph glyph-name="Wdieresis" unicode="&#x1e84;" horiz-adv-x="822" d="M132 0 L110 700 L188 700 L200 128 L449 640 L522 640 L548 125 L806 700 L887 700 L568 0 L484 0 L460 514 L211 0 L132 0 Z M382 821 Q382 844 398 860 Q414 876 437 876 Q457 876 468.5 864.5 Q480 853 480 834 Q480 811 464 795 Q448 779 425 779 Q405 779 393.5 790.5 Q382 802 382 821 Z M553 821 Q553 844 569 860 Q585 876 608 876 Q628 876 639.5 864.5 Q651 853 651 834 Q651 811 635 795 Q619 779 596 779 Q576 779 564.5 790.5 Q553 802 553 821 Z " />
<glyph glyph-name="Ydieresis" unicode="&#x178;" horiz-adv-x="565" d="M244 282 L102 700 L182 700 L293 348 L560 700 L649 700 L323 282 L264 0 L185 0 L244 282 Z M255 821 Q255 844 271 860 Q287 876 310 876 Q330 876 341.5 864.5 Q353 853 353 834 Q353 811 337 795 Q321 779 298 779 Q278 779 266.5 790.5 Q255 802 255 821 Z M426 821 Q426 844 442 860 Q458 876 481 876 Q501 876 512.5 864.5 Q524 853 524 834 Q524 811 508 795 Q492 779 469 779 Q449 779 437.5 790.5 Q426 802 426 821 Z " />
<glyph glyph-name="Abreve" unicode="&#x102;" horiz-adv-x="615" d="M469 0 L440 192 L149 192 L39 0 L-44 0 L361 700 L440 700 L549 0 L469 0 Z M190 264 L429 264 L379 594 L190 264 Z M408 763 Q353 763 321 790.5 Q289 818 289 865 Q289 870 289.5 875 Q290 880 291 885 L349 885 L349 881 Q349 849 365 834 Q381 819 415 819 Q437 819 455 827 Q473 835 485 850 Q497 865 502 885 L560 885 Q550 830 508 796.5 Q466 763 408 763 Z " />
<glyph glyph-name="adieresis" unicode="&#xe4;" horiz-adv-x="569" d="M373 0 L378 62 Q300 -10 209 -10 Q131 -10 85 45.5 Q39 101 39 197 Q39 292 79 368.5 Q119 445 184 487.5 Q249 530 325 530 Q365 530 401.5 514.5 Q438 499 465 471 L484 519 L544 519 L433 0 L373 0 Z M232 56 Q269 56 310.5 77.5 Q352 99 386 134 L446 413 Q422 437 390 450.5 Q358 464 325 464 Q265 464 216.5 428.5 Q168 393 141.5 334.5 Q115 276 115 207 Q115 134 145 95 Q175 56 232 56 Z M227 676 Q227 698 243 712.5 Q259 727 282 727 Q299 727 310.5 716 Q322 705 322 687 Q322 665 306 650.5 Q290 636 267 636 Q250 636 238.5 647 Q227 658 227 676 Z M390 676 Q390 698 406 712.5 Q422 727 445 727 Q462 727 473.5 716 Q485 705 485 687 Q485 665 469 650.5 Q453 636 430 636 Q413 636 401.5 647 Q390 658 390 676 Z " />
<glyph glyph-name="edieresis" unicode="&#xeb;" horiz-adv-x="522" d="M243 -10 Q146 -10 92.5 47 Q39 104 39 208 Q39 298 83 372.5 Q127 447 197 488.5 Q267 530 347 530 Q413 530 452.5 495 Q492 460 492 402 Q492 315 404 263.5 Q316 212 168 212 Q138 212 114 215 L114 211 Q114 136 151 96 Q188 56 256 56 Q339 56 412 110 L429 51 Q352 -10 243 -10 Z M337 464 Q262 464 200.5 410.5 Q139 357 120 277 Q144 275 163 275 Q277 275 347 307.5 Q417 340 417 394 Q417 427 396 445.5 Q375 464 337 464 Z M225 676 Q225 698 241 712.5 Q257 727 280 727 Q297 727 308.5 716 Q320 705 320 687 Q320 665 304 650.5 Q288 636 265 636 Q248 636 236.5 647 Q225 658 225 676 Z M388 676 Q388 698 404 712.5 Q420 727 443 727 Q460 727 471.5 716 Q483 705 483 687 Q483 665 467 650.5 Q451 636 428 636 Q411 636 399.5 647 Q388 658 388 676 Z " />
<glyph glyph-name="idieresis" unicode="&#xef;" horiz-adv-x="235" d="M135 519 L210 519 L99 0 L24 0 L135 519 Z M70 676 Q70 698 86 712.5 Q102 727 125 727 Q142 727 153.5 716 Q165 705 165 687 Q165 665 149 650.5 Q133 636 110 636 Q93 636 81.5 647 Q70 658 70 676 Z M233 676 Q233 698 249 712.5 Q265 727 288 727 Q305 727 316.5 716 Q328 705 328 687 Q328 665 312 650.5 Q296 636 273 636 Q256 636 244.5 647 Q233 658 233 676 Z " />
<glyph glyph-name="odieresis" unicode="&#xf6;" horiz-adv-x="568" d="M529 312 Q529 221 488.5 146.5 Q448 72 383 31 Q318 -10 243 -10 Q150 -10 94.5 49 Q39 108 39 208 Q39 299 79.5 373.5 Q120 448 185 489 Q250 530 325 530 Q418 530 473.5 471 Q529 412 529 312 Z M250 56 Q307 56 354 92 Q401 128 427 185 Q453 242 453 307 Q453 379 416.5 421.5 Q380 464 318 464 Q261 464 214 428 Q167 392 141 335 Q115 278 115 213 Q115 141 151.5 98.5 Q188 56 250 56 Z M233 676 Q233 698 249 712.5 Q265 727 288 727 Q305 727 316.5 716 Q328 705 328 687 Q328 665 312 650.5 Q296 636 273 636 Q256 636 244.5 647 Q233 658 233 676 Z M396 676 Q396 698 412 712.5 Q428 727 451 727 Q468 727 479.5 716 Q491 705 491 687 Q491 665 475 650.5 Q459 636 436 636 Q419 636 407.5 647 Q396 658 396 676 Z " />
<glyph glyph-name="udieresis" unicode="&#xfc;" horiz-adv-x="560" d="M361 0 L367 67 Q281 -10 180 -10 Q118 -10 83 24.5 Q48 59 48 122 Q48 157 63 229 L125 519 L200 519 L138 228 Q126 171 126 140 Q126 98 147.5 78.5 Q169 59 213 59 Q252 59 295.5 79 Q339 99 378 135 L460 519 L535 519 L424 0 L361 0 Z M228 676 Q228 698 244 712.5 Q260 727 283 727 Q300 727 311.5 716 Q323 705 323 687 Q323 665 307 650.5 Q291 636 268 636 Q251 636 239.5 647 Q228 658 228 676 Z M391 676 Q391 698 407 712.5 Q423 727 446 727 Q463 727 474.5 716 Q486 705 486 687 Q486 665 470 650.5 Q454 636 431 636 Q414 636 402.5 647 Q391 658 391 676 Z " />
<glyph glyph-name="wdieresis" unicode="&#x1e85;" horiz-adv-x="737" d="M68 519 L146 519 L179 111 L379 500 L447 500 L484 114 L687 519 L770 519 L497 0 L431 0 L391 390 L188 0 L122 0 L68 519 Z M314 676 Q314 698 330 712.5 Q346 727 369 727 Q386 727 397.5 716 Q409 705 409 687 Q409 665 393 650.5 Q377 636 354 636 Q337 636 325.5 647 Q314 658 314 676 Z M477 676 Q477 698 493 712.5 Q509 727 532 727 Q549 727 560.5 716 Q572 705 572 687 Q572 665 556 650.5 Q540 636 517 636 Q500 636 488.5 647 Q477 658 477 676 Z " />
<glyph glyph-name="ydieresis" unicode="&#xff;" horiz-adv-x="487" d="M-11 -226 Q-55 -226 -90 -204 L-65 -145 Q-37 -160 -11 -160 Q24 -160 57 -129 Q90 -98 133 -23 L154 14 L64 519 L144 519 L209 99 L446 519 L531 519 L218 -7 Q169 -90 132.5 -137 Q96 -184 63.5 -205 Q31 -226 -11 -226 Z M193 676 Q193 698 209 712.5 Q225 727 248 727 Q265 727 276.5 716 Q288 705 288 687 Q288 665 272 650.5 Q256 636 233 636 Q216 636 204.5 647 Q193 658 193 676 Z M356 676 Q356 698 372 712.5 Q388 727 411 727 Q428 727 439.5 716 Q451 705 451 687 Q451 665 435 650.5 Q419 636 396 636 Q379 636 367.5 647 Q356 658 356 676 Z " />
<glyph glyph-name="abreve" unicode="&#x103;" horiz-adv-x="569" d="M373 0 L378 62 Q300 -10 209 -10 Q131 -10 85 45.5 Q39 101 39 197 Q39 292 79 368.5 Q119 445 184 487.5 Q249 530 325 530 Q365 530 401.5 514.5 Q438 499 465 471 L484 519 L544 519 L433 0 L373 0 Z M232 56 Q269 56 310.5 77.5 Q352 99 386 134 L446 413 Q422 437 390 450.5 Q358 464 325 464 Q265 464 216.5 428.5 Q168 393 141.5 334.5 Q115 276 115 207 Q115 134 145 95 Q175 56 232 56 Z M343 606 Q292 606 261 634.5 Q230 663 230 711 Q230 720 231 729 L286 729 L286 722 Q286 693 302.5 678 Q319 663 349 663 Q380 663 402.5 681 Q425 699 433 729 L489 729 Q479 674 438.5 640 Q398 606 343 606 Z " />
<glyph glyph-name="uni030A" unicode="&#x30a;" d="M-76 677 Q-76 726 -41.5 759.5 Q-7 793 43 793 Q84 793 109.5 768 Q135 743 135 702 Q135 653 100.5 619.5 Q66 586 16 586 Q-25 586 -50.5 611 Q-76 636 -76 677 Z M83 696 Q83 719 70 733 Q57 747 36 747 Q11 747 -6.5 728.5 Q-24 710 -24 683 Q-24 660 -11 646 Q2 632 23 632 Q48 632 65.5 650.5 Q83 669 83 696 Z " />
<glyph glyph-name="ring" unicode="&#x2da;" horiz-adv-x="565" d="M257 677 Q257 726 291.5 759.5 Q326 793 376 793 Q417 793 442.5 768 Q468 743 468 702 Q468 653 433.5 619.5 Q399 586 349 586 Q308 586 282.5 611 Q257 636 257 677 Z M416 696 Q416 719 403 733 Q390 747 369 747 Q344 747 326.5 728.5 Q309 710 309 683 Q309 660 322 646 Q335 632 356 632 Q381 632 398.5 650.5 Q416 669 416 696 Z " />
<glyph glyph-name="Aring" unicode="&#xc5;" horiz-adv-x="615" d="M469 0 L440 192 L149 192 L39 0 L-44 0 L361 700 L440 700 L549 0 L469 0 Z M190 264 L429 264 L379 594 L190 264 Z M319 846 Q319 895 353.5 929 Q388 963 439 963 Q481 963 506.5 938 Q532 913 532 871 Q532 822 497.5 788 Q463 754 412 754 Q370 754 344.5 779 Q319 804 319 846 Z M479 865 Q479 887 466 901 Q453 915 432 915 Q407 915 389.5 896.5 Q372 878 372 852 Q372 830 385 816 Q398 802 419 802 Q444 802 461.5 820.5 Q479 839 479 865 Z " />
<glyph glyph-name="aring" unicode="&#xe5;" horiz-adv-x="569" d="M373 0 L378 62 Q300 -10 209 -10 Q131 -10 85 45.5 Q39 101 39 197 Q39 292 79 368.5 Q119 445 184 487.5 Q249 530 325 530 Q365 530 401.5 514.5 Q438 499 465 471 L484 519 L544 519 L433 0 L373 0 Z M232 56 Q269 56 310.5 77.5 Q352 99 386 134 L446 413 Q422 437 390 450.5 Q358 464 325 464 Q265 464 216.5 428.5 Q168 393 141.5 334.5 Q115 276 115 207 Q115 134 145 95 Q175 56 232 56 Z M252 677 Q252 726 286.5 759.5 Q321 793 371 793 Q412 793 437.5 768 Q463 743 463 702 Q463 653 428.5 619.5 Q394 586 344 586 Q303 586 277.5 611 Q252 636 252 677 Z M411 696 Q411 719 398 733 Q385 747 364 747 Q339 747 321.5 728.5 Q304 710 304 683 Q304 660 317 646 Q330 632 351 632 Q376 632 393.5 650.5 Q411 669 411 696 Z " />
<glyph glyph-name="uniFEFF" unicode="&#xfeff;" d="" />
</font>
</svg>
