
<svg id="Layer_1" data-name="Layer 1" xmlns="http://www.w3.org/2000/svg" viewBox="0 0 198.62 199.65"><defs><style>.cls-1{fill:#fff;}</style></defs><title>ATT</title><g id="g8057"><g id="g8227"><path id="path3550" class="cls-1" d="M114,198.6a99.2,99.2,0,0,0,36.15-13,103.7,103.7,0,0,0,22.18-18.06l3-3.4L172,166.9c-15,12.46-34.08,20.28-57.17,23.39-6.48.88-25.35,1.24-32.07.63-15.74-1.45-28.52-4.85-40.2-10.69-6.7-3.36-6.29-2.79,2,2.81,13.76,9.25,28.11,14.5,46.16,16.26,3.41.64,19.62.42,23.26-.7Z"/><path id="path3548" class="cls-1" d="M121,182.79c22.74-3.16,43-12.52,57.79-26.63a42.24,42.24,0,0,0,10.39-14.1c2-4,6.18-15.45,6.18-16.68a26,26,0,0,0-2.51,3.53c-14.37,21.93-47.76,36.66-95.38,42.07-6.63.75-24.74.27-32-.85-17-2.62-29.27-7-40.49-14.46-4.72-3.14-12.82-11-15.29-14.75A9.5,9.5,0,0,0,8,138.66a10.36,10.36,0,0,0,1,2.6c3.77,8.35,12.84,17.64,23.52,24.09C45.25,173.09,71.3,181.07,89.85,183l6,.63c3.31.38,20.72-.17,25.2-.79Z"/><path id="path3546" class="cls-1" d="M128.26,155.19c30.44-4.14,52.38-15.41,64.18-33a59.32,59.32,0,0,0,3.17-5.82c2.57-5.35,3.26-10,2.92-19.65a67.63,67.63,0,0,0-.63-8.31c-.28-.92-.39-1-.42-.38a39,39,0,0,1-2.93,8.5c-3.64,7.21-11.76,15.41-20.92,21.12-13.57,8.47-30.36,14.31-56.34,19.6-33.64,6.85-52.53,6.25-78.49-2.49-18.54-6.24-32.44-18.55-37.45-33.17L0,97.59v3.95c0,5.63.57,8.46,2.48,12.36,4.83,9.84,16.92,20,31.77,26.68,14.23,6.41,39.66,12.8,60.52,15.21,7.27.84,25.32.52,33.5-.59Z"/><path id="path3544" class="cls-1" d="M136.73,117.8c28.38-4.28,47.13-14.34,55.11-29.58,2.52-4.8,3.69-9.29,3.35-12.83-.32-3.36-2.52-10.22-5.29-16.55L187.75,54l-.23,2.91c-.53,6.63-3.74,11.93-10.73,17.75-9.67,8-28.54,16.32-51.89,22.76-29.81,8.22-58.54,8.3-83,.23C26.49,92.51,14.36,83.87,9.81,74.73a24.18,24.18,0,0,1-2.53-8.4l-.5-3.23-1.6,4.78C3,74.38,2.76,78.06,4.28,81.39c3.18,7,10.85,14.37,20.24,19.5,17.55,9.58,45.38,15.78,79.37,17.66C114.57,119.15,130.2,118.79,136.73,117.8Z"/><path id="path3542" class="cls-1" d="M126.2,77c28.09-1.92,47.15-9.46,53.2-21.05,2.85-5.47,2.88-10.19.09-14.85a71.24,71.24,0,0,0-9.26-11.23l-2.51-2.48V29c0,2.53-1.37,5-4.43,8-3.52,3.51-7.48,6.11-14.33,9.43C120.62,60.2,79.59,65.33,53.49,58.45c-8.71-2.3-15.15-5.65-19.84-10.32-4.06-4-5.36-6.77-5.35-11.26,0-3.1.14-3.64,1.69-6.78l1.68-3.41L28.8,29.52c-6.13,6-12.81,15-13.34,17.78-.84,4.49,5.59,10.81,16.11,15.83,11.29,5.39,23.5,8.54,42.52,11C96.75,77,113,77.9,126.2,77Z"/><path id="path3540" class="cls-1" d="M114,39.43c18.9-2.29,34-7.63,39.34-13.92,1.64-1.93,2.55-4.54,2.18-6.26-1-4.42-18-13-33-16.62A87.47,87.47,0,0,0,99.35,0,91.73,91.73,0,0,0,66.71,5.43C56.81,8.83,44.55,15.55,41.93,19a6.57,6.57,0,0,0-.83,6.64c3.3,7,20.22,12.78,42.55,14.55C88.55,40.58,108.69,40.07,114,39.43Z"/></g></g></svg>
